<?xml version="1.0" encoding="utf-8"?>
<!-- Generator: Adobe Illustrator 26.2.1, SVG Export Plug-In . SVG Version: 6.00 Build 0)  -->
<svg version="1.1" id="Layer_1" xmlns="http://www.w3.org/2000/svg" xmlns:xlink="http://www.w3.org/1999/xlink" x="0px" y="0px"
	 viewBox="0 0 24 24" style="enable-background:new 0 0 24 24;" xml:space="preserve">
<path d="M22.5,7V5h-2v1h-2V5h-3v1h-2V5h-3v1h-2V5h-3v1h-2V5h-2v2h1v1.7h-1v2.6h1v1.4h-1v2.6h1V17h-1v2h2v-1h2v1h3v-1h2v1h3v-1h2v1h3
	v-1h2v1h2v-2h-1v-1.7h1v-2.6h-1v-1.4h1V8.7h-1V7H22.5z M15,12.6h-2.3V15h-1.3v-2.4H9v-1.2h2.3V9h1.3v2.4H15V12.6z"/>
</svg>
