<?xml version="1.0" encoding="utf-8"?>
<svg version="1.1" width="24" height="24" xmlns="http://www.w3.org/2000/svg" xmlns:xlink="http://www.w3.org/1999/xlink" x="0px" y="0px"
	 viewBox="0 0 24 24" style="enable-background:new 0 0 24 24;" xml:space="preserve">
<style type="text/css">
	.st0{fill:#1E1E1E;}
</style>
	<path class="st0" d="M19,6h-0.8H13v6h5.2v4c0,0.8-0.2,1.4-0.5,1.7c-0.6,0.6-1.6,0.6-2.5,0.5l-0.3,0l0,1.5l0.2,0c0.1,0,0.2,0,0.3,0
		c1,0,2.3-0.1,3.3-1c0.6-0.6,1-1.6,1-2.8V6H19z"/>
	<path class="st0" d="M9.2,6H4v6h5.2v4c0,0.8-0.2,1.4-0.5,1.7c-0.6,0.6-1.6,0.6-2.5,0.5l-0.3,0l0,1.5l0.2,0c0.1,0,0.2,0,0.3,0
		c1,0,2.3-0.1,3.3-1c0.6-0.6,1-1.6,1-2.8V6H10H9.2z"/>
</svg>
