<?xml version="1.0" encoding="utf-8"?>
<svg version="1.1"  width="24" height="24" xmlns="http://www.w3.org/2000/svg" xmlns:xlink="http://www.w3.org/1999/xlink" x="0px" y="0px"
	 viewBox="0 0 24 24" style="enable-background:new 0 0 24 24;" xml:space="preserve">
<style type="text/css">
	.st0{fill-rule:evenodd;clip-rule:evenodd;}
</style>
<path class="st0" d="M24,8H0V6h24V8z"/>
<path d="M3.9,12.2L2.7,13l-0.3-0.5l1.6-1h0.6V17H3.9V12.2z"/>
<path d="M7.4,17.1c-0.6,0-1.1-0.2-1.5-0.7c-0.4-0.5-0.5-1.2-0.5-2.2c0-0.5,0-0.9,0.1-1.3c0.1-0.4,0.2-0.7,0.4-0.9
	c0.2-0.2,0.4-0.4,0.6-0.5c0.3-0.1,0.5-0.2,0.8-0.2c0.3,0,0.6,0.1,0.8,0.2c0.3,0.1,0.5,0.3,0.6,0.5c0.2,0.2,0.3,0.5,0.4,0.9
	c0.1,0.4,0.1,0.8,0.1,1.3s0,0.9-0.1,1.3c-0.1,0.4-0.2,0.7-0.4,0.9c-0.2,0.2-0.4,0.4-0.6,0.5C8,17.1,7.7,17.1,7.4,17.1z M7.4,16.5
	c0.2,0,0.4-0.1,0.6-0.2c0.2-0.1,0.3-0.3,0.4-0.4c0.1-0.2,0.2-0.4,0.2-0.7c0-0.3,0.1-0.6,0.1-1s0-0.7-0.1-1c0-0.3-0.1-0.5-0.2-0.7
	c-0.1-0.2-0.2-0.3-0.4-0.4C7.8,12,7.6,12,7.4,12c-0.2,0-0.4,0.1-0.6,0.2c-0.2,0.1-0.3,0.3-0.4,0.4c-0.1,0.2-0.2,0.4-0.2,0.7
	c0,0.3-0.1,0.6-0.1,1s0,0.7,0.1,1c0,0.3,0.1,0.5,0.2,0.7c0.1,0.2,0.2,0.3,0.4,0.4C6.9,16.5,7.1,16.5,7.4,16.5z"/>
<path d="M12.1,17.1c-0.6,0-1.1-0.2-1.5-0.7c-0.4-0.5-0.5-1.2-0.5-2.2c0-0.5,0-0.9,0.1-1.3c0.1-0.4,0.2-0.7,0.4-0.9
	c0.2-0.2,0.4-0.4,0.6-0.5c0.3-0.1,0.5-0.2,0.8-0.2s0.6,0.1,0.8,0.2c0.3,0.1,0.5,0.3,0.6,0.5c0.2,0.2,0.3,0.5,0.4,0.9
	c0.1,0.4,0.1,0.8,0.1,1.3s0,0.9-0.1,1.3c-0.1,0.4-0.2,0.7-0.4,0.9c-0.2,0.2-0.4,0.4-0.6,0.5C12.7,17.1,12.4,17.1,12.1,17.1z
	 M12.1,16.5c0.2,0,0.4-0.1,0.6-0.2c0.2-0.1,0.3-0.3,0.4-0.4c0.1-0.2,0.2-0.4,0.2-0.7c0-0.3,0.1-0.6,0.1-1s0-0.7-0.1-1
	c0-0.3-0.1-0.5-0.2-0.7c-0.1-0.2-0.2-0.3-0.4-0.4C12.6,12,12.4,12,12.1,12s-0.4,0.1-0.6,0.2c-0.2,0.1-0.3,0.3-0.4,0.4
	C11,12.8,11,13,10.9,13.3c0,0.3-0.1,0.6-0.1,1s0,0.7,0.1,1c0,0.3,0.1,0.5,0.2,0.7c0.1,0.2,0.2,0.3,0.4,0.4
	C11.7,16.5,11.9,16.5,12.1,16.5z"/>
<path d="M17.2,17h-0.7l2.8-5.5H20L17.2,17z M20.3,17.2c-0.2,0-0.4,0-0.6-0.1c-0.2-0.1-0.3-0.2-0.4-0.3c-0.1-0.1-0.2-0.3-0.3-0.5
	c-0.1-0.2-0.1-0.5-0.1-0.8c0-0.3,0-0.5,0.1-0.8c0.1-0.2,0.2-0.4,0.3-0.5c0.1-0.1,0.3-0.3,0.4-0.3c0.2-0.1,0.4-0.1,0.6-0.1
	c0.2,0,0.4,0,0.6,0.1s0.3,0.2,0.4,0.3c0.1,0.1,0.2,0.3,0.3,0.5c0.1,0.2,0.1,0.5,0.1,0.8c0,0.3,0,0.6-0.1,0.8
	c-0.1,0.2-0.2,0.4-0.3,0.5S21,17,20.8,17S20.5,17.2,20.3,17.2z M20.3,16.6c0.2,0,0.4-0.1,0.6-0.3c0.1-0.2,0.2-0.5,0.2-0.9
	c0-0.4-0.1-0.7-0.2-0.9c-0.1-0.2-0.3-0.3-0.6-0.3s-0.4,0.1-0.6,0.3c-0.1,0.2-0.2,0.5-0.2,0.9c0,0.4,0.1,0.7,0.2,0.9
	C19.8,16.5,20,16.6,20.3,16.6z M16.3,14.8c-0.2,0-0.4,0-0.6-0.1c-0.2-0.1-0.3-0.2-0.4-0.3c-0.1-0.1-0.2-0.3-0.3-0.5
	c-0.1-0.2-0.1-0.5-0.1-0.8c0-0.3,0-0.5,0.1-0.8c0.1-0.2,0.2-0.4,0.3-0.5c0.1-0.1,0.3-0.3,0.4-0.3c0.2-0.1,0.4-0.1,0.6-0.1
	c0.2,0,0.4,0,0.6,0.1s0.3,0.2,0.4,0.3c0.1,0.1,0.2,0.3,0.3,0.5c0.1,0.2,0.1,0.5,0.1,0.8c0,0.3,0,0.6-0.1,0.8
	c-0.1,0.2-0.2,0.4-0.3,0.5c-0.1,0.1-0.3,0.2-0.4,0.3C16.7,14.7,16.5,14.8,16.3,14.8z M16.3,14.2c0.2,0,0.4-0.1,0.6-0.3
	c0.1-0.2,0.2-0.5,0.2-0.9c0-0.4-0.1-0.7-0.2-0.9c-0.1-0.2-0.3-0.3-0.6-0.3s-0.4,0.1-0.6,0.3c-0.1,0.2-0.2,0.5-0.2,0.9
	c0,0.4,0.1,0.7,0.2,0.9C15.8,14.1,16,14.2,16.3,14.2z"/>
</svg>
