<svg width="24" height="24" viewBox="0 0 24 24" fill="none" xmlns="http://www.w3.org/2000/svg">
<path fill-rule="evenodd" clip-rule="evenodd" d="M24 8H0V6H24V8Z" fill="black"/>
<path d="M4.95781 15.784C5.01115 16.056 5.11781 16.2533 5.27781 16.376C5.43781 16.4933 5.67248 16.552 5.98181 16.552C6.19515 16.552 6.38181 16.512 6.54181 16.432C6.70715 16.352 6.84315 16.2213 6.94981 16.04C7.05648 15.8587 7.13648 15.6267 7.18981 15.344C7.24315 15.056 7.26981 14.704 7.26981 14.288C6.93381 14.7787 6.45381 15.024 5.82981 15.024C5.53115 15.024 5.27515 14.9787 5.06181 14.888C4.85381 14.792 4.68048 14.664 4.54181 14.504C4.40315 14.3387 4.30181 14.144 4.23781 13.92C4.17381 13.696 4.14181 13.456 4.14181 13.2C4.14181 12.9227 4.18715 12.6693 4.27781 12.44C4.36848 12.2053 4.49648 12.0053 4.66181 11.84C4.82715 11.6747 5.02715 11.5467 5.26181 11.456C5.49648 11.3653 5.75781 11.32 6.04581 11.32C6.42448 11.32 6.73648 11.3973 6.98181 11.552C7.22715 11.7067 7.42181 11.9093 7.56581 12.16C7.70981 12.4107 7.81115 12.6933 7.86981 13.008C7.92848 13.3227 7.95781 13.6373 7.95781 13.952C7.95781 14.3947 7.93115 14.8107 7.87781 15.2C7.82448 15.584 7.72315 15.92 7.57381 16.208C7.42981 16.496 7.22981 16.7253 6.97381 16.896C6.72315 17.0613 6.39781 17.144 5.99781 17.144C5.48048 17.144 5.07515 17.0347 4.78181 16.816C4.49381 16.5973 4.32581 16.2533 4.27781 15.784H4.95781ZM5.97381 14.44C6.13381 14.44 6.28581 14.416 6.42981 14.368C6.57381 14.32 6.70181 14.248 6.81381 14.152C6.92581 14.0507 7.01381 13.9227 7.07781 13.768C7.14715 13.6133 7.18181 13.4293 7.18181 13.216C7.18181 13.056 7.15781 12.8987 7.10981 12.744C7.06715 12.584 6.99781 12.4427 6.90181 12.32C6.81115 12.192 6.69381 12.0907 6.54981 12.016C6.41115 11.9413 6.24315 11.904 6.04581 11.904C5.67781 11.904 5.38448 12.016 5.16581 12.24C4.95248 12.464 4.84581 12.776 4.84581 13.176C4.84581 13.352 4.86448 13.5173 4.90181 13.672C4.93915 13.8267 5.00048 13.96 5.08581 14.072C5.17648 14.184 5.29381 14.2747 5.43781 14.344C5.58181 14.408 5.76048 14.44 5.97381 14.44Z" fill="black"/>
<path d="M9.20819 15.584C9.26685 15.9093 9.38152 16.1493 9.55219 16.304C9.72285 16.4533 9.99752 16.528 10.3762 16.528C10.7282 16.528 11.0029 16.424 11.2002 16.216C11.4029 16.008 11.5042 15.68 11.5042 15.232C11.5042 14.8693 11.4162 14.5787 11.2402 14.36C11.0695 14.136 10.7842 14.024 10.3842 14.024C10.1335 14.024 9.91752 14.064 9.73619 14.144C9.55485 14.2187 9.38952 14.336 9.24019 14.496H8.63219L8.88019 11.472H11.8882V12.104H9.46419L9.31219 13.824C9.48285 13.696 9.66152 13.6027 9.84819 13.544C10.0349 13.48 10.2562 13.448 10.5122 13.448C10.8109 13.448 11.0669 13.496 11.2802 13.592C11.4989 13.6827 11.6749 13.8107 11.8082 13.976C11.9469 14.136 12.0482 14.3253 12.1122 14.544C12.1762 14.7573 12.2082 14.984 12.2082 15.224C12.2082 15.8533 12.0429 16.3307 11.7122 16.656C11.3869 16.9813 10.9469 17.144 10.3922 17.144C9.81085 17.144 9.36285 17.0133 9.04819 16.752C8.73885 16.4907 8.56285 16.1013 8.52019 15.584H9.20819Z" fill="black"/>
<path d="M12.7626 12.864H13.4506V13.456C13.6212 13.2213 13.8186 13.0427 14.0426 12.92C14.2719 12.7973 14.5386 12.736 14.8426 12.736C15.1359 12.736 15.3919 12.7893 15.6106 12.896C15.8346 13.0027 16.0186 13.152 16.1626 13.344C16.3119 13.536 16.4212 13.7653 16.4906 14.032C16.5652 14.2933 16.6026 14.584 16.6026 14.904C16.6026 15.2453 16.5599 15.5547 16.4746 15.832C16.3892 16.104 16.2666 16.336 16.1066 16.528C15.9466 16.72 15.7519 16.8693 15.5226 16.976C15.2986 17.0773 15.0452 17.128 14.7626 17.128C14.5279 17.128 14.2959 17.0827 14.0666 16.992C13.8426 16.896 13.6399 16.728 13.4586 16.488V18.552H12.7626V12.864ZM13.4506 15.048C13.4506 15.3147 13.4799 15.544 13.5386 15.736C13.6026 15.9227 13.6879 16.0773 13.7946 16.2C13.9012 16.3227 14.0292 16.4133 14.1786 16.472C14.3279 16.5253 14.4906 16.552 14.6666 16.552C14.8372 16.552 14.9946 16.5227 15.1386 16.464C15.2879 16.4053 15.4159 16.312 15.5226 16.184C15.6292 16.0507 15.7119 15.88 15.7706 15.672C15.8346 15.464 15.8666 15.2107 15.8666 14.912C15.8666 14.608 15.8319 14.3547 15.7626 14.152C15.6986 13.944 15.6132 13.7787 15.5066 13.656C15.3999 13.5333 15.2772 13.4453 15.1386 13.392C15.0052 13.3387 14.8666 13.312 14.7226 13.312C14.5412 13.312 14.3732 13.344 14.2186 13.408C14.0639 13.4667 13.9279 13.5573 13.8106 13.68C13.6986 13.7973 13.6106 13.9493 13.5466 14.136C13.4826 14.3173 13.4506 14.528 13.4506 14.768V15.048Z" fill="black"/>
<path d="M17.8347 14.824L16.4508 12.864H17.2668L18.2507 14.328L19.2747 12.864H20.0187L18.6588 14.816L20.1628 17H19.3547L18.2188 15.328L17.0748 17H16.3067L17.8347 14.824Z" fill="black"/>
</svg>
