<?xml version="1.0" encoding="utf-8"?>
<svg version="1.1" width="24" height="24" xmlns="http://www.w3.org/2000/svg" xmlns:xlink="http://www.w3.org/1999/xlink" x="0px" y="0px"
	 viewBox="0 0 24 24" style="enable-background:new 0 0 24 24;" xml:space="preserve">
<g>
	<rect x="8" y="10.75" width="8" height="1.5"/>
	<path d="M21,12.142V8c0-1.103-0.897-2-2-2H5C3.897,6,3,6.897,3,8v7c0,1.103,0.897,2,2,2h11.142c0.447,1.721,1.999,3,3.858,3
		c2.206,0,4-1.794,4-4C24,14.141,22.721,12.589,21,12.142z M4.5,15V8c0-0.276,0.224-0.5,0.5-0.5h14c0.275,0,0.5,0.224,0.5,0.5v4.051
		c-1.803,0.228-3.221,1.647-3.449,3.449H5C4.724,15.5,4.5,15.275,4.5,15z M20,19c-1.654,0-3-1.346-3-3s1.346-3,3-3s3,1.346,3,3
		S21.654,19,20,19z"/>
	<polygon points="20.345,14 19.655,14 19.655,15.685 18,15.685 18,16.315 19.655,16.315 19.655,18 20.345,18 20.345,16.315 
		22,16.315 22,15.685 20.345,15.685 	"/>
</g>
</svg>
