<?xml version="1.0" encoding="utf-8"?>
<svg version="1.1" width="24" height="24" xmlns="http://www.w3.org/2000/svg" xmlns:xlink="http://www.w3.org/1999/xlink" x="0px" y="0px"
	 viewBox="0 0 24 24" style="enable-background:new 0 0 24 24;" xml:space="preserve">
	<polygon points="11.743,1 11.743,1 11.743,1 	"/>
	<path d="M19.914,15.143c-0.494,0-0.929,0.24-1.218,0.599l-1.385-0.835c0.456-0.87,0.717-1.858,0.717-2.907
		c0-1.049-0.291-2.027-0.747-2.897l1.405-0.845c0.289,0.362,0.732,0.599,1.228,0.599c0.864,0,1.571-0.707,1.571-1.571
		c0-0.864-0.707-1.571-1.571-1.571c-0.864,0-1.572,0.707-1.572,1.571c0,0.141,0.024,0.273,0.059,0.403l-1.67,1.021
		c-0.144,0.089-0.191,0.275-0.108,0.422c0.443,0.753,0.715,1.628,0.766,2.554h-2.514c-0.039-1.481-0.349-2.82-0.854-3.83
		c-0.288-0.576-0.645-1.051-1.061-1.375c0.88,0.192,1.684,0.581,2.357,1.129c0.065,0.052,0.148,0.076,0.231,0.067
		c0.083-0.009,0.159-0.051,0.211-0.116c0.052-0.065,0.076-0.148,0.067-0.231c-0.009-0.083-0.051-0.159-0.116-0.211
		c-1.006-0.819-2.273-1.317-3.653-1.385V4.114c0.714-0.147,1.257-0.786,1.257-1.542C13.314,1.707,12.607,1,11.743,1
		c-0.864,0-1.571,0.707-1.571,1.571c0,0.756,0.543,1.395,1.257,1.542v1.611C9.371,5.825,7.57,6.926,6.498,8.543L5.084,7.698
		C5.12,7.566,5.143,7.429,5.143,7.286c0-0.864-0.707-1.571-1.571-1.571C2.707,5.714,2,6.422,2,7.286C2,8.15,2.707,8.857,3.571,8.857
		c0.496,0,0.939-0.237,1.228-0.599l1.385,0.825C5.722,9.958,5.457,10.943,5.457,12c0,1.049,0.261,2.037,0.717,2.907l-1.385,0.835
		c-0.289-0.359-0.724-0.599-1.218-0.599C2.707,15.143,2,15.85,2,16.714s0.707,1.571,1.571,1.571c0.864,0,1.571-0.707,1.571-1.571
		c0-0.148-0.03-0.286-0.069-0.422l1.414-0.845c1.07,1.627,2.875,2.737,4.94,2.838v1.601c-0.714,0.147-1.257,0.786-1.257,1.542
		c0,0.864,0.707,1.571,1.571,1.571s1.571-0.707,1.571-1.571c0-0.756-0.543-1.395-1.257-1.542v-1.601
		c2.066-0.102,3.87-1.211,4.94-2.838l1.414,0.845c-0.039,0.136-0.069,0.274-0.069,0.422c0,0.864,0.707,1.571,1.571,1.571
		c0.864,0,1.571-0.707,1.571-1.571S20.778,15.143,19.914,15.143z M19.914,6.343c0.524,0,0.943,0.418,0.943,0.943
		s-0.418,0.943-0.943,0.943c-0.525,0-0.943-0.419-0.943-0.943S19.39,6.343,19.914,6.343z M3.572,8.229
		c-0.524,0-0.943-0.419-0.943-0.943s0.418-0.943,0.943-0.943c0.525,0,0.943,0.418,0.943,0.943S4.096,8.229,3.572,8.229z
		 M3.571,17.657c-0.524,0-0.943-0.419-0.943-0.943s0.418-0.943,0.943-0.943c0.525,0,0.943,0.418,0.943,0.943
		S4.096,17.657,3.571,17.657z M10.8,2.571c0-0.524,0.419-0.943,0.943-0.943c0.524,0,0.943,0.419,0.943,0.943
		s-0.419,0.943-0.943,0.943C11.219,3.514,10.8,3.096,10.8,2.571z M11.429,6.706v4.979h-2.19c0.04-1.393,0.336-2.647,0.786-3.545
		C10.425,7.34,10.923,6.852,11.429,6.706z M10.535,6.48c-0.418,0.324-0.781,0.796-1.071,1.375c-0.505,1.01-0.815,2.35-0.854,3.83
		H6.106C6.247,9.116,8.09,7.012,10.535,6.48z M6.106,12.314H8.61c0.039,1.481,0.349,2.82,0.854,3.83
		c0.294,0.589,0.663,1.071,1.09,1.395C8.1,17.015,6.247,14.892,6.106,12.314z M10.024,15.86c-0.449-0.899-0.746-2.152-0.786-3.545
		h2.19v4.979C10.923,17.148,10.425,16.66,10.024,15.86z M12.686,21.429c0,0.524-0.419,0.943-0.943,0.943
		c-0.524,0-0.943-0.419-0.943-0.943s0.419-0.943,0.943-0.943C12.267,20.486,12.686,20.904,12.686,21.429z M12.057,6.706
		c0.506,0.145,1.004,0.634,1.404,1.434c0.449,0.899,0.746,2.153,0.786,3.545h-2.19V6.706z M12.058,17.294v-4.979h2.19
		c-0.04,1.393-0.336,2.647-0.786,3.545C13.062,16.66,12.563,17.148,12.058,17.294z M12.932,17.539
		c0.427-0.324,0.796-0.806,1.09-1.395c0.505-1.01,0.815-2.35,0.854-3.83h2.504C17.239,14.892,15.387,17.015,12.932,17.539z
		 M19.914,17.657c-0.525,0-0.943-0.419-0.943-0.943s0.418-0.943,0.943-0.943c0.524,0,0.943,0.418,0.943,0.943
		S20.439,17.657,19.914,17.657z"/>
</svg>
