<?xml version="1.0" encoding="utf-8"?>
<svg width="24" height="24" version="1.1" xmlns="http://www.w3.org/2000/svg" xmlns:xlink="http://www.w3.org/1999/xlink" x="0px" y="0px"
	 viewBox="0 0 24 24" style="enable-background:new 0 0 24 24;" xml:space="preserve">
	<path d="M3.8,6.4c1.4,0,2.3-1,2.3-2.1c0-1.2-0.9-2.2-2.3-2.2c-1.4,0-2.3,0.9-2.2,2.2C1.6,5.5,2.5,6.4,3.8,6.4z M1.7,8.1v13.7H6V8.1
		H1.7z M9.3,8.1c0.1,1.2,0.1,2.7,0.1,4.4h0v4.7v4.7h4.3v-7.9c0-0.4,0.1-0.8,0.2-1.1c0.3-0.8,1-1.6,2.2-1.6c1.5,0,2.2,1.2,2.2,3v7.6
		h4.3v-8.1c0-4-2.1-5.9-4.9-5.9c-2.3,0-3.7,1.3-4.2,2.2h-0.1L13,8.1H9.3z"/>
</svg>
