<?xml version="1.0" encoding="utf-8"?>
<!-- Generator: Adobe Illustrator 27.3.1, SVG Export Plug-In . SVG Version: 6.00 Build 0)  -->
<svg version="1.1" id="Layer_1" xmlns="http://www.w3.org/2000/svg" xmlns:xlink="http://www.w3.org/1999/xlink" x="0px" y="0px"
	 viewBox="0 0 24 24" style="enable-background:new 0 0 24 24;" xml:space="preserve">
<style type="text/css">
	.st0{fill:none;}
</style>
<g>
	<path d="M17.6,10.1c1.3,0.4,2.7,1.3,2.7,3c0,2.8-4,6.3-10.1,6.3c-4.6,0-9.3-2.2-9.3-5.9c0-1.9,1.2-4.1,3.3-6.2
		c2.8-2.8,6.1-4.1,7.3-2.8C12,5,12.1,6,11.7,7.1c-0.2,0.6,0.5,0.3,0.5,0.3c2.3-0.9,4.2-1,5,0c0.4,0.5,0.3,1.3,0,2.2
		C17,10,17.3,10.1,17.6,10.1L17.6,10.1z M10.2,18.2c3.7-0.4,6.5-2.6,6.2-5c-0.2-2.4-3.4-4.1-7.1-3.7c-3.7,0.4-6.5,2.6-6.2,5
		C3.4,16.9,6.5,18.5,10.2,18.2z M6.1,13.2c0.8-1.5,2.7-2.4,4.5-2c1.8,0.5,2.7,2.2,2,3.8c-0.8,1.7-2.9,2.6-4.7,2
		C6.1,16.6,5.3,14.8,6.1,13.2L6.1,13.2z M7.6,15.8c0.6,0.3,1.3,0,1.7-0.6c0.3-0.6,0.2-1.2-0.4-1.5c-0.6-0.2-1.3,0-1.7,0.6
		C6.8,14.9,7,15.6,7.6,15.8z M9.8,14c0.2,0.1,0.5,0,0.6-0.2c0.1-0.2,0-0.5-0.2-0.6c-0.2-0.1-0.5,0-0.6,0.2C9.5,13.7,9.6,13.9,9.8,14
		z M19.9,8.3c-0.1,0.4-0.5,0.6-0.9,0.5c-0.4-0.1-0.6-0.5-0.5-0.9c0,0,0,0,0,0c0.2-0.5,0-1-0.3-1.4c-0.3-0.4-0.8-0.5-1.3-0.4
		c-0.4,0.1-0.8-0.2-0.9-0.6C16,5,16.2,4.7,16.6,4.6c1.5-0.3,3.1,0.7,3.4,2.2C20.1,7.3,20.1,7.8,19.9,8.3L19.9,8.3z M16,1.6
		c2.1-0.4,4.2,0.3,5.6,1.8C23,5,23.5,7.2,22.8,9.2c-0.1,0.4-0.6,0.7-1.1,0.5c0,0,0,0,0,0c-0.4-0.1-0.7-0.6-0.5-1.1
		c0.7-2.2-0.5-4.6-2.7-5.3c-0.7-0.2-1.4-0.3-2.2-0.1c-0.5,0.1-0.9-0.2-1-0.7C15.3,2.1,15.6,1.7,16,1.6L16,1.6z"/>
</g>
</svg>
