<?xml version="1.0" encoding="utf-8"?>
<svg  width="24" height="24" version="1.1" xmlns="http://www.w3.org/2000/svg" xmlns:xlink="http://www.w3.org/1999/xlink" x="0px" y="0px"
	 viewBox="0 0 24 24" style="enable-background:new 0 0 24 24;" xml:space="preserve">
	<path fill="#000000" d="M12,20.3c-0.7,0-6.9,0-8.7-0.5c-0.6-0.2-1.2-0.5-1.6-0.9c-0.5-0.4-0.8-1-1-1.6c-0.3-1.9-0.5-3.7-0.5-5.5
		c0-1.8,0.1-3.6,0.5-5.3c0.2-0.7,0.5-1.3,0.9-1.7c0.5-0.5,1-0.8,1.6-1c1.8-0.5,8-0.5,8.7-0.5c0.7,0,6.9,0,8.6,0.4
		c0.7,0.2,1.2,0.5,1.7,1c0.5,0.5,0.8,1,0.9,1.7c0,0,0,0,0,0.1c0.3,1.8,0.5,3.6,0.5,5.4c0,1.8-0.1,3.5-0.5,5.3
		c-0.2,0.7-0.5,1.3-0.9,1.7c-0.5,0.5-1,0.8-1.6,1C18.9,20.2,12.7,20.3,12,20.3z M12,5.2c-2.6,0-7,0.1-8.1,0.4C3.6,5.7,3.3,5.8,3.1,6
		C2.9,6.3,2.7,6.5,2.7,6.8c-0.3,1.6-0.4,3.3-0.4,4.9c0,1.7,0.1,3.4,0.4,5c0.1,0.2,0.2,0.5,0.4,0.7c0.2,0.2,0.5,0.4,0.8,0.4
		c1.1,0.3,5.5,0.4,8.1,0.4s7-0.1,8.1-0.4c0.3-0.1,0.5-0.2,0.8-0.5c0.2-0.2,0.4-0.5,0.4-0.8c0.3-1.6,0.4-3.2,0.4-4.9
		c0-1.7-0.1-3.4-0.4-5c-0.1-0.3-0.2-0.5-0.4-0.8c-0.2-0.2-0.5-0.4-0.8-0.5C18.9,5.2,13.8,5.2,12,5.2z"/>
	<path fill="#000000" d="M9.8,15.9c-0.2,0-0.3,0-0.5-0.1c-0.3-0.2-0.5-0.5-0.5-0.8V8.6c0-0.3,0.2-0.7,0.5-0.8c0.3-0.2,0.7-0.2,1,0
		l5.6,3.2c0.3,0.2,0.5,0.5,0.5,0.8s-0.2,0.7-0.5,0.8l-5.6,3.2C10.1,15.9,10,15.9,9.8,15.9z M10.8,10.2v3l2.7-1.5L10.8,10.2z"/>
</svg>
