<?xml version="1.0" encoding="utf-8"?>
<!-- Generator: Adobe Illustrator 27.3.1, SVG Export Plug-In . SVG Version: 6.00 Build 0)  -->
<svg version="1.1" id="Layer_2" xmlns="http://www.w3.org/2000/svg" xmlns:xlink="http://www.w3.org/1999/xlink" x="0px" y="0px"
	 viewBox="0 0 24 24" style="enable-background:new 0 0 24 24;" xml:space="preserve">
<g>
	<path d="M3.3,0.3h17.3c1.6,0,3.1,1.4,3.1,3.1v17.3c0,1.7-1.4,3.1-3.1,3.1H3.3c-1.7-0.1-3-1.5-3.1-3.1V3.3C0.3,1.7,1.7,0.3,3.3,0.3z
		 M4.9,8.6c0,1.8,0,3.6,0,5.5c0,0.1,0,0.2-0.1,0.2c0,0,0,0-0.1,0c-0.2,0-0.4,0-0.7,0c0.1,0.4,0.3,0.7,0.5,1.1c0.4,0,0.9,0.1,1.2-0.2
		c0.3-0.2,0.4-0.7,0.4-1c0-1.9,0-3.7,0-5.6C5.7,8.6,5.3,8.6,4.9,8.6z M10,8.6C9.7,9.3,9.4,10,9.1,10.7c-0.1,0.2-0.2,0.5,0,0.7
		c0.2,0.2,0.6,0.1,0.9,0.2c-0.2,0.5-0.5,1-0.7,1.6c-0.1,0.3,0.1,0.5,0.4,0.5c0.5,0,1,0,1.5,0c0.2-0.4,0.3-0.7,0.5-1.1
		c-0.3,0-0.6,0-0.8,0c0.3-0.8,0.7-1.5,1-2.2c-0.4,0-0.8,0.1-1.2-0.1c0.2-0.6,0.5-1.1,0.7-1.7C10.9,8.6,10.4,8.6,10,8.6z M16.7,8.6V9
		c-0.3,0-0.6,0-0.8,0c0,0.4,0,0.9,0,1.3c0.3,0,0.6,0,0.8,0c0,0.4,0,0.7,0,1.1c-0.4,0-0.8,0-1.3,0c0,0.4,0,0.8,0,1.3
		c0.4,0,0.8,0,1.3,0c0,0.9,0,1.8,0,2.7c0.4,0,0.8,0,1.3,0c0-0.9,0-1.8,0-2.7c0.6,0,1.2,0,1.9,0c0.2,0,0.5,0.1,0.5,0.4
		c0,0.3,0,0.7,0,1c0,0.1-0.1,0.2-0.2,0.2c-0.4,0-0.7,0-1.1,0c0.2,0.4,0.3,0.7,0.5,1.1c0.6,0,1.3,0.1,1.7-0.4c0.4-0.4,0.3-1,0.3-1.5
		c0-0.5,0.1-1.1-0.2-1.6c-0.3-0.4-0.8-0.5-1.3-0.5c0-0.6,0.1-1.4-0.3-1.9C19.3,9,18.6,9,18,9V8.6C17.5,8.6,17.1,8.6,16.7,8.6z
		 M12.1,9c0,0.4,0,0.9,0,1.3c0.3,0,0.5,0,0.8,0c0,1.3,0,2.6,0,3.8c-0.4,0-0.8,0-1.1,0c-0.2,0.4-0.4,0.8-0.6,1.3c1.4,0,2.8,0,4.3,0
		c0-0.4,0-0.8,0-1.3c-0.4,0-0.8,0-1.2,0c0-1.3,0-2.6,0-3.8c0.3,0,0.5,0,0.8,0c0-0.4,0-0.9,0-1.3C14.1,9,13.1,9,12.1,9L12.1,9z
		 M20.5,9.2c-0.4,0.3-0.2,0.8-0.3,1.1c0.2,0,0.5,0,0.7,0c0.4,0,0.7-0.5,0.5-0.8C21.4,9.1,20.8,8.9,20.5,9.2L20.5,9.2z M2.7,10.3
		c-0.1,0.8-0.1,1.7-0.2,2.5c0,0.2-0.1,0.4-0.1,0.6c0.2,0.5,0.4,1,0.7,1.5c0.5-0.7,0.7-1.6,0.8-2.4C3.9,11.7,4,11,4,10.3
		C3.6,10.3,3.2,10.3,2.7,10.3z M7,10.3c0.1,0.8,0.1,1.6,0.2,2.3c0.1,0.8,0.3,1.6,0.7,2.2c0.2-0.5,0.4-1,0.7-1.5
		c-0.1-0.2-0.1-0.4-0.1-0.6c-0.1-0.8-0.1-1.7-0.2-2.5C7.8,10.3,7.4,10.3,7,10.3L7,10.3z M8.5,15.3c0.6,0.2,1.3,0.1,2,0.1
		c0.2-0.4,0.4-0.8,0.6-1.3c-0.7,0-1.3,0.1-2-0.1C8.9,14.5,8.7,14.9,8.5,15.3L8.5,15.3z"/>
	<path d="M17.9,10.3c0.3,0,0.6-0.1,0.9,0.1c0,0.3,0,0.7,0,1c-0.3,0-0.6,0-0.9,0C17.9,11.1,17.9,10.7,17.9,10.3z"/>
</g>
</svg>
