<?xml version="1.0" encoding="utf-8"?>
<svg width="24" height="24" version="1.1" xmlns="http://www.w3.org/2000/svg" xmlns:xlink="http://www.w3.org/1999/xlink" x="0px" y="0px"
	 viewBox="0 0 24 24" style="enable-background:new 0 0 24 24;" xml:space="preserve">
<g>
	<path d="M20.4,20h-2v-1h2V20z M16.4,20h-2v-1h2V20z M12.4,20h-2v-1h2V20z M8.4,20h-2v-1h2V20z M4.4,20h-2v-1h2V20z M22.7,19.8
		L22,19v-1.6h1V19C23,19.3,22.9,19.6,22.7,19.8z M2,19H1v-2h1V19z M23,15.4h-1v-2h1V15.4z M2,15H1v-2h1V15z M23,11.4h-1v-2h1V11.4z
		 M2,11H1V9h1V11z M23,7.4h-1v-2h1V7.4z M2,7H1V5h1V7z M21.2,5h-2V4h2V5z M17.2,5h-2V4h2V5z M13.2,5h-2V4h2V5z M9.2,5h-2V4h2V5z
		 M5.2,5h-2V4h2V5z"/>
<path d="M16.6,7h-6.1c-1.2,0-2.4,0.7-3,1.7c-0.6,1.1-0.6,2.4,0,3.5s1.8,1.7,3,1.7h1.8v2.6c0,0.1,0.1,0.3,0.2,0.4
	c0.1,0.1,0.3,0.1,0.4,0c0.1-0.1,0.2-0.2,0.2-0.4V7.8h0.8v8.8c0,0.1,0.1,0.3,0.2,0.4c0.1,0.1,0.3,0.1,0.4,0s0.2-0.2,0.2-0.4V7.8h1.8
	c0.1,0,0.3-0.1,0.4-0.2c0.1-0.1,0.1-0.3,0-0.4C16.9,7.1,16.7,7,16.6,7L16.6,7z"/>
</g>
</svg>
