<svg width="24" height="24" viewBox="0 0 24 24" fill="none" xmlns="http://www.w3.org/2000/svg">
<path d="M16.5833 7.0001H10.4721C9.23158 7.0001 8.08544 7.66193 7.4652 8.73624C6.84493 9.81055 6.84493 11.1341 7.4652 12.2084C8.08546 13.2827 9.23165 13.9445 10.4721 13.9445H12.2777V16.5833C12.2777 16.7322 12.3571 16.8698 12.4861 16.9442C12.615 17.0186 12.7738 17.0186 12.9027 16.9442C13.0316 16.8698 13.1111 16.7322 13.1111 16.5833V7.83333H13.9444V16.5833C13.9444 16.7322 14.0238 16.8698 14.1527 16.9442C14.2816 17.0186 14.4405 17.0186 14.5694 16.9442C14.6983 16.8698 14.7777 16.7322 14.7777 16.5833V7.83333H16.5832C16.7322 7.83333 16.8697 7.75391 16.9441 7.625C17.0185 7.49609 17.0185 7.33724 16.9441 7.20833C16.8697 7.07943 16.7321 7 16.5832 7L16.5833 7.0001Z" fill="black"/>
</svg>
