<svg width="24" height="24" viewBox="0 0 24 24" fill="none" xmlns="http://www.w3.org/2000/svg">
<path d="M22.0833 1.00021H8.63863C5.90947 1.00021 3.38796 2.45624 2.02343 4.81973C0.658856 7.18321 0.658856 10.095 2.02343 12.4584C3.38801 14.8219 5.90963 16.278 8.63863 16.278H12.611V22.0833C12.611 22.4109 12.7857 22.7135 13.0693 22.8772C13.3529 23.0409 13.7024 23.0409 13.986 22.8772C14.2696 22.7135 14.4443 22.4109 14.4443 22.0833V2.83333H16.2777V22.0833C16.2777 22.4109 16.4524 22.7135 16.736 22.8772C17.0196 23.0409 17.3691 23.0409 17.6527 22.8772C17.9363 22.7135 18.111 22.4109 18.111 22.0833V2.83333H22.0831C22.4107 2.83333 22.7133 2.6586 22.877 2.375C23.0407 2.0914 23.0407 1.74192 22.877 1.45833C22.7133 1.17474 22.4107 1 22.0831 1L22.0833 1.00021Z" fill="black"/>
</svg>
