<svg width="24" height="24" viewBox="0 0 24 24" fill="none" xmlns="http://www.w3.org/2000/svg">
<path d="M20.2499 3.00017H9.24979C7.01684 3.00017 4.95378 4.19147 3.83735 6.12523C2.72088 8.05899 2.72088 10.4414 3.83735 12.3751C4.95383 14.3088 7.01697 15.5001 9.24979 15.5001H12.4999V20.25C12.4999 20.518 12.6429 20.7656 12.8749 20.8996C13.1069 21.0335 13.3929 21.0335 13.6249 20.8996C13.8569 20.7656 13.9999 20.518 13.9999 20.25V4.5H15.4999V20.25C15.4999 20.518 15.6429 20.7656 15.8749 20.8996C16.1069 21.0335 16.3929 21.0335 16.6249 20.8996C16.8569 20.7656 16.9999 20.518 16.9999 20.25V4.5H20.2498C20.5179 4.5 20.7655 4.35703 20.8994 4.125C21.0333 3.89297 21.0333 3.60703 20.8994 3.375C20.7655 3.14297 20.5179 3 20.2498 3L20.2499 3.00017Z" fill="black"/>
</svg>
