<svg width="24" height="24" viewBox="0 0 24 24" fill="none" xmlns="http://www.w3.org/2000/svg">
<path d="M17.4166 4.00013H8.86094C7.12421 4.00013 5.51961 4.9267 4.65128 6.43073C3.78291 7.93477 3.78291 9.78774 4.65128 11.2917C5.51964 12.7958 7.12431 13.7223 8.86094 13.7223H11.3888V17.4167C11.3888 17.6251 11.5 17.8177 11.6805 17.9219C11.8609 18.026 12.0833 18.026 12.2638 17.9219C12.4443 17.8177 12.5555 17.6251 12.5555 17.4167V5.16667H13.7221V17.4167C13.7221 17.6251 13.8333 17.8177 14.0138 17.9219C14.1943 18.026 14.4167 18.026 14.5971 17.9219C14.7776 17.8177 14.8888 17.6251 14.8888 17.4167V5.16667H17.4165C17.625 5.16667 17.8176 5.05547 17.9217 4.875C18.0259 4.69453 18.0259 4.47213 17.9217 4.29167C17.8176 4.1112 17.625 4 17.4165 4L17.4166 4.00013Z" fill="black"/>
</svg>
