<svg width="24" height="24" viewBox="0 0 24 24" fill="none" xmlns="http://www.w3.org/2000/svg">
<path d="M15.2728 6.22734L21.3443 11.4315V11.4317C21.6163 11.6649 21.7728 12.0051 21.7728 12.3634C21.7728 12.7217 21.6163 13.0621 21.3443 13.2951L15.2728 18.4995H2.22733V6.22713H15.2728M15.2728 5H2.22733C1.9017 5 1.58963 5.12922 1.35953 5.35953C1.12943 5.58963 1 5.90172 1 6.22712V18.4995C1 18.8249 1.12943 19.137 1.35953 19.3671C1.58963 19.5974 1.90172 19.7266 2.22733 19.7266H15.2728C15.5658 19.7266 15.8489 19.6218 16.0714 19.4312L22.1429 14.227C22.6869 13.7606 23 13.08 23 12.3634C23 11.647 22.6869 10.9662 22.1429 10.5L16.0714 5.29561C15.8489 5.10496 15.5658 5.00018 15.2728 5.00018V5Z" fill="black"/>
<path d="M13.625 8.00009H8.12489C7.00842 8.00009 5.97689 8.59574 5.41868 9.56262C4.86044 10.5295 4.86044 11.7207 5.41868 12.6875C5.97691 13.6544 7.00849 14.2501 8.12489 14.2501H9.74995V16.625C9.74995 16.759 9.82143 16.8828 9.93745 16.9498C10.0535 17.0167 10.1964 17.0167 10.3125 16.9498C10.4285 16.8828 10.5 16.759 10.5 16.625V8.75H11.25V16.625C11.25 16.759 11.3214 16.8828 11.4375 16.9498C11.5535 17.0167 11.6964 17.0167 11.8125 16.9498C11.9285 16.8828 12 16.759 12 16.625V8.75H13.6249C13.7589 8.75 13.8827 8.67852 13.9497 8.5625C14.0167 8.44648 14.0167 8.30351 13.9497 8.1875C13.8827 8.07149 13.7589 8 13.6249 8L13.625 8.00009Z" fill="black"/>
</svg>
