<svg width="86" height="11" viewBox="0 0 86 11" fill="none" xmlns="http://www.w3.org/2000/svg">
<path d="M0.117188 8V0.841797H2.28027L3.5791 5.72461L4.86328 0.841797H7.03125V8H5.68848V2.36523L4.26758 8H2.87598L1.45996 2.36523V8H0.117188ZM7.80762 2.81445H9.26758L10.5078 6.49609L11.7188 2.81445H13.1396L11.3086 7.80469L10.9814 8.70801C10.861 9.01074 10.7454 9.24186 10.6348 9.40137C10.5273 9.56087 10.402 9.68945 10.2588 9.78711C10.1188 9.88802 9.94466 9.96615 9.73633 10.0215C9.53125 10.0768 9.2985 10.1045 9.03809 10.1045C8.77441 10.1045 8.51562 10.0768 8.26172 10.0215L8.13965 8.94727C8.35449 8.98958 8.54818 9.01074 8.7207 9.01074C9.03971 9.01074 9.27572 8.91634 9.42871 8.72754C9.58171 8.54199 9.69889 8.30436 9.78027 8.01465L7.80762 2.81445ZM13.667 5.6709L15.0732 5.53418C15.1579 6.00618 15.3288 6.35286 15.5859 6.57422C15.8464 6.79557 16.1963 6.90625 16.6357 6.90625C17.1012 6.90625 17.4512 6.80859 17.6855 6.61328C17.9232 6.41471 18.042 6.18359 18.042 5.91992C18.042 5.75065 17.9915 5.60742 17.8906 5.49023C17.793 5.36979 17.6204 5.26562 17.373 5.17773C17.2038 5.11914 16.818 5.01497 16.2158 4.86523C15.4411 4.67318 14.8975 4.43717 14.585 4.15723C14.1455 3.76335 13.9258 3.2832 13.9258 2.7168C13.9258 2.35221 14.0283 2.01204 14.2334 1.69629C14.4417 1.37728 14.7396 1.13477 15.127 0.96875C15.5176 0.802734 15.988 0.719727 16.5381 0.719727C17.4365 0.719727 18.112 0.916667 18.5645 1.31055C19.0202 1.70443 19.2594 2.23014 19.2822 2.8877L17.8369 2.95117C17.7751 2.58333 17.6416 2.31966 17.4365 2.16016C17.2347 1.9974 16.9303 1.91602 16.5234 1.91602C16.1035 1.91602 15.7747 2.00228 15.5371 2.1748C15.3841 2.28548 15.3076 2.43359 15.3076 2.61914C15.3076 2.78841 15.3792 2.93327 15.5225 3.05371C15.7048 3.20671 16.1475 3.36621 16.8506 3.53223C17.5537 3.69824 18.0729 3.87077 18.4082 4.0498C18.7467 4.22559 19.0104 4.4681 19.1992 4.77734C19.3913 5.08333 19.4873 5.46257 19.4873 5.91504C19.4873 6.3252 19.3734 6.70931 19.1455 7.06738C18.9176 7.42546 18.5954 7.69238 18.1787 7.86816C17.762 8.04069 17.2428 8.12695 16.6211 8.12695C15.7161 8.12695 15.0212 7.91862 14.5361 7.50195C14.0511 7.08203 13.7614 6.47168 13.667 5.6709ZM20.376 5.33398C20.376 4.87826 20.4883 4.43717 20.7129 4.01074C20.9375 3.58431 21.2549 3.25879 21.665 3.03418C22.0785 2.80957 22.5391 2.69727 23.0469 2.69727C23.8314 2.69727 24.4743 2.9528 24.9756 3.46387C25.4769 3.97168 25.7275 4.61458 25.7275 5.39258C25.7275 6.17708 25.4736 6.82812 24.9658 7.3457C24.4613 7.86003 23.8249 8.11719 23.0566 8.11719C22.5814 8.11719 22.1273 8.00977 21.6943 7.79492C21.2646 7.58008 20.9375 7.26595 20.7129 6.85254C20.4883 6.43587 20.376 5.92969 20.376 5.33398ZM21.7822 5.40723C21.7822 5.92155 21.9043 6.31543 22.1484 6.58887C22.3926 6.8623 22.6937 6.99902 23.0518 6.99902C23.4098 6.99902 23.7093 6.8623 23.9502 6.58887C24.1943 6.31543 24.3164 5.91829 24.3164 5.39746C24.3164 4.88965 24.1943 4.49902 23.9502 4.22559C23.7093 3.95215 23.4098 3.81543 23.0518 3.81543C22.6937 3.81543 22.3926 3.95215 22.1484 4.22559C21.9043 4.49902 21.7822 4.8929 21.7822 5.40723ZM30.2197 8V7.22363C30.0309 7.50033 29.7819 7.71842 29.4727 7.87793C29.1667 8.03743 28.8428 8.11719 28.501 8.11719C28.1527 8.11719 27.8402 8.04069 27.5635 7.8877C27.2868 7.7347 27.0866 7.51986 26.9629 7.24316C26.8392 6.96647 26.7773 6.58398 26.7773 6.0957V2.81445H28.1494V5.19727C28.1494 5.92643 28.1738 6.37402 28.2227 6.54004C28.2747 6.7028 28.3675 6.83301 28.501 6.93066C28.6344 7.02507 28.8037 7.07227 29.0088 7.07227C29.2432 7.07227 29.4531 7.00879 29.6387 6.88184C29.8242 6.75163 29.9512 6.59212 30.0195 6.40332C30.0879 6.21126 30.1221 5.74414 30.1221 5.00195V2.81445H31.4941V8H30.2197ZM35.2979 2.81445V3.9082H34.3604V5.99805C34.3604 6.42122 34.3685 6.66862 34.3848 6.74023C34.4043 6.80859 34.445 6.86556 34.5068 6.91113C34.5719 6.95671 34.6501 6.97949 34.7412 6.97949C34.8682 6.97949 35.0521 6.93555 35.293 6.84766L35.4102 7.91211C35.0911 8.04883 34.7298 8.11719 34.3262 8.11719C34.0788 8.11719 33.8558 8.0765 33.6572 7.99512C33.4587 7.91048 33.3122 7.80306 33.2178 7.67285C33.1266 7.53939 33.0632 7.36035 33.0273 7.13574C32.998 6.97624 32.9834 6.65397 32.9834 6.16895V3.9082H32.3535V2.81445H32.9834V1.78418L34.3604 0.983398V2.81445H35.2979ZM37.6172 0.841797V3.47363C38.0599 2.95605 38.5889 2.69727 39.2041 2.69727C39.5199 2.69727 39.8047 2.75586 40.0586 2.87305C40.3125 2.99023 40.5029 3.13997 40.6299 3.32227C40.7601 3.50456 40.848 3.70638 40.8936 3.92773C40.9424 4.14909 40.9668 4.49251 40.9668 4.95801V8H39.5947V5.26074C39.5947 4.71712 39.5687 4.37207 39.5166 4.22559C39.4645 4.0791 39.3717 3.96354 39.2383 3.87891C39.1081 3.79102 38.9437 3.74707 38.7451 3.74707C38.5173 3.74707 38.3138 3.80241 38.1348 3.91309C37.9557 4.02376 37.8239 4.19141 37.7393 4.41602C37.6579 4.63737 37.6172 4.96615 37.6172 5.40234V8H36.2451V0.841797H37.6172ZM45.3662 6.34961L46.7334 6.5791C46.5576 7.0804 46.2793 7.46289 45.8984 7.72656C45.5208 7.98698 45.0472 8.11719 44.4775 8.11719C43.5758 8.11719 42.9085 7.82259 42.4756 7.2334C42.1338 6.76139 41.9629 6.16569 41.9629 5.44629C41.9629 4.58691 42.1875 3.91471 42.6367 3.42969C43.0859 2.94141 43.654 2.69727 44.3408 2.69727C45.1123 2.69727 45.721 2.9528 46.167 3.46387C46.613 3.97168 46.8262 4.7513 46.8066 5.80273H43.3691C43.3789 6.20964 43.4896 6.52702 43.7012 6.75488C43.9128 6.97949 44.1764 7.0918 44.4922 7.0918C44.707 7.0918 44.8877 7.0332 45.0342 6.91602C45.1807 6.79883 45.2913 6.61003 45.3662 6.34961ZM45.4443 4.96289C45.4346 4.56576 45.332 4.26465 45.1367 4.05957C44.9414 3.85124 44.7038 3.74707 44.4238 3.74707C44.1243 3.74707 43.877 3.85612 43.6816 4.07422C43.4863 4.29232 43.3903 4.58854 43.3936 4.96289H45.4443ZM49.2432 8H47.8711V2.81445H49.1455V3.55176C49.3636 3.20345 49.5589 2.97396 49.7314 2.86328C49.9072 2.7526 50.1058 2.69727 50.3271 2.69727C50.6396 2.69727 50.9408 2.78353 51.2305 2.95605L50.8057 4.15234C50.5745 4.0026 50.3597 3.92773 50.1611 3.92773C49.9691 3.92773 49.8063 3.98145 49.6729 4.08887C49.5394 4.19303 49.4336 4.38346 49.3555 4.66016C49.2806 4.93685 49.2432 5.51628 49.2432 6.39844V8ZM56.543 8H55.1709V5.35352C55.1709 4.79362 55.1416 4.43229 55.083 4.26953C55.0244 4.10352 54.9284 3.97493 54.7949 3.88379C54.6647 3.79264 54.5068 3.74707 54.3213 3.74707C54.0837 3.74707 53.8704 3.81217 53.6816 3.94238C53.4928 4.07259 53.3626 4.24512 53.291 4.45996C53.2227 4.6748 53.1885 5.07194 53.1885 5.65137V8H51.8164V2.81445H53.0908V3.57617C53.5433 2.99023 54.113 2.69727 54.7998 2.69727C55.1025 2.69727 55.3792 2.7526 55.6299 2.86328C55.8805 2.9707 56.0693 3.10905 56.1963 3.27832C56.3265 3.44759 56.416 3.63965 56.4648 3.85449C56.5169 4.06934 56.543 4.37695 56.543 4.77734V8ZM62.5293 5.36816L63.9307 5.8125C63.7158 6.59375 63.3577 7.1748 62.8564 7.55566C62.3584 7.93327 61.7253 8.12207 60.957 8.12207C60.0065 8.12207 59.2253 7.79818 58.6133 7.15039C58.0013 6.49935 57.6953 5.61068 57.6953 4.48438C57.6953 3.29297 58.0029 2.36849 58.6182 1.71094C59.2334 1.05013 60.0423 0.719727 61.0449 0.719727C61.9206 0.719727 62.6318 0.978516 63.1787 1.49609C63.5042 1.80208 63.7484 2.24154 63.9111 2.81445L62.4805 3.15625C62.3958 2.78516 62.2184 2.49219 61.9482 2.27734C61.6813 2.0625 61.3558 1.95508 60.9717 1.95508C60.4411 1.95508 60.0098 2.14551 59.6777 2.52637C59.349 2.90723 59.1846 3.52409 59.1846 4.37695C59.1846 5.2819 59.3473 5.92643 59.6729 6.31055C59.9984 6.69466 60.4215 6.88672 60.9424 6.88672C61.3265 6.88672 61.6569 6.76465 61.9336 6.52051C62.2103 6.27637 62.4089 5.89225 62.5293 5.36816ZM66.4795 8H65.1074V2.81445H66.3818V3.55176C66.5999 3.20345 66.7952 2.97396 66.9678 2.86328C67.1436 2.7526 67.3421 2.69727 67.5635 2.69727C67.876 2.69727 68.1771 2.78353 68.4668 2.95605L68.042 4.15234C67.8109 4.0026 67.596 3.92773 67.3975 3.92773C67.2054 3.92773 67.0426 3.98145 66.9092 4.08887C66.7757 4.19303 66.6699 4.38346 66.5918 4.66016C66.5169 4.93685 66.4795 5.51628 66.4795 6.39844V8ZM68.7451 5.33398C68.7451 4.87826 68.8574 4.43717 69.082 4.01074C69.3066 3.58431 69.624 3.25879 70.0342 3.03418C70.4476 2.80957 70.9082 2.69727 71.416 2.69727C72.2005 2.69727 72.8434 2.9528 73.3447 3.46387C73.846 3.97168 74.0967 4.61458 74.0967 5.39258C74.0967 6.17708 73.8428 6.82812 73.335 7.3457C72.8304 7.86003 72.194 8.11719 71.4258 8.11719C70.9505 8.11719 70.4964 8.00977 70.0635 7.79492C69.6338 7.58008 69.3066 7.26595 69.082 6.85254C68.8574 6.43587 68.7451 5.92969 68.7451 5.33398ZM70.1514 5.40723C70.1514 5.92155 70.2734 6.31543 70.5176 6.58887C70.7617 6.8623 71.0628 6.99902 71.4209 6.99902C71.779 6.99902 72.0785 6.8623 72.3193 6.58887C72.5635 6.31543 72.6855 5.91829 72.6855 5.39746C72.6855 4.88965 72.5635 4.49902 72.3193 4.22559C72.0785 3.95215 71.779 3.81543 71.4209 3.81543C71.0628 3.81543 70.7617 3.95215 70.5176 4.22559C70.2734 4.49902 70.1514 4.8929 70.1514 5.40723ZM74.6924 6.52051L76.0693 6.31055C76.1279 6.57747 76.2467 6.78092 76.4258 6.9209C76.6048 7.05762 76.8555 7.12598 77.1777 7.12598C77.5326 7.12598 77.7995 7.06087 77.9785 6.93066C78.099 6.83952 78.1592 6.71745 78.1592 6.56445C78.1592 6.46029 78.1266 6.37402 78.0615 6.30566C77.9932 6.24056 77.8402 6.18034 77.6025 6.125C76.4958 5.88086 75.7943 5.65788 75.498 5.45605C75.0879 5.17611 74.8828 4.78711 74.8828 4.28906C74.8828 3.83984 75.0602 3.46224 75.415 3.15625C75.7699 2.85026 76.32 2.69727 77.0654 2.69727C77.7751 2.69727 78.3024 2.81283 78.6475 3.04395C78.9925 3.27507 79.2301 3.61686 79.3604 4.06934L78.0664 4.30859C78.0111 4.10677 77.9053 3.95215 77.749 3.84473C77.596 3.7373 77.3763 3.68359 77.0898 3.68359C76.7285 3.68359 76.4697 3.73405 76.3135 3.83496C76.2093 3.90658 76.1572 3.99935 76.1572 4.11328C76.1572 4.21094 76.2028 4.29395 76.2939 4.3623C76.4176 4.45345 76.8441 4.58203 77.5732 4.74805C78.3057 4.91406 78.8167 5.11751 79.1064 5.3584C79.3929 5.60254 79.5361 5.94271 79.5361 6.37891C79.5361 6.85417 79.3376 7.2627 78.9404 7.60449C78.5433 7.94629 77.9557 8.11719 77.1777 8.11719C76.4714 8.11719 75.9115 7.97396 75.498 7.6875C75.0879 7.40104 74.8193 7.01204 74.6924 6.52051ZM80.2588 6.52051L81.6357 6.31055C81.6943 6.57747 81.8132 6.78092 81.9922 6.9209C82.1712 7.05762 82.4219 7.12598 82.7441 7.12598C83.099 7.12598 83.3659 7.06087 83.5449 6.93066C83.6654 6.83952 83.7256 6.71745 83.7256 6.56445C83.7256 6.46029 83.693 6.37402 83.6279 6.30566C83.5596 6.24056 83.4066 6.18034 83.1689 6.125C82.0622 5.88086 81.3607 5.65788 81.0645 5.45605C80.6543 5.17611 80.4492 4.78711 80.4492 4.28906C80.4492 3.83984 80.6266 3.46224 80.9814 3.15625C81.3363 2.85026 81.8864 2.69727 82.6318 2.69727C83.3415 2.69727 83.8688 2.81283 84.2139 3.04395C84.5589 3.27507 84.7965 3.61686 84.9268 4.06934L83.6328 4.30859C83.5775 4.10677 83.4717 3.95215 83.3154 3.84473C83.1624 3.7373 82.9427 3.68359 82.6562 3.68359C82.2949 3.68359 82.0361 3.73405 81.8799 3.83496C81.7757 3.90658 81.7236 3.99935 81.7236 4.11328C81.7236 4.21094 81.7692 4.29395 81.8604 4.3623C81.984 4.45345 82.4105 4.58203 83.1396 4.74805C83.8721 4.91406 84.3831 5.11751 84.6729 5.3584C84.9593 5.60254 85.1025 5.94271 85.1025 6.37891C85.1025 6.85417 84.904 7.2627 84.5068 7.60449C84.1097 7.94629 83.5221 8.11719 82.7441 8.11719C82.0378 8.11719 81.4779 7.97396 81.0645 7.6875C80.6543 7.40104 80.3857 7.01204 80.2588 6.52051Z" fill="white"/>
</svg>
