<svg width="36" height="35" viewBox="0 0 36 35" fill="none" xmlns="http://www.w3.org/2000/svg">
<path id="Star 1" d="M17.1033 1.06723C17.4701 0.323984 18.5299 0.323984 18.8967 1.06723L23.6452 10.6886C23.7908 10.9838 24.0724 11.1883 24.3981 11.2357L35.016 12.7785C35.8362 12.8977 36.1637 13.9057 35.5702 14.4842L27.887 21.9734C27.6513 22.2032 27.5438 22.5342 27.5994 22.8586L29.4132 33.4335C29.5533 34.2504 28.6959 34.8734 27.9622 34.4877L18.4653 29.4949C18.174 29.3417 17.826 29.3417 17.5347 29.4949L8.03777 34.4877C7.30414 34.8734 6.44671 34.2504 6.58682 33.4335L8.40056 22.8586C8.4562 22.5342 8.34865 22.2032 8.11297 21.9734L0.42982 14.4842C-0.163697 13.9057 0.163813 12.8977 0.984033 12.7785L11.6019 11.2357C11.9276 11.1883 12.2092 10.9838 12.3548 10.6886L17.1033 1.06723Z" fill="#FFBF2C"/>
</svg>
