<svg width="36" height="35" viewBox="0 0 36 35" fill="none" xmlns="http://www.w3.org/2000/svg">
<path id="Star 5" d="M22.2998 11.3528C22.6412 12.0445 23.2816 12.5373 24.0312 12.6936L24.1826 12.72L33.7979 14.1165L26.8398 20.8997C26.2876 21.4381 26.0166 22.199 26.0996 22.9602L26.1211 23.1125L27.7627 32.6887L19.1631 28.1672L19.0254 28.0999C18.3735 27.8066 17.6265 27.8066 16.9746 28.0999L16.8369 28.1672L8.23633 32.6887L9.87891 23.1125C10.0093 22.3523 9.78112 21.5771 9.2666 21.01L9.16016 20.8997L2.20117 14.1165L11.8174 12.72C12.5807 12.6091 13.2475 12.153 13.6279 11.4885L13.7002 11.3528L18 2.63892L22.2998 11.3528Z" stroke="#FFBF2C" stroke-width="3"/>
</svg>
