<svg width="24" height="24" viewBox="0 0 24 24" fill="none" xmlns="http://www.w3.org/2000/svg">
<path fill-rule="evenodd" clip-rule="evenodd" d="M22.5002 5C22.5656 5 22.631 5.01308 22.6915 5.03802C22.752 5.06313 22.8075 5.1001 22.8537 5.14649C22.8999 5.1927 22.937 5.24815 22.962 5.30867C22.9871 5.36918 23 5.43457 23 5.49997V19.0564C23 19.1218 22.9869 19.1872 22.962 19.2477C22.9369 19.3082 22.8999 19.3636 22.8537 19.4099C22.8073 19.4562 22.752 19.4932 22.6915 19.5183C22.631 19.5434 22.5656 19.5563 22.5002 19.5563H1.49997C1.43458 19.5563 1.36918 19.5433 1.30867 19.5183C1.24815 19.4932 1.1927 19.4562 1.14649 19.4099C1.10027 19.3636 1.06313 19.3082 1.03819 19.2477C1.0129 19.1872 1 19.1218 1 19.0564V5.49997C1 5.43458 1.01308 5.36918 1.03802 5.30867C1.06313 5.24815 1.1001 5.1927 1.14631 5.14649C1.1927 5.10027 1.24798 5.06313 1.30849 5.03802C1.36901 5.0129 1.4344 5 1.4998 5H22.5002ZM22.0002 5.99992H2.00002V17.4925L3.72701 14.9938C3.72823 14.9914 3.72945 14.9903 3.73084 14.9882L6.41413 11.2127C6.46017 11.148 6.5219 11.0945 6.59236 11.0581C6.66298 11.0216 6.74233 11.0024 6.82168 11.0024C6.90102 11.0024 6.98037 11.0218 7.05099 11.0582C7.12162 11.0947 7.18318 11.1482 7.22922 11.2129L9.9101 14.9886L10.9788 16.4953L12.6191 14.1854L15.7919 9.71906C15.8379 9.65437 15.8996 9.60083 15.9701 9.56438C16.0407 9.52794 16.1201 9.50875 16.1996 9.50875C16.2791 9.50875 16.3584 9.52811 16.4289 9.56456C16.4995 9.60101 16.5611 9.65454 16.6071 9.71942L19.7775 14.1855C19.7793 14.188 19.7808 14.1902 19.7826 14.1929L21.9999 17.4368L22.0002 5.99992ZM16.1993 10.8723L13.4342 14.7643L11.386 17.6487C11.3399 17.7134 11.2782 17.7671 11.2076 17.8035C11.1369 17.84 11.0576 17.8593 10.9781 17.8592C10.8986 17.8592 10.8192 17.84 10.7486 17.8033C10.678 17.7669 10.6162 17.7132 10.5704 17.6485L9.09436 15.5674L6.82121 12.3658L4.54927 15.5624L2.48016 18.5551H21.554L18.959 14.7587L16.1991 10.8709L16.1993 10.8723Z" fill="black"/>
<path fill-rule="evenodd" clip-rule="evenodd" d="M4.65835 7.05835C5.70939 7.05835 6.58917 7.89541 6.58917 8.93649C6.58917 9.97758 5.70939 10.8146 4.65835 10.8146C3.60905 10.8146 2.72998 9.97758 2.72998 8.93649C2.72998 7.89541 3.60892 7.05835 4.65835 7.05835ZM4.65835 8.05827C4.13133 8.05827 3.73008 8.4564 3.73008 8.93649C3.73008 9.41659 4.13135 9.81472 4.65835 9.81472C5.18867 9.81472 5.58907 9.41659 5.58907 8.93649C5.58907 8.4564 5.18868 8.05827 4.65835 8.05827Z" fill="black"/>
</svg>
