<svg width="24" height="24" viewBox="0 0 24 24" fill="none" xmlns="http://www.w3.org/2000/svg">
<path d="M6.43469 13.0899C6.43469 13.4566 6.54802 13.7466 6.77469 13.9599C7.00802 14.1666 7.37802 14.2699 7.88469 14.2699C8.38469 14.2699 8.75135 14.1632 8.98469 13.9499C9.22469 13.7299 9.34469 13.4366 9.34469 13.0699C9.34469 12.9032 9.31802 12.7532 9.26469 12.6199C9.21802 12.4799 9.13802 12.3599 9.02469 12.2599C8.91135 12.1599 8.76135 12.0832 8.57469 12.0299C8.38802 11.9699 8.15802 11.9399 7.88469 11.9399C7.59802 11.9399 7.36135 11.9732 7.17469 12.0399C6.98802 12.0999 6.83802 12.1832 6.72469 12.2899C6.61802 12.3899 6.54135 12.5099 6.49469 12.6499C6.45469 12.7899 6.43469 12.9366 6.43469 13.0899ZM6.56469 9.9099C6.56469 10.2899 6.66802 10.5699 6.87469 10.7499C7.08802 10.9232 7.42469 11.0099 7.88469 11.0099C8.34469 11.0099 8.67469 10.9166 8.87469 10.7299C9.07469 10.5432 9.17469 10.2632 9.17469 9.8899C9.17469 9.74324 9.15135 9.60324 9.10469 9.4699C9.06469 9.33657 8.99135 9.2199 8.88469 9.1199C8.78469 9.0199 8.65135 8.9399 8.48469 8.8799C8.32469 8.8199 8.12469 8.7899 7.88469 8.7899C7.64469 8.7899 7.43802 8.82324 7.26469 8.8899C7.09802 8.9499 6.96135 9.03324 6.85469 9.1399C6.75469 9.2399 6.68135 9.35657 6.63469 9.4899C6.58802 9.62324 6.56469 9.76324 6.56469 9.9099ZM6.44469 11.4499C6.15135 11.3166 5.91802 11.1166 5.74469 10.8499C5.57135 10.5766 5.48469 10.2399 5.48469 9.8399C5.48469 9.57324 5.53135 9.32324 5.62469 9.0899C5.71802 8.8499 5.86135 8.64324 6.05469 8.4699C6.25469 8.29657 6.50469 8.1599 6.80469 8.0599C7.10469 7.95324 7.46135 7.8999 7.87469 7.8999C8.30135 7.8999 8.66469 7.95324 8.96469 8.0599C9.27135 8.1599 9.52135 8.2999 9.71469 8.4799C9.90802 8.65324 10.048 8.8599 10.1347 9.0999C10.2214 9.33324 10.2647 9.58324 10.2647 9.8499C10.2647 10.2499 10.178 10.5799 10.0047 10.8399C9.83135 11.0999 9.59802 11.2966 9.30469 11.4299C9.45135 11.4966 9.59469 11.5799 9.73469 11.6799C9.87469 11.7799 9.99802 11.8999 10.1047 12.0399C10.218 12.1732 10.3047 12.3266 10.3647 12.4999C10.4314 12.6732 10.4647 12.8699 10.4647 13.0899C10.4647 13.7232 10.248 14.2299 9.81469 14.6099C9.38802 14.9899 8.74135 15.1799 7.87469 15.1799C7.00135 15.1799 6.35469 14.9899 5.93469 14.6099C5.51469 14.2299 5.30469 13.7232 5.30469 13.0899C5.30469 12.8766 5.33802 12.6832 5.40469 12.5099C5.47135 12.3366 5.55802 12.1832 5.66469 12.0499C5.77135 11.9099 5.89135 11.7899 6.02469 11.6899C6.16469 11.5899 6.30469 11.5099 6.44469 11.4499Z" fill="black"/>
<path d="M12.6027 9.7999V11.1899H11.3927V9.7999H12.6027ZM12.6027 13.6099V14.9999H11.3927V13.6099H12.6027Z" fill="black"/>
<path d="M15.9671 11.6499C16.1538 11.6499 16.3271 11.6232 16.4871 11.5699C16.6471 11.5166 16.7871 11.4332 16.9071 11.3199C17.0271 11.1999 17.1204 11.0532 17.1871 10.8799C17.2538 10.6999 17.2871 10.4899 17.2871 10.2499C17.2804 10.0566 17.2471 9.87324 17.1871 9.6999C17.1338 9.52657 17.0538 9.37657 16.9471 9.2499C16.8471 9.11657 16.7204 9.01324 16.5671 8.9399C16.4138 8.86657 16.2371 8.8299 16.0371 8.8299C15.6438 8.8299 15.3238 8.95324 15.0771 9.1999C14.8371 9.4399 14.7171 9.7899 14.7171 10.2499C14.7171 10.4432 14.7371 10.6266 14.7771 10.7999C14.8238 10.9666 14.8938 11.1132 14.9871 11.2399C15.0871 11.3666 15.2171 11.4666 15.3771 11.5399C15.5371 11.6132 15.7338 11.6499 15.9671 11.6499ZM14.8271 13.3699C14.8871 13.6699 14.9971 13.8899 15.1571 14.0299C15.3238 14.1632 15.5938 14.2299 15.9671 14.2299C16.4604 14.2299 16.8171 14.0366 17.0371 13.6499C17.2571 13.2632 17.3704 12.6432 17.3771 11.7899C16.9638 12.3099 16.4071 12.5699 15.7071 12.5699C14.9938 12.5699 14.4604 12.3632 14.1071 11.9499C13.7604 11.5299 13.5871 10.9699 13.5871 10.2699C13.5871 9.92324 13.6438 9.60657 13.7571 9.3199C13.8704 9.02657 14.0338 8.77657 14.2471 8.5699C14.4604 8.35657 14.7171 8.19324 15.0171 8.0799C15.3171 7.9599 15.6571 7.8999 16.0371 7.8999C16.5371 7.8999 16.9438 8.00324 17.2571 8.2099C17.5771 8.41657 17.8271 8.6799 18.0071 8.9999C18.1938 9.3199 18.3204 9.67324 18.3871 10.0599C18.4604 10.4466 18.4971 10.8199 18.4971 11.1799C18.4971 11.9066 18.4438 12.5232 18.3371 13.0299C18.2304 13.5366 18.0704 13.9499 17.8571 14.2699C17.6504 14.5899 17.3904 14.8232 17.0771 14.9699C16.7704 15.1099 16.4104 15.1799 15.9971 15.1799C15.2904 15.1799 14.7504 15.0366 14.3771 14.7499C14.0038 14.4566 13.7904 13.9966 13.7371 13.3699H14.8271Z" fill="black"/>
</svg>
