<svg width="24" height="24" viewBox="0 0 24 24" fill="none" xmlns="http://www.w3.org/2000/svg">
<path d="M18.8953 9.92H15.055L22.8282 2.15143L21.8532 1.17676L14.0761 8.95392V5.10099H12.7021V11.2984H18.8954L18.8953 9.92Z" fill="black"/>
<path d="M5.1295 14.0503H8.97833L1.20117 21.8275L2.17611 22.8024L9.9493 15.0292V18.8695H11.3232V12.6763H5.12996L5.1295 14.0503Z" fill="black"/>
<path d="M1 7.19336H2.37802V11.3236H1V7.19336Z" fill="black"/>
<path d="M2.37393 2.37413H5.81498V1H1V5.81934H2.37393V2.37413Z" fill="black"/>
<path d="M21.6505 21.6261H18.2095V23.0003H23.0245V18.1809H21.6505V21.6261Z" fill="black"/>
<path d="M7.19287 1H11.3231V2.37802H7.19287V1Z" fill="black"/>
<path d="M21.6509 12.6768H23.0289V16.807H21.6509V12.6768Z" fill="black"/>
<path d="M12.7021 21.6218H16.8324V22.9998H12.7021V21.6218Z" fill="black"/>
</svg>
