<svg width="32" height="32" viewBox="0 0 32 32" fill="none" xmlns="http://www.w3.org/2000/svg">
<path fill-rule="evenodd" clip-rule="evenodd" d="M16 25C20.9706 25 25 20.9706 25 16C25 11.0294 20.9706 7 16 7C11.0294 7 7 11.0294 7 16C7 20.9706 11.0294 25 16 25ZM16 28C22.6274 28 28 22.6274 28 16C28 9.37258 22.6274 4 16 4C9.37258 4 4 9.37258 4 16C4 22.6274 9.37258 28 16 28ZM19.4258 10.4546L21.5471 12.5759L18.1229 16.0001L21.5469 19.4241L19.4256 21.5454L16.0016 18.1214L12.5777 21.5453L10.4564 19.424L13.8803 16.0001L10.4562 12.576L12.5775 10.4547L16.0016 13.8788L19.4258 10.4546Z" fill="white"/>
</svg>
