<?xml version="1.0" encoding="utf-8"?>
<svg version="1.1" width="24" height="24" xmlns="http://www.w3.org/2000/svg" xmlns:xlink="http://www.w3.org/1999/xlink" x="0px" y="0px"
	 viewBox="0 0 24 24" style="enable-background:new 0 0 24 24;" xml:space="preserve">
<path d="M12,3C8.4,3,5.5,5.8,5.5,9.2c0,0.8,0.3,1.8,0.9,3.1c0.5,1.1,1.2,2.3,2,3.6c0.7,1,3,3.8,3.2,3.9l0.4,0.5l0.4-0.5
	c0.2-0.2,2.6-2.9,3.2-3.9c0.8-1.2,1.5-2.5,2-3.6c0.6-1.3,0.9-2.3,0.9-3.1C18.5,5.8,15.6,3,12,3z M16.3,11.7c-0.5,1-1.1,2.2-1.9,3.4
	c-0.5,0.7-1.7,2.2-2.4,3c-0.7-0.8-1.9-2.3-2.4-3c-0.8-1.2-1.4-2.3-1.9-3.3C7.1,10.4,7,9.6,7,9.3c0-2.6,2.2-4.7,5-4.7s5,2.1,5,4.7
	C17,9.5,16.9,10.3,16.3,11.7L16.3,11.7z M12,8c-0.8,0-1.5,0.7-1.5,1.5S11.2,11,12,11s1.5-0.7,1.5-1.5S12.8,8,12,8z"/>
</svg>
