<svg width="24" height="24" viewBox="0 0 24 24" fill="none" xmlns="http://www.w3.org/2000/svg">
<path d="M3.31613 21.8417V2.15801H1.5793C1.25966 2.15801 1.0003 1.89865 1.0003 1.57901C1.0003 1.25936 1.25966 1 1.5793 1H6.21077C6.53061 1 6.78978 1.25936 6.78978 1.57901C6.78978 1.89865 6.53061 2.15801 6.21077 2.15801H4.47394V11.4212H19.5263V2.15801H17.7896C17.4698 2.15801 17.2106 1.89865 17.2106 1.57901C17.2106 1.25936 17.4698 1 17.7896 1H22.4211C22.7407 1 23.0001 1.25936 23.0001 1.57901C23.0001 1.89865 22.7407 2.15801 22.4211 2.15801H20.6843V21.8422L22.4211 21.842C22.7407 21.842 23.0001 22.1013 23.0001 22.421C23.0001 22.7406 22.7407 23 22.4211 23H17.7896C17.4698 23 17.2106 22.7406 17.2106 22.421C17.2106 22.1013 17.4698 21.842 17.7896 21.842H19.5264V12.5788L4.47365 12.579V21.8422L6.21047 21.842C6.53031 21.842 6.78948 22.1013 6.78948 22.421C6.78948 22.7406 6.53031 23 6.21047 23H1.57901C1.25936 23 1 22.7406 1 22.421C1 22.1013 1.25936 21.842 1.57901 21.842L3.31613 21.8417Z" fill="#808080"/>
</svg>
