<?xml version="1.0" encoding="utf-8"?>
<!-- Generator: Adobe Illustrator 26.2.1, SVG Export Plug-In . SVG Version: 6.00 Build 0)  -->
<svg width="24" height="24" version="1.1" xmlns="http://www.w3.org/2000/svg" xmlns:xlink="http://www.w3.org/1999/xlink" x="0px" y="0px"
	 viewBox="0 0 24 24" style="enable-background:new 0 0 24 24;" xml:space="preserve">
<style type="text/css">
	.st0{fill:#1E1E1E;}
</style>
<path class="st0" d="M14.1,14.2c0.4,0.3,0.8,0.5,1.2,0.7c0.4,0.2,0.9,0.3,1.4,0.3s1-0.1,1.4-0.3c0.3-0.1,0.5-0.5,0.5-0.8
	c0-0.2,0-0.4-0.1-0.6s-0.3-0.3-0.5-0.4c-0.3-0.1-0.7-0.2-1-0.3c-0.5-0.1-1-0.1-1.5-0.1v-1.6c0.7,0.1,1.5-0.1,2.2-0.4
	c0.4-0.2,0.6-0.5,0.6-0.9c0-0.3-0.1-0.6-0.4-0.8c-0.3-0.2-0.7-0.3-1.1-0.3c-0.4,0-0.8,0.1-1.1,0.3c-0.4,0.2-0.7,0.4-1.1,0.6
	l-1.2-1.4c0.5-0.4,1.1-0.7,1.6-0.9C15.5,7.1,16.2,7,16.8,7c0.5,0,1,0.1,1.6,0.2c0.4,0.1,0.8,0.3,1.2,0.5c0.3,0.2,0.6,0.5,0.8,0.8
	c0.2,0.3,0.3,0.7,0.3,1.1c0,0.5-0.2,0.9-0.5,1.3c-0.4,0.4-0.9,0.7-1.5,0.9v0.1c0.6,0.1,1.2,0.4,1.6,0.8c0.4,0.4,0.7,0.9,0.7,1.5
	c0,0.4-0.1,0.8-0.3,1.2c-0.2,0.4-0.5,0.7-0.9,0.9c-0.4,0.3-0.9,0.4-1.3,0.5c-0.5,0.1-1,0.2-1.6,0.2c-0.8,0-1.6-0.1-2.3-0.4
	c-0.6-0.2-1.1-0.6-1.6-1L14.1,14.2z M9,11H5V7H3v10h2v-4h4v4h2V7H9V11z"/>
</svg>
