<?xml version="1.0" encoding="utf-8"?>
<!-- Generator: Adobe Illustrator 26.2.1, SVG Export Plug-In . SVG Version: 6.00 Build 0)  -->
<svg width="24" height="24" version="1.1" xmlns="http://www.w3.org/2000/svg" xmlns:xlink="http://www.w3.org/1999/xlink" x="0px" y="0px"
	 viewBox="0 0 24 24" style="enable-background:new 0 0 24 24;" xml:space="preserve">
<style type="text/css">
	.st0{fill:#1E1E1E;}
</style>
<path class="st0" d="M9,6.6h2v10H9v-4H5v4H3v-10h2v4h4V6.6z M17,14.6c0.5-0.4,0.6-0.6,1.1-1.1c0.4-0.4,0.8-0.8,1.2-1.3
	c0.3-0.4,0.6-0.8,0.9-1.3c0.2-0.4,0.3-0.8,0.3-1.3c0-0.4-0.1-0.9-0.3-1.3c-0.2-0.4-0.4-0.7-0.8-1c-0.3-0.3-0.7-0.5-1.2-0.6
	c-0.5-0.2-1-0.2-1.5-0.2c-0.4,0-0.7,0-1.1,0.1c-0.3,0.1-0.7,0.2-1,0.3C14.3,7,14,7.2,13.7,7.4c-0.3,0.2-0.6,0.4-0.8,0.7l1.2,1.2
	c0.3-0.3,0.6-0.5,1-0.7c0.4-0.2,0.7-0.3,1.2-0.3c0.5,0,0.9,0.1,1.3,0.4c0.3,0.3,0.5,0.7,0.5,1.1c0,0.4-0.1,0.8-0.4,1.1
	c-0.3,0.5-0.6,0.9-1,1.2c-0.4,0.4-1,0.9-1.6,1.4c-0.6,0.5-1.4,1.1-2.2,1.6v1.5h8v-2H17z"/>
</svg>
