<?xml version="1.0" encoding="utf-8"?>
<!-- Generator: Adobe Illustrator 26.2.1, SVG Export Plug-In . SVG Version: 6.00 Build 0)  -->
<svg width="24" height="24" version="1.1" xmlns="http://www.w3.org/2000/svg" xmlns:xlink="http://www.w3.org/1999/xlink" x="0px" y="0px"
	 viewBox="0 0 24 24" style="enable-background:new 0 0 24 24;" xml:space="preserve">
<style type="text/css">
	.st0{fill:#1E1E1E;}
</style>
<path class="st0" d="M14.1,13.7c0.4,0.3,0.7,0.5,1.1,0.7c0.4,0.2,0.9,0.3,1.3,0.3c0.5,0,1-0.1,1.4-0.4s0.6-0.7,0.6-1.1
	c0-0.4-0.2-0.9-0.6-1.1c-0.4-0.3-0.9-0.4-1.4-0.4H16c-0.1,0-0.3,0-0.4,0.1l-0.4,0.1l-0.5,0.2l-1-0.6l0.3-5h6.4v1.9h-4.3L16,10.3
	c0.2-0.1,0.5-0.1,0.7-0.2c0.2,0,0.5-0.1,0.7-0.1c0.5,0,0.9,0.1,1.4,0.2c0.4,0.1,0.8,0.3,1.1,0.6c0.3,0.2,0.6,0.6,0.8,0.9
	c0.2,0.4,0.3,0.9,0.3,1.4s-0.1,1-0.3,1.4c-0.2,0.4-0.5,0.8-0.9,1.1c-0.4,0.3-0.8,0.5-1.3,0.7c-0.5,0.2-1,0.3-1.5,0.3
	c-0.8,0-1.6-0.1-2.3-0.4c-0.6-0.2-1.1-0.6-1.6-1C13,15.1,14.1,13.7,14.1,13.7z M11,16.5H9v-4H5v4H3v-10h2v4h4v-4h2V16.5z"/>
</svg>
