<?xml version="1.0" encoding="utf-8"?>
<!-- Generator: Adobe Illustrator 26.2.1, SVG Export Plug-In . SVG Version: 6.00 Build 0)  -->
<svg width="24" height="24" version="1.1" xmlns="http://www.w3.org/2000/svg" xmlns:xlink="http://www.w3.org/1999/xlink" x="0px" y="0px"
	 viewBox="0 0 24 24" style="enable-background:new 0 0 24 24;" xml:space="preserve">
<style type="text/css">
	.st0{fill:#1E1E1E;}
</style>
<path class="st0" d="M11,17H9v-4H5v4H3V7h2v4h4V7h2V17z M19.6,9.5c-0.2-0.2-0.5-0.4-0.8-0.5c-0.6-0.2-1.3-0.2-1.9,0
	c-0.3,0.1-0.6,0.3-0.8,0.5l-0.6,0.9c-0.2,0.5-0.2,0.9-0.2,1.4c0.4-0.3,0.8-0.6,1.2-0.8s0.8-0.3,1.3-0.3c0.4,0,0.8,0,1.2,0.2
	c0.4,0.1,0.7,0.3,1,0.6s0.5,0.6,0.7,0.9c0.2,0.4,0.3,0.8,0.3,1.3s-0.1,0.9-0.3,1.4c-0.2,0.4-0.5,0.7-0.8,1c-0.4,0.3-0.8,0.5-1.2,0.6
	c-1,0.3-2,0.3-3,0c-0.5-0.2-1-0.5-1.4-0.9c-0.4-0.4-0.8-0.9-1-1.5C13.1,13.7,13,13,13,12.2s0.1-1.6,0.4-2.3c0.2-0.6,0.6-1.2,1-1.6
	c0.4-0.4,0.9-0.7,1.4-0.9C16.4,7.1,16.9,7,17.5,7c0.7,0,1.4,0.1,2,0.3c0.5,0.2,1,0.5,1.4,0.8C20.9,8.2,19.6,9.5,19.6,9.5z
	 M17.2,15.3c0.2,0,0.4,0,0.6-0.1c0.2,0,0.4-0.1,0.5-0.2c0.1-0.1,0.3-0.3,0.4-0.5c0.1-0.2,0.1-0.5,0.1-0.7c0-0.4-0.1-0.8-0.4-1.1
	c-0.3-0.2-0.7-0.3-1.1-0.3c-0.3,0-0.7,0.1-1,0.2c-0.4,0.2-0.7,0.4-1,0.7c0,0.3,0.1,0.7,0.3,1c0.1,0.2,0.3,0.4,0.4,0.6
	c0.2,0.1,0.3,0.3,0.5,0.3C16.7,15.3,17,15.4,17.2,15.3z"/>
</svg>
