<svg height="700pt" preserveAspectRatio="xMidYMid meet" viewBox="0 0 700 700" width="700pt" xmlns="http://www.w3.org/2000/svg"><path d="m1950 6210c4-14 29-81 55-150s51-136 55-150c10-31 33-94 300-825 12-33 32-89 45-125s48-132 78-215c31-82 92-251 137-375 44-124 90-250 101-280 34-92 249-682 268-735 29-81 148-408 206-565 108-294 215-588 260-715 25-71 49-137 52-145 4-8 7-17 8-20s5-12 8-20c9-22 228-623 231-635 2-5 6-17 9-25 4-8 22-58 41-110 18-52 55-153 81-225l47-130h564c310 0 564 3 564 6s-14 44-31 90-49 134-70 194c-76 209-117 321-179 490-34 94-66 181-70 195-5 14-31 86-58 160s-176 482-331 906c-154 425-287 789-295 810-8 22-65 179-126 349-61 171-115 319-120 330s-104 283-220 605-216 594-220 605c-5 11-19 47-30 80-12 33-25 69-30 80s-16 40-24 65-29 83-46 130c-50 132-110 302-121 338-6 17-13 33-17 33-4 1-259 2-568 3l-561 1z" transform="matrix(.1 0 0 -.1 0 700)"/></svg>