<?xml version="1.0" encoding="utf-8"?>
<svg version="1.1" xmlns="http://www.w3.org/2000/svg" xmlns:xlink="http://www.w3.org/1999/xlink" x="0px" y="0px"
	 viewBox="0 0 24 24" style="enable-background:new 0 0 24 24;" xml:space="preserve">
<path fill="black" d="M19,22h-3c-0.6,0-1-0.4-1-1s0.4-1,1-1h3c0.3,0,0.5-0.1,0.7-0.3S20,19.3,20,19v-3c0-0.6,0.4-1,1-1s1,0.4,1,1v3
	c0,0.8-0.3,1.6-0.9,2.1S19.8,22,19,22z M8,22H5c-0.8,0-1.6-0.3-2.1-0.9C2.3,20.6,2,19.8,2,19v-3c0-0.6,0.4-1,1-1s1,0.4,1,1v3
	c0,0.3,0.1,0.5,0.3,0.7C4.5,19.9,4.7,20,5,20h3c0.6,0,1,0.4,1,1S8.6,22,8,22z M21,9c-0.6,0-1-0.4-1-1V5c0-0.3-0.1-0.5-0.3-0.7
	C19.5,4.1,19.3,4,19,4h-3c-0.6,0-1-0.4-1-1s0.4-1,1-1h3c0.8,0,1.6,0.3,2.1,0.9C21.7,3.4,22,4.2,22,5v3C22,8.6,21.6,9,21,9z M3,9
	C2.4,9,2,8.6,2,8V5c0-0.8,0.3-1.6,0.9-2.1C3.4,2.3,4.2,2,5,2h3c0.6,0,1,0.4,1,1S8.6,4,8,4H5C4.7,4,4.5,4.1,4.3,4.3
	C4.1,4.5,4,4.7,4,5v3C4,8.6,3.6,9,3,9z"/>
</svg>
