<svg viewBox="0 0 200 200" fill="none" xmlns="http://www.w3.org/2000/svg">
<path d="M99.5 195C151.967 195 194.5 152.467 194.5 100C194.5 47.5329 151.967 5 99.5 5C47.0329 5 4.5 47.5329 4.5 100C4.5 152.467 47.0329 195 99.5 195Z" fill="white" class="svg-background"/>
<path d="M65 87.6001H74.5C76.6 87.6001 78.3 87.8001 79.6 88.3001C81 88.7001 82 89.4001 82.8 90.1001C83.6 90.9001 84.1 91.8001 84.4 92.8001C84.7 93.8001 84.9 94.9001 84.9 96.0001C84.9 97.2001 84.7 98.3001 84.4 99.4001C84.1 100.5 83.5 101.4 82.7 102.3C81.9 103.1 80.8 103.8 79.5 104.2C78.2 104.7 76.5 104.9 74.4 104.9H68.5V115.9H65V87.6001ZM74.4 101.8C75.8 101.8 76.9 101.7 77.8 101.4C78.7 101.1 79.4 100.8 79.9 100.3C80.4 99.8001 80.7 99.2001 80.9 98.5001C81.1 97.8001 81.2 97.0001 81.2 96.1001C81.2 95.2001 81.1 94.4001 80.9 93.7001C80.7 93.0001 80.3 92.4001 79.8 92.0001C79.3 91.6001 78.6 91.2001 77.7 91.0001C76.8 90.8001 75.7 90.6001 74.4 90.6001H68.6V101.7H74.4V101.8ZM89.4 87.6001H92.8V115.9H89.4V87.6001ZM110.9 113C110.2 113.9 109.2 114.7 108.1 115.3C107 115.9 105.6 116.3 103.9 116.3C102.9 116.3 101.9 116.2 101.1 115.9C100.3 115.7 99.5 115.3 98.9 114.8C98.3 114.3 97.8 113.6 97.5 112.9C97.2 112.1 97 111.2 97 110.2C97 108.8 97.3 107.7 97.9 106.8C98.5 105.9 99.3 105.2 100.3 104.7C101.3 104.2 102.4 103.8 103.7 103.6C104.9 103.4 106.2 103.3 107.5 103.2L111 103.1V102.3C111 100.6 110.6 99.3001 109.9 98.5001C109.2 97.7001 108 97.4001 106.3 97.4001C104.7 97.4001 103.5 97.7001 102.7 98.2001C101.9 98.7001 101.4 99.5001 101.2 100.4L98.1 100C98.5 98.1001 99.4 96.8001 100.8 95.9001C102.2 95.0001 104.1 94.6001 106.5 94.6001C108 94.6001 109.2 94.8001 110.2 95.2001C111.2 95.5001 112.1 96.0001 112.7 96.7001C113.3 97.4001 113.8 98.2001 114 99.2001C114.3 100.2 114.4 101.3 114.4 102.5V115.8H111.1V113H110.9ZM110.8 105.6L107.5 105.7C106.1 105.8 104.9 105.9 104 106.1C103.1 106.3 102.3 106.6 101.8 107C101.3 107.3 100.9 107.8 100.7 108.3C100.5 108.8 100.4 109.4 100.4 110.1C100.4 111.1 100.7 112 101.3 112.6C101.9 113.2 103 113.5 104.4 113.5C106.4 113.5 108 113 109.2 112C110.3 111 110.9 109.6 110.9 107.9V105.6H110.8ZM119 120.2C119.7 120.5 120.5 120.6 121.2 120.6C122 120.6 122.7 120.4 123.1 119.9C123.6 119.5 124 118.7 124.5 117.5L125.3 115.3L116.6 95.3001H120.6L127.1 111.4L133 95.3001H136.8L127.9 117.7C127.5 118.6 127.2 119.4 126.8 120.1C126.4 120.8 126 121.4 125.6 121.9C125.2 122.4 124.6 122.8 124 123C123.4 123.3 122.6 123.4 121.7 123.4C121.1 123.4 120.5 123.4 120 123.3C119.5 123.2 118.9 123.1 118.3 122.9L119 120.2Z" fill="black" class="svg-foreground"/>
</svg>
