<?xml version="1.0" encoding="utf-8"?>
<svg version="1.1" xmlns="http://www.w3.org/2000/svg" xmlns:xlink="http://www.w3.org/1999/xlink" x="0px" y="0px"
	 viewBox="0 0 24 24" style="enable-background:new 0 0 24 24;" xml:space="preserve">
<path fill="black" d="M11,20c-0.2,0-0.4-0.1-0.6-0.2L5.6,16H2c-0.6,0-1-0.4-1-1V9c0-0.6,0.4-1,1-1h3.6l4.7-3.8
	c0.3-0.2,0.7-0.3,1.1-0.1C11.8,4.3,12,4.6,12,5v14c0,0.4-0.2,0.7-0.6,0.9C11.3,20,11.1,20,11,20z M3,14h3c0.2,0,0.4,0.1,0.6,0.2
	l3.4,2.7V7.1L6.6,9.8C6.4,9.9,6.2,10,6,10H3V14z"/>
<path fill="black" d="M15.5,16.5c-0.3,0-0.5-0.1-0.7-0.3c-0.4-0.4-0.4-1,0-1.4C15.6,14.1,16,13,16,12c0-1.1-0.4-2.1-1.2-2.8
	c-0.4-0.4-0.4-1,0-1.4s1-0.4,1.4,0C17.4,8.9,18,10.4,18,12c0,1.6-0.6,3.1-1.8,4.2C16.1,16.4,15.8,16.5,15.5,16.5z"/>
</svg>
