<?xml version="1.0" encoding="utf-8"?>
<svg version="1.1" xmlns="http://www.w3.org/2000/svg" xmlns:xlink="http://www.w3.org/1999/xlink" x="0px" y="0px"
	 viewBox="0 0 24 24" style="enable-background:new 0 0 24 24;" xml:space="preserve">
<path fill="black" d="M11.4,4.1c-0.3-0.2-0.8-0.1-1.1,0.1L5.6,8H2C1.4,8,1,8.4,1,9v6c0,0.6,0.4,1,1,1h3.6l4.7,3.8
	c0.2,0.1,0.4,0.2,0.6,0.2c0.1,0,0.3,0,0.4-0.1c0.3-0.2,0.6-0.5,0.6-0.9V5C12,4.6,11.8,4.3,11.4,4.1z M10,16.9l-3.4-2.7
	C6.4,14.1,6.2,14,6,14H3v-4h3c0.2,0,0.4-0.1,0.6-0.2L10,7.1V16.9z"/>
<path fill="black" d="M21.4,12l2.3-2.3c0.4-0.4,0.4-1,0-1.4s-1-0.4-1.4,0L20,10.6l-2.3-2.3c-0.4-0.4-1-0.4-1.4,0s-0.4,1,0,1.4
	l2.3,2.3l-2.3,2.3c-0.4,0.4-0.4,1,0,1.4c0.2,0.2,0.5,0.3,0.7,0.3s0.5-0.1,0.7-0.3l2.3-2.3l2.3,2.3c0.2,0.2,0.5,0.3,0.7,0.3
	s0.5-0.1,0.7-0.3c0.4-0.4,0.4-1,0-1.4L21.4,12z"/>
</svg>
