<?xml version="1.0" encoding="utf-8"?>
<svg width="24" height="24" xmlns="http://www.w3.org/2000/svg" xmlns:xlink="http://www.w3.org/1999/xlink" x="0px" y="0px"
	 viewBox="0 0 24 24" style="enable-background:new 0 0 24 24;" xml:space="preserve">
	<path fill="black" d="M5.6,7.2c0-0.9-0.7-1.5-1.6-1.5c-0.9,0-1.6,0.7-1.6,1.5S3.1,8.8,4,8.8C4.9,8.8,5.6,8.1,5.6,7.2z M3.2,7.2
		c0-0.4,0.3-0.7,0.8-0.7c0.4,0,0.8,0.3,0.8,0.7c0,0.4-0.3,0.7-0.8,0.7C3.6,7.9,3.2,7.6,3.2,7.2z"/>
	<path fill="black" d="M19,11c-0.3,0-0.6,0-0.8,0.1C18.4,11,18.7,11,19,11V4.4l0-0.2l-0.1-0.1L18.7,4l-0.2,0H1.4L1.3,4L1.1,4.1L1,4.3
		l0,0.2v11.1l0,0.2l0.1,0.1l0.1,0.1l0.2,0H14c0-0.1,0-0.2,0-0.3c0,0.1,0,0.3,0,0.4c0,2.8,2.2,5,5,5c2.8,0,5-2.2,5-5
		C24,13.2,21.8,11,19,11z M1.8,4.8h16.4l0,0v6.3c-0.6,0.1-1.2,0.3-1.7,0.6c0,0,0,0,0,0l-0.1-0.2l0,0l-2.6-3.7l-0.1-0.1l-0.2,0
		l-0.2,0l-0.1,0.1l-2.6,3.7v0l-1.3,1.9l-0.9-1.2l0,0L6.1,9.1L6,9l-0.2,0L5.6,9L5.4,9.1l-2.2,3.1l0,0l-1.4,2V4.8z M2.2,15.1l1.7-2.4
		h0L5.8,10l1.9,2.6l1.2,1.7L9,14.5l0.2,0l0.2,0l0.1-0.1l1.7-2.4l2.3-3.2l0,0l2.3,3.2l0.1,0.2l0,0c-0.9,0.7-1.5,1.7-1.7,2.9H2.2z
		 M21.8,18.8C21.1,19.6,20.1,20,19,20c-1.1,0-2.1-0.4-2.8-1.2C15.4,18.1,15,17.1,15,16c0-1.1,0.4-2.1,1.2-2.8
		c0.7-0.7,1.7-1.2,2.8-1.2c1.1,0,2.1,0.4,2.8,1.2c0.7,0.7,1.2,1.7,1.2,2.8C23,17.1,22.6,18.1,21.8,18.8z"/>
	<path fill="black" d="M20.9,14.1c-0.2-0.2-0.4-0.2-0.6,0L19,15.4l-1.3-1.3c-0.2-0.2-0.4-0.2-0.6,0c-0.2,0.2-0.2,0.4,0,0.6l1.3,1.3
		l-1.3,1.3c-0.2,0.2-0.2,0.4,0,0.6c0.1,0.1,0.2,0.1,0.3,0.1c0.1,0,0.2,0,0.3-0.1l1.3-1.3l1.3,1.3c0.1,0.1,0.2,0.1,0.3,0.1
		s0.2,0,0.3-0.1c0.2-0.2,0.2-0.4,0-0.6L19.6,16l1.3-1.3C21,14.5,21,14.3,20.9,14.1z"/>
</svg>
