<svg width="24" height="24" viewBox="0 0 24 24" fill="none" xmlns="http://www.w3.org/2000/svg">
<path d="M19.2172 9.06695L20.0526 7.4368C20.2241 7.10173 20.1149 6.69103 19.798 6.48642L18.2595 5.49136L18.168 3.66166C18.149 3.2855 17.8475 2.98483 17.472 2.96568L15.6423 2.87401L14.6473 1.3355C14.4427 1.01942 14.0328 0.90875 13.6969 1.08097L12.0667 1.91708L10.4366 1.08113C10.0992 0.909588 9.69002 1.01959 9.4862 1.33567L8.49115 2.87418L6.66145 2.96568C6.28529 2.98483 5.98461 3.28552 5.96546 3.66166L5.8738 5.49136L4.33529 6.48642C4.01855 6.69168 3.90921 7.10237 4.08092 7.4368L4.91623 9.06696L4.08092 10.6971C3.90937 11.0322 4.01855 11.4429 4.33545 11.6475L5.87396 12.6425L5.96562 14.4722C5.98461 14.8484 6.28612 15.1491 6.66161 15.1682L7.66681 15.2188V22.2667C7.66681 22.5482 7.82886 22.8057 8.08192 22.9273C8.3371 23.0491 8.63844 23.0146 8.85844 22.8386L12.0667 20.272L15.275 22.8386C15.4077 22.945 15.5698 23 15.7333 23C15.8412 23 15.9504 22.9758 16.0515 22.9273C16.3046 22.8057 16.4666 22.5482 16.4666 22.2667V15.2188L17.472 15.1682C17.8482 15.1499 18.1488 14.8486 18.168 14.4722L18.2596 12.6425L19.7982 11.6475C20.1149 11.4429 20.2242 11.0322 20.0527 10.6971L19.2172 9.06695ZM12.5252 18.7606C12.2575 18.5465 11.8762 18.5465 11.6085 18.7606L9.13357 20.7406V16.2518L9.48632 16.7974C9.69011 17.1135 10.0993 17.2235 10.4367 17.052L12.0669 16.2166L13.697 17.0526C13.8041 17.1069 13.9185 17.1333 14.0306 17.1333C14.2725 17.1333 14.5073 17.0138 14.6474 16.7982L15.0001 16.2526V20.7414L12.5252 18.7606ZM17.7405 9.40135L18.4446 10.7757L17.1474 11.6154C16.9486 11.7437 16.8254 11.9593 16.8129 12.1947L16.7367 13.7368L15.1937 13.8137C14.9584 13.8255 14.7428 13.9501 14.6145 14.1481L13.7747 15.4454L12.4004 14.7407C12.2948 14.6872 12.1804 14.66 12.066 14.66C11.9516 14.66 11.8365 14.6872 11.7316 14.7407L10.3573 15.4454L9.51755 14.1481C9.38921 13.9501 9.17364 13.8255 8.93826 13.8137L7.39535 13.7368L7.31908 12.1947C7.30664 11.9593 7.18272 11.7437 6.98466 11.6154L5.68907 10.7755L6.3931 9.40118C6.50097 9.1915 6.50097 8.9422 6.3931 8.73235L5.68907 7.35836L6.9863 6.51864C7.18501 6.39031 7.30827 6.17473 7.32071 5.93936L7.39699 4.39724L8.9399 4.32031C9.17528 4.30853 9.39087 4.18396 9.51918 3.9859L10.3589 2.68867L11.7332 3.39333C11.9437 3.50038 12.1916 3.50038 12.4021 3.39333L13.7764 2.68867L14.6161 3.9859C14.7444 4.18396 14.96 4.30853 15.1954 4.32031L16.7383 4.39724L16.8146 5.93936C16.827 6.17474 16.9509 6.39033 17.149 6.51864L18.4462 7.35836L17.7422 8.73268C17.6327 8.9422 17.6327 9.19166 17.7405 9.40135Z" fill="black"/>
<path d="M9 9.6V8.4H11.3489V6H12.6511V8.4H15V9.6H12.6511V12H11.3489V9.6H9Z" fill="black"/>
</svg>
