<?xml version="1.0" encoding="utf-8"?>
<svg width="24" height="24" xmlns="http://www.w3.org/2000/svg" xmlns:xlink="http://www.w3.org/1999/xlink" x="0px" y="0px"
	 viewBox="0 0 24 24" style="enable-background:new 0 0 24 24;" xml:space="preserve">
<style type="text/css">
	.st0{fill:#1E1E1E;}
	.st1{fill-rule:evenodd;clip-rule:evenodd;fill:#1E1E1E;}
</style>
<g>
	<path class="st0" d="M19,17.5H5c-1.1,0-2-0.9-2-2v-7c0-1.1,0.9-2,2-2h14c1.1,0,2,0.9,2,2v7C21,16.6,20.1,17.5,19,17.5z M5,8
		C4.7,8,4.5,8.2,4.5,8.5v7C4.5,15.8,4.7,16,5,16h14c0.3,0,0.5-0.2,0.5-0.5v-7C19.5,8.2,19.3,8,19,8H5z"/>
</g>
<g>
	<path class="st1" d="M16,12.8H8v-1.5h8V12.8z"/>
</g>
</svg>
