<?xml version="1.0" encoding="utf-8"?>
<svg version="1.1" width="24" height="24" xmlns="http://www.w3.org/2000/svg" xmlns:xlink="http://www.w3.org/1999/xlink" x="0px" y="0px"
	 viewBox="0 0 24 24" style="enable-background:new 0 0 24 24;" xml:space="preserve">
	<path fill="black" d="M21,18.4H3c-1.1,0-2-0.9-2-2V7c0-1.1,0.9-2,2-2h18c1.1,0,2,0.9,2,2v9.4C23,17.5,22.1,18.4,21,18.4z M3,6.5
		C2.7,6.5,2.5,6.7,2.5,7v9.4c0,0.3,0.2,0.5,0.5,0.5h18c0.3,0,0.5-0.2,0.5-0.5V7c0-0.3-0.2-0.5-0.5-0.5H3z"/>
	<path fill="black" d="M16.9,12.6H7.1v-1.8h9.8V12.6z"/>
</svg>
