<svg width="24" height="24" viewBox="0 0 24 24" fill="none" xmlns="http://www.w3.org/2000/svg">
<path fill-rule="evenodd" clip-rule="evenodd" d="M1 7.55C1 7.24624 1.24624 7 1.55 7H3V8H2V19H20V18H21V19.45C21 19.7537 20.7538 20 20.45 20H1.55C1.24624 20 1 19.7538 1 19.45V7.55Z" fill="black"/>
<path fill-rule="evenodd" clip-rule="evenodd" d="M22.5456 5C22.6051 5 22.6645 5.01189 22.7196 5.03456C22.7746 5.05739 22.825 5.091 22.867 5.13317C22.909 5.17518 22.9428 5.22559 22.9654 5.28061C22.9883 5.33562 23 5.39507 23 5.45452V17.7785C23 17.838 22.9881 17.8974 22.9654 17.9524C22.9426 18.0074 22.909 18.0579 22.867 18.0999C22.8248 18.142 22.7746 18.1756 22.7196 18.1985C22.6645 18.2213 22.6051 18.233 22.5456 18.233H3.45452C3.39507 18.233 3.33562 18.2211 3.28061 18.1985C3.22559 18.1756 3.17518 18.142 3.13317 18.0999C3.09116 18.0579 3.05739 18.0074 3.03472 17.9524C3.01173 17.8974 3 17.838 3 17.7785V5.45452C3 5.39507 3.01189 5.33562 3.03456 5.28061C3.05739 5.22559 3.091 5.17518 3.13301 5.13317C3.17518 5.09116 3.22544 5.05739 3.28045 5.03456C3.33546 5.01173 3.39491 5 3.45436 5H22.5456ZM22.0911 5.90902H3.90911V16.3568L5.4791 14.0853C5.48021 14.0831 5.48132 14.0821 5.48258 14.0802L7.92194 10.648C7.96379 10.5891 8.01991 10.5405 8.08396 10.5073C8.14817 10.4742 8.2203 10.4568 8.29243 10.4568C8.36456 10.4568 8.4367 10.4744 8.5009 10.5075C8.56511 10.5406 8.62107 10.5893 8.66293 10.6481L12.0716 15.4503L16.4471 9.29006C16.489 9.23124 16.5451 9.18257 16.6092 9.14944C16.6734 9.11631 16.7455 9.09887 16.8178 9.09887C16.8901 9.09887 16.9622 9.11646 17.0263 9.1496C17.0905 9.18273 17.1464 9.2314 17.1883 9.29038L20.0705 13.3505C20.072 13.3527 20.0735 13.3548 20.0751 13.3571L22.0908 16.3062L22.0911 5.90902ZM16.8175 10.3384L12.4418 16.4988C12.3999 16.5576 12.3438 16.6064 12.2796 16.6396C12.2154 16.6727 12.1433 16.6903 12.071 16.6901C11.9987 16.6901 11.9266 16.6727 11.8624 16.6394C11.7981 16.6063 11.742 16.5574 11.7003 16.4986L8.29201 11.6961L6.22661 14.6022L4.3456 17.3228H21.6855L19.3263 13.8715L16.8174 10.3372L16.8175 10.3384Z" fill="black"/>
<path fill-rule="evenodd" clip-rule="evenodd" d="M6.32582 6.87134C7.28131 6.87134 8.08111 7.6323 8.08111 8.57874C8.08111 9.52518 7.28131 10.2861 6.32582 10.2861C5.37191 10.2861 4.57275 9.52518 4.57275 8.57874C4.57275 7.6323 5.37179 6.87134 6.32582 6.87134ZM6.32582 7.78036C5.84671 7.78036 5.48194 8.14229 5.48194 8.57874C5.48194 9.01519 5.84672 9.37713 6.32582 9.37713C6.80792 9.37713 7.17193 9.01519 7.17193 8.57874C7.17193 8.14229 6.80793 7.78036 6.32582 7.78036Z" fill="black"/>
</svg>
