<svg width="24" height="24" viewBox="0 0 24 24" fill="none" xmlns="http://www.w3.org/2000/svg">
<path d="M21.961 2.99561C21.961 2.7223 21.8438 2.46852 21.6681 2.29283C21.4924 2.11713 21.2386 2 20.9653 2H13.8399C13.7618 2 13.7228 2.01952 13.6642 2.01952C13.4885 2.03904 13.3128 2.13665 13.1762 2.2733L2.26354 13.2055C1.91215 13.5569 1.91215 14.123 2.26354 14.4549L9.54514 21.7365C9.89653 22.0878 10.4627 22.0878 10.7945 21.7365L21.7072 10.8238C21.8243 10.7067 21.8829 10.5896 21.9219 10.4529C21.9414 10.4139 21.9414 10.3553 21.9414 10.2967C21.9414 10.2186 21.9414 10.1601 21.9414 10.082V2.99561H21.961ZM19.8526 5.63104C19.4426 6.041 18.7789 6.041 18.369 5.63104C17.959 5.22108 17.959 4.55735 18.369 4.14739C18.7789 3.73743 19.4426 3.73743 19.8526 4.14739C20.2626 4.55735 20.2626 5.22108 19.8526 5.63104Z" fill="black"/>
</svg>
