<?xml version="1.0" encoding="utf-8"?>
<!-- Generator: Adobe Illustrator 27.3.1, SVG Export Plug-In . SVG Version: 6.00 Build 0)  -->
<svg version="1.1" id="Layer_1" xmlns="http://www.w3.org/2000/svg" xmlns:xlink="http://www.w3.org/1999/xlink" x="0px" y="0px"
	 viewBox="0 0 24 24" style="enable-background:new 0 0 24 24;" xml:space="preserve">
<style type="text/css">
	.st0{fill-rule:evenodd;clip-rule:evenodd;}
	.st1{fill:none;stroke:#000000;stroke-width:0.3;stroke-miterlimit:10;}
	.st2{fill:none;stroke:#000000;stroke-width:0.3;stroke-miterlimit:10;stroke-dasharray:1.9727,1.9727;}
</style>
<g>
	<path class="st0" d="M11.2,3.7C11.2,3.7,11.3,3.7,11.2,3.7C11.3,3.7,11.3,3.7,11.2,3.7c0.1,0.1,0.1,0.1,0.1,0.2V4v4.7v0.1
		c0,0,0,0,0,0.1c0,0,0,0-0.1,0h-0.1H3.9H3.8c0,0,0,0-0.1,0c0,0,0,0,0-0.1V8.7V3.9V3.8c0,0,0,0,0-0.1c0,0,0,0,0.1,0h0.1
		C3.9,3.7,11.2,3.7,11.2,3.7z M11.1,4H4v4l0.6-0.9l0,0l0.9-1.3c0,0,0,0,0.1-0.1h0.1h0.1c0,0,0.1,0,0.1,0.1l0.9,1.3l0.3,0.5L7.8,7
		l1.1-1.5c0,0,0,0,0.1-0.1h0.1h0.1c0,0,0.1,0,0.1,0.1l1,1.5l0,0l0.8,1.1V4z M9,5.8L8.1,7.1l-0.7,1c0,0,0,0-0.1,0.1H7.2H7.1
		c0,0-0.1,0-0.1-0.1L6.5,7.5L5.8,6.4L5,7.5l-0.8,1h6.7L10,7.1L9,5.8L9,5.8z"/>
	<path class="st0" d="M5,4.5c0.3,0,0.7,0.3,0.7,0.7c0,0.3-0.3,0.7-0.7,0.7C4.6,5.8,4.3,5.5,4.3,5.1C4.3,4.7,4.6,4.5,5,4.5z M5,4.8
		C4.8,4.8,4.6,5,4.6,5.2c0,0.2,0.2,0.3,0.3,0.3s0.3-0.2,0.3-0.3S5.2,4.8,5,4.8z"/>
	<path class="st0" d="M19.8,3.7C19.8,3.7,19.9,3.7,19.8,3.7C19.9,3.7,19.9,3.7,19.8,3.7c0.1,0.1,0.1,0.1,0.1,0.2V4v4.7v0.1
		c0,0,0,0,0,0.1c0,0,0,0-0.1,0h-0.1h-7.4h-0.1c0,0,0,0-0.1,0c0,0,0,0,0-0.1V8.7V3.9V3.8c0,0,0,0,0-0.1c0,0,0,0,0.1,0h0.1
		C12.3,3.7,19.8,3.7,19.8,3.7z M19.6,4h-7v4l0.6-0.9l0,0l0.9-1.3c0,0,0,0,0.1-0.1h0.1h0.1c0,0,0.1,0,0.1,0.1l0.9,1.3l0.3,0.5L16.4,7
		l1.1-1.5c0,0,0,0,0.1-0.1h0.1h0.1c0,0,0.1,0,0.1,0.1l1,1.5l0,0l0.8,1.1V4z M17.6,5.8l-0.9,1.4l-0.7,1c0,0,0,0-0.1,0.1h-0.1h-0.1
		c0,0-0.1,0-0.1-0.1l-0.5-0.8l-0.8-1.1l-0.8,1.1l-0.7,1h6.7L18.6,7L17.6,5.8L17.6,5.8z"/>
	<path class="st0" d="M13.5,4.5c0.3,0,0.7,0.3,0.7,0.7c0,0.3-0.3,0.7-0.7,0.7c-0.3,0-0.7-0.3-0.7-0.7C12.9,4.7,13.2,4.5,13.5,4.5z
		 M13.5,4.8c-0.2,0-0.3,0.2-0.3,0.3c0,0.2,0.2,0.3,0.3,0.3c0.2,0,0.3-0.2,0.3-0.3S13.7,4.8,13.5,4.8z"/>
	<path class="st0" d="M11.2,9.4C11.2,9.4,11.3,9.4,11.2,9.4C11.3,9.4,11.3,9.4,11.2,9.4c0.1,0.1,0.1,0.1,0.1,0.2v0.1v4.7v0.1
		c0,0,0,0,0,0.1c0,0,0,0-0.1,0h-0.1H3.9H3.8c0,0,0,0-0.1,0c0,0,0,0,0-0.1v-0.1V9.6V9.5c0,0,0,0,0-0.1c0,0,0,0,0.1,0h0.1
		C3.9,9.4,11.2,9.4,11.2,9.4z M11.1,9.8H4v4l0.6-0.9l0,0l0.9-1.3c0,0,0,0,0.1-0.1h0.1h0.1c0,0,0.1,0,0.1,0.1l0.9,1.3l0.3,0.5
		l0.6-0.8l1.1-1.5c0,0,0,0,0.1-0.1h0.1h0.1c0,0,0.1,0,0.1,0.1l1.1,1.5l0,0l0.8,1.1L11.1,9.8z M9,11.5l-0.9,1.4l-0.7,1
		c0,0,0,0-0.1,0.1H7.2H7.1c0,0-0.1,0-0.1-0.1l-0.5-0.8L5.8,12L5,13.1l-0.7,1H11L10,12.9L9,11.5L9,11.5z"/>
	<path class="st0" d="M5,10.2c0.3,0,0.7,0.3,0.7,0.7c0,0.3-0.3,0.7-0.7,0.7c-0.3,0-0.7-0.3-0.7-0.7S4.6,10.2,5,10.2z M5,10.5
		c-0.2,0-0.3,0.2-0.3,0.3s0.2,0.3,0.3,0.3s0.3-0.2,0.3-0.3C5.3,10.6,5.2,10.5,5,10.5z"/>
	<path class="st0" d="M19.8,9.4C19.8,9.4,19.9,9.4,19.8,9.4C19.9,9.4,19.9,9.4,19.8,9.4c0.1,0.1,0.1,0.1,0.1,0.2v0.1v4.7v0.1
		c0,0,0,0,0,0.1c0,0,0,0-0.1,0s-0.1,0-0.1,0h-7.4h-0.1c0,0,0,0-0.1,0c0,0,0,0,0-0.1v-0.1V9.6V9.5c0,0,0,0,0-0.1c0,0,0,0,0.1,0h0.1
		C12.3,9.4,19.8,9.4,19.8,9.4z M19.6,9.8h-7v4l0.6-0.9l0,0l0.9-1.3c0,0,0,0,0.1-0.1h0.1h0.1c0,0,0.1,0,0.1,0.1l0.9,1.3l0.3,0.5
		l0.6-0.8l1.1-1.5c0,0,0,0,0.1-0.1h0.1h0.1c0,0,0.1,0,0.1,0.1l1.1,1.5l0,0l0.8,1.1L19.6,9.8z M17.6,11.5l-0.9,1.4l-0.7,1
		c0,0,0,0-0.1,0.1h-0.1h-0.1c0,0-0.1,0-0.1-0.1l-0.5-0.8L14.3,12l-0.8,1.1l-0.7,1h6.7l-0.9-1.3L17.6,11.5L17.6,11.5z"/>
	<path class="st0" d="M13.5,10.2c0.3,0,0.7,0.3,0.7,0.7c0,0.3-0.3,0.7-0.7,0.7c-0.3,0-0.7-0.3-0.7-0.7S13.2,10.2,13.5,10.2z
		 M13.5,10.5c-0.2,0-0.3,0.2-0.3,0.3s0.2,0.3,0.3,0.3c0.2,0,0.3-0.2,0.3-0.3C13.9,10.6,13.7,10.5,13.5,10.5z"/>
	<path class="st0" d="M11.2,15.2C11.2,15.2,11.3,15.2,11.2,15.2C11.3,15.2,11.3,15.2,11.2,15.2c0.1,0.1,0.1,0.1,0.1,0.2v0.1v4.7v0.1
		c0,0,0,0,0,0.1c0,0,0,0-0.1,0h-0.1H3.9H3.8c0,0,0,0-0.1,0c0,0,0,0,0-0.1v-0.1v-4.7v-0.1c0,0,0,0,0-0.1c0,0,0,0,0.1,0h0.1L11.2,15.2
		L11.2,15.2z M11.1,15.5H4v4l0.6-0.9l0,0l0.9-1.3c0,0,0,0,0.1-0.1h0.1h0.1c0,0,0.1,0,0.1,0.1l0.9,1.3l0.3,0.5l0.6-0.8l1.1-1.5
		c0,0,0,0,0.1-0.1h0.1h0.1c0,0,0.1,0,0.1,0.1l1.1,1.5l0,0l0.8,1.1L11.1,15.5z M9,17.2l-0.9,1.4l-0.7,1c0,0,0,0-0.1,0.1H7.2H7.1
		c0,0-0.1,0-0.1-0.1l-0.5-0.8l-0.8-1.1L5,18.8l-0.7,1H11L10,18.5L9,17.2L9,17.2z"/>
	<path class="st0" d="M5,15.9c0.3,0,0.7,0.3,0.7,0.7c0,0.3-0.3,0.7-0.7,0.7c-0.3,0-0.7-0.3-0.7-0.7C4.3,16.2,4.6,15.9,5,15.9z
		 M5,16.3c-0.2,0-0.3,0.2-0.3,0.3C4.6,16.8,4.8,17,5,17s0.3-0.2,0.3-0.3C5.3,16.4,5.2,16.3,5,16.3z"/>
	<path class="st0" d="M19.8,15.2C19.8,15.2,19.9,15.2,19.8,15.2C19.9,15.2,19.9,15.2,19.8,15.2c0.1,0.1,0.1,0.1,0.1,0.2v0.1v4.7v0.1
		c0,0,0,0,0,0.1c0,0,0,0-0.1,0h-0.1h-7.4h-0.1c0,0,0,0-0.1,0c0,0,0,0,0-0.1v-0.1v-4.7v-0.1c0,0,0,0,0-0.1c0,0,0,0,0.1,0h0.1
		L19.8,15.2L19.8,15.2z M19.6,15.5h-7v4l0.6-0.9l0,0l0.9-1.3c0,0,0,0,0.1-0.1h0.1h0.1c0,0,0.1,0,0.1,0.1l0.9,1.3l0.3,0.5l0.6-0.8
		l1.1-1.5c0,0,0,0,0.1-0.1h0.1h0.1c0,0,0.1,0,0.1,0.1l1.1,1.5l0,0l0.8,1.1L19.6,15.5z M17.6,17.2l-0.9,1.4l-0.7,1c0,0,0,0-0.1,0.1
		h-0.1h-0.1c0,0-0.1,0-0.1-0.1l-0.5-0.8l-0.8-1.1l-0.8,1.1l-0.7,1h6.7l-0.9-1.4L17.6,17.2L17.6,17.2z"/>
	<path class="st0" d="M13.5,15.9c0.3,0,0.7,0.3,0.7,0.7c0,0.3-0.3,0.7-0.7,0.7c-0.3,0-0.7-0.3-0.7-0.7
		C12.9,16.2,13.2,15.9,13.5,15.9z M13.5,16.3c-0.2,0-0.3,0.2-0.3,0.3c0,0.2,0.2,0.3,0.3,0.3c0.2,0,0.3-0.2,0.3-0.3
		C13.9,16.4,13.7,16.3,13.5,16.3z"/>
	<g>
		<g>
			<line class="st1" x1="3.8" y1="3.1" x2="4.6" y2="3.1"/>
			<line class="st2" x1="6.3" y1="3.1" x2="18.9" y2="3.1"/>
			<line class="st1" x1="19.8" y1="3.1" x2="20.6" y2="3.1"/>
		</g>
	</g>
	<g>
		<g>
			<line class="st1" x1="3.8" y1="20.9" x2="4.6" y2="20.9"/>
			<line class="st2" x1="6.3" y1="20.9" x2="18.9" y2="20.9"/>
			<line class="st1" x1="19.8" y1="20.9" x2="20.6" y2="20.9"/>
		</g>
	</g>
	<g>
		<g>
			<line class="st1" x1="20.8" y1="20.5" x2="20.8" y2="19.6"/>
			<line class="st2" x1="20.8" y1="17.9" x2="20.8" y2="5.2"/>
			<line class="st1" x1="20.8" y1="4.4" x2="20.8" y2="3.5"/>
		</g>
	</g>
	<g>
		<g>
			<line class="st1" x1="3.2" y1="20.5" x2="3.2" y2="19.6"/>
			<line class="st2" x1="3.2" y1="17.9" x2="3.2" y2="5.2"/>
			<line class="st1" x1="3.2" y1="4.4" x2="3.2" y2="3.5"/>
		</g>
	</g>
</g>
</svg>
