<?xml version="1.0" encoding="utf-8"?>
<!-- Generator: Adobe Illustrator 27.3.1, SVG Export Plug-In . SVG Version: 6.00 Build 0)  -->
<svg version="1.1" id="Layer_1" xmlns="http://www.w3.org/2000/svg" xmlns:xlink="http://www.w3.org/1999/xlink" x="0px" y="0px"
	 viewBox="0 0 24 24" style="enable-background:new 0 0 24 24;" xml:space="preserve">
<style type="text/css">
	.st0{fill:none;}
</style>
<path d="M18.9,21.1c-2.8,0-5.1-2.3-5.1-5.1s2.3-5.1,5.1-5.1S24,13.2,24,16S21.7,21.1,18.9,21.1z M18.9,11.9c-2.3,0-4.1,1.8-4.1,4.1
	c0,2.3,1.8,4.1,4.1,4.1S23,18.3,23,16C23,13.7,21.1,11.9,18.9,11.9z M20.9,14.1c-0.2-0.2-0.4-0.2-0.6,0L19,15.4l-1.3-1.3
	c-0.2-0.2-0.4-0.2-0.6,0s-0.2,0.4,0,0.6l1.3,1.3l-1.3,1.3c-0.2,0.2-0.2,0.4,0,0.6c0.1,0.1,0.2,0.1,0.3,0.1c0.1,0,0.2,0,0.3-0.1
	l1.3-1.3l1.3,1.3c0.1,0.1,0.2,0.1,0.3,0.1s0.2,0,0.3-0.1c0.2-0.2,0.2-0.4,0-0.6L19.6,16l1.3-1.3C21,14.5,21,14.3,20.9,14.1z"/>
<g id="Layer_2">
</g>
<g>
	<path d="M1.7,7C1.7,7,1.8,7,1.7,7c0.1,0,0.1,0.1,0.1,0.1h7.2c0,0,0,0,0.1,0c0,0,0,0,0.1,0s0,0,0-0.1s0,0,0-0.1V2.2c0,0,0,0,0-0.1
		c0,0,0,0,0-0.1c0,0,0,0-0.1,0c0,0,0,0-0.1,0H1.9c0,0,0,0-0.1,0c0,0,0,0-0.1,0c0,0,0,0,0,0.1c0,0,0,0,0,0.1v4.7
		C1.7,6.9,1.7,6.9,1.7,7C1.7,7,1.7,7,1.7,7z M2.2,6.7l0.7-1l0.8-1.1l0.8,1.1L5,6.4c0,0,0,0,0.1,0.1c0,0,0.1,0,0.1,0c0,0,0.1,0,0.1,0
		c0,0,0,0,0.1-0.1l0.7-1l1-1.3l0,0l1,1.3l0.9,1.3H2.2z M2,2.4h6.9l0,3.9L8.1,5.2c0,0,0,0,0,0L7.1,3.7c0,0,0,0-0.1-0.1
		c0,0-0.1,0-0.1,0c0,0-0.1,0-0.1,0s0,0-0.1,0.1L5.7,5.2L5.1,6L4.7,5.5L3.8,4.2c0,0,0,0-0.1-0.1c0,0-0.1,0-0.1,0c0,0-0.1,0-0.1,0
		c0,0,0,0-0.1,0.1L2.6,5.5c0,0,0,0,0,0L2,6.3V2.4z"/>
	<path d="M3.6,3.4c0-0.4-0.3-0.6-0.7-0.6C2.6,2.7,2.3,3,2.3,3.4C2.3,3.8,2.6,4,2.9,4C3.3,4,3.6,3.8,3.6,3.4z M2.6,3.4
		c0-0.2,0.1-0.3,0.3-0.3c0.2,0,0.3,0.1,0.3,0.3c0,0.2-0.1,0.3-0.3,0.3C2.8,3.7,2.6,3.6,2.6,3.4z"/>
	<path d="M17.6,2.1C17.5,2,17.5,2,17.6,2.1l-7.3,0c0,0,0,0-0.1,0c0,0,0,0-0.1,0c0,0,0,0,0,0.1c0,0,0,0,0,0.1v4.7c0,0,0,0,0,0.1
		c0,0,0,0,0,0.1c0,0,0,0,0.1,0c0,0,0,0,0.1,0h7.2c0,0,0,0,0.1,0c0,0,0,0,0.1,0c0,0,0,0,0-0.1c0,0,0,0,0-0.1V2.2
		C17.7,2.2,17.7,2.2,17.6,2.1C17.7,2.1,17.6,2.1,17.6,2.1C17.6,2.1,17.6,2.1,17.6,2.1z M10.6,6.7l0.7-1l0.8-1.1l0.8,1.1l0.5,0.7
		c0,0,0,0,0.1,0.1c0,0,0.1,0,0.1,0c0,0,0.1,0,0.1,0c0,0,0,0,0.1-0.1l0.7-1l1-1.3l0,0l1,1.3l0.9,1.3H10.6z M17.3,6.3l-0.8-1.1
		c0,0,0,0,0,0l-1.1-1.5c0,0,0,0-0.1-0.1s-0.1,0-0.1,0c0,0-0.1,0-0.1,0c0,0,0,0-0.1,0.1l-1.1,1.5L13.5,6l-0.4-0.5l-0.9-1.3
		c0,0,0,0-0.1-0.1c0,0-0.1,0-0.1,0s-0.1,0-0.1,0c0,0,0,0-0.1,0.1L11,5.5c0,0,0,0,0,0l-0.6,0.9v-4h6.9L17.3,6.3z"/>
	<path d="M11.4,4C11.7,4,12,3.8,12,3.4c0-0.4-0.3-0.6-0.7-0.6c-0.4,0-0.7,0.3-0.7,0.6C10.7,3.8,11,4,11.4,4z M11.4,3.1
		c0.2,0,0.3,0.1,0.3,0.3c0,0.2-0.1,0.3-0.3,0.3c-0.2,0-0.3-0.1-0.3-0.3C11,3.2,11.2,3.1,11.4,3.1z"/>
	<path d="M1.7,12.6C1.7,12.6,1.8,12.7,1.7,12.6c0.1,0,0.1,0.1,0.1,0.1h7.2c0,0,0,0,0.1,0c0,0,0,0,0.1,0s0,0,0-0.1s0,0,0-0.1V7.8
		c0,0,0,0,0-0.1c0,0,0,0,0-0.1c0,0,0,0-0.1,0c0,0,0,0-0.1,0H1.9c0,0,0,0-0.1,0c0,0,0,0-0.1,0c0,0,0,0,0,0.1c0,0,0,0,0,0.1v4.7
		C1.7,12.5,1.7,12.6,1.7,12.6C1.7,12.6,1.7,12.6,1.7,12.6z M2.2,12.3l0.7-1l0.8-1.1l0.8,1.1L5,12c0,0,0,0,0.1,0.1c0,0,0.1,0,0.1,0
		c0,0,0.1,0,0.1,0c0,0,0,0,0.1-0.1L6,11l1-1.3l0,0l1,1.3l0.9,1.3H2.2z M2,8h6.9l0,3.9l-0.8-1.1c0,0,0,0,0,0L7.1,9.3c0,0,0,0-0.1-0.1
		c0,0-0.1,0-0.1,0c0,0-0.1,0-0.1,0s0,0-0.1,0.1l-1.1,1.5l-0.6,0.8l-0.4-0.5L3.8,9.8c0,0,0,0-0.1-0.1c0,0-0.1,0-0.1,0
		c0,0-0.1,0-0.1,0c0,0,0,0-0.1,0.1l-0.9,1.3c0,0,0,0,0,0L2,12V8z"/>
	<path d="M3.6,9c0-0.4-0.3-0.6-0.7-0.6C2.6,8.4,2.3,8.7,2.3,9c0,0.4,0.3,0.6,0.7,0.6C3.3,9.7,3.6,9.4,3.6,9z M2.6,9
		c0-0.2,0.1-0.3,0.3-0.3c0.2,0,0.3,0.1,0.3,0.3c0,0.2-0.1,0.3-0.3,0.3C2.8,9.3,2.6,9.2,2.6,9z"/>
	<path d="M15.3,12.3h-4.7l0.7-1l0.8-1.1l0.8,1.1l0.5,0.7c0,0,0,0,0.1,0.1c0,0,0.1,0,0.1,0c0,0,0.1,0,0.1,0c0,0,0,0,0.1-0.1l0.7-1
		l1-1.3l0,0l1,1.3l0.3,0.4c0.1-0.1,0.2-0.1,0.3-0.2l-0.3-0.5c0,0,0,0,0,0l-1.1-1.5c0,0,0,0-0.1-0.1s-0.1,0-0.1,0c0,0-0.1,0-0.1,0
		c0,0,0,0-0.1,0.1l-1.1,1.5l-0.6,0.8l-0.4-0.5l-0.9-1.3c0,0,0,0-0.1-0.1c0,0-0.1,0-0.1,0s-0.1,0-0.1,0c0,0,0,0-0.1,0.1L11,11.1
		c0,0,0,0,0,0L10.4,12V8h6.9l0,3.1c0.1,0,0.2-0.1,0.3-0.1V7.8c0,0,0,0,0-0.1c0,0,0,0,0-0.1c0,0,0,0-0.1,0c0,0,0,0-0.1,0h-7.2
		c0,0,0,0-0.1,0c0,0,0,0-0.1,0c0,0,0,0,0,0.1c0,0,0,0,0,0.1v4.7c0,0,0,0,0,0.1c0,0,0,0,0,0.1c0,0,0,0,0.1,0c0,0,0,0,0.1,0H15
		C15.1,12.6,15.2,12.4,15.3,12.3z"/>
	<path d="M11.4,8.4c-0.4,0-0.7,0.3-0.7,0.6c0,0.4,0.3,0.6,0.7,0.6C11.7,9.7,12,9.4,12,9C12,8.7,11.7,8.4,11.4,8.4z M11.4,9.3
		C11.2,9.3,11,9.2,11,9c0-0.2,0.1-0.3,0.3-0.3c0.2,0,0.3,0.1,0.3,0.3C11.7,9.2,11.5,9.3,11.4,9.3z"/>
	<path d="M1.8,18.3C1.8,18.3,1.8,18.3,1.8,18.3l7.3,0c0,0,0,0,0.1,0c0,0,0,0,0.1,0s0,0,0-0.1c0,0,0,0,0-0.1v-4.7c0,0,0,0,0-0.1
		c0,0,0,0,0-0.1c0,0,0,0-0.1,0c0,0,0,0-0.1,0H1.9c0,0,0,0-0.1,0c0,0,0,0-0.1,0c0,0,0,0,0,0.1c0,0,0,0,0,0.1v4.7
		C1.7,18.2,1.7,18.2,1.8,18.3C1.7,18.2,1.7,18.2,1.8,18.3C1.7,18.3,1.8,18.3,1.8,18.3z M2.2,18l0.7-1l0.8-1.1l0.8,1.1L5,17.6
		c0,0,0,0,0.1,0.1c0,0,0.1,0,0.1,0c0,0,0.1,0,0.1,0c0,0,0,0,0.1-0.1l0.7-1l1-1.3l0,0l1,1.3L8.8,18H2.2z M2,13.6h6.9l0,3.9l-0.8-1.1
		c0,0,0,0,0,0l-1.1-1.5c0,0,0,0-0.1-0.1c0,0-0.1,0-0.1,0c0,0-0.1,0-0.1,0c0,0,0,0-0.1,0.1l-1.1,1.5l-0.6,0.8l-0.4-0.5l-0.9-1.3
		c0,0,0,0-0.1-0.1c0,0-0.1,0-0.1,0c0,0-0.1,0-0.1,0c0,0,0,0-0.1,0.1l-0.9,1.3c0,0,0,0,0,0L2,17.6V13.6z"/>
	<path d="M3.6,14.6c0-0.4-0.3-0.6-0.7-0.6c-0.4,0-0.7,0.3-0.7,0.6c0,0.4,0.3,0.6,0.7,0.6C3.3,15.3,3.6,15,3.6,14.6z M2.6,14.6
		c0-0.2,0.1-0.3,0.3-0.3c0.2,0,0.3,0.1,0.3,0.3c0,0.2-0.1,0.3-0.3,0.3C2.8,14.9,2.6,14.8,2.6,14.6z"/>
	<path d="M10.6,18l0.7-1l0.8-1.1l0.8,1.1l0.5,0.7c0,0,0,0,0.1,0.1c0,0,0.1,0,0.1,0c0,0,0.1,0,0.1,0c0,0,0,0,0.1-0.1l0.3-0.4
		c0-0.2-0.1-0.3-0.1-0.5l-0.3,0.5l-0.4-0.5l-0.9-1.3c0,0,0,0-0.1-0.1c0,0-0.1,0-0.1,0s-0.1,0-0.1,0c0,0,0,0-0.1,0.1L11,16.7
		c0,0,0,0,0,0l-0.6,0.9v-4h3.9c0.1-0.1,0.1-0.2,0.2-0.3h-4.3c0,0,0,0-0.1,0c0,0,0,0-0.1,0c0,0,0,0,0,0.1c0,0,0,0,0,0.1v4.7
		c0,0,0,0,0,0.1c0,0,0,0,0,0.1c0,0,0,0,0.1,0c0,0,0,0,0.1,0h4.1c-0.1-0.1-0.1-0.2-0.2-0.3H10.6z"/>
	<path d="M11.4,15.3c0.4,0,0.7-0.3,0.7-0.6c0-0.4-0.3-0.6-0.7-0.6c-0.4,0-0.7,0.3-0.7,0.6C10.7,15,11,15.3,11.4,15.3z M11.4,14.3
		c0.2,0,0.3,0.1,0.3,0.3c0,0.2-0.1,0.3-0.3,0.3c-0.2,0-0.3-0.1-0.3-0.3C11,14.5,11.2,14.3,11.4,14.3z"/>
	<rect x="1.7" y="1.3" width="1" height="0.3"/>
	<rect x="13.2" y="1.3" width="2.1" height="0.3"/>
	<rect x="4.8" y="1.3" width="2.1" height="0.3"/>
	<rect x="9" y="1.3" width="2.1" height="0.3"/>
	<rect x="17.4" y="1.3" width="1" height="0.3"/>
	<rect x="1.7" y="18.8" width="1" height="0.3"/>
	<rect x="4.8" y="18.8" width="2.1" height="0.3"/>
	<path d="M13.2,18.8v0.3h1.6c-0.1-0.1-0.2-0.2-0.2-0.3H13.2z"/>
	<rect x="9" y="18.8" width="2.1" height="0.3"/>
	<rect x="18.4" y="4.9" width="0.3" height="2.1"/>
	<path d="M18.7,9.1h-0.3v1.8c0.1,0,0.2,0,0.3,0V9.1z"/>
	<rect x="18.4" y="1.9" width="0.3" height="1"/>
	<rect x="1" y="17.5" width="0.3" height="1"/>
	<rect x="1" y="9.1" width="0.3" height="2.1"/>
	<rect x="1" y="4.9" width="0.3" height="2.1"/>
	<rect x="1" y="13.3" width="0.3" height="2.1"/>
	<rect x="1" y="1.9" width="0.3" height="1"/>
	<path class="st0" d="M17.3,11.9v-0.8c-0.1,0-0.3,0.1-0.4,0.1L17.3,11.9z"/>
	<path class="st0" d="M18.9,10.9c-0.1,0-0.1,0-0.2,0v0.3h-0.3v-0.3c-0.2,0-0.5,0.1-0.7,0.1v1.5c0,0,0,0,0,0.1c0,0,0,0,0,0.1
		c0,0,0,0-0.1,0c0,0,0,0-0.1,0H15c-0.2,0.2-0.3,0.4-0.5,0.6h2.9c0,0,0,0,0.1,0c0,0,0,0,0.1,0c0,0,0,0,0,0.1c0,0,0,0,0,0.1v4.7
		c0,0,0,0,0,0.1c0,0,0,0,0,0.1c0,0,0,0-0.1,0c0,0,0,0-0.1,0h-3.2c0.1,0.2,0.2,0.3,0.3,0.5h0.7v0.3h-0.4c0.9,1.2,2.4,2,4,2
		c2.8,0,5.1-2.3,5.1-5.1S21.7,10.9,18.9,10.9z M18.4,19.1h-1v-0.3h1V19.1z M18.7,18.5h-0.3v-1h0.3V18.5z M18.7,15.4h-0.3v-2.1h0.3
		V15.4z"/>
	<path class="st0" d="M17.2,18l-0.9-1.3l-1-1.3l0,0l-1,1.3l-0.4,0.6c0.1,0.2,0.1,0.5,0.2,0.7H17.2z"/>
	<path class="st0" d="M17.2,12.3l-0.6-0.9c-0.5,0.2-0.9,0.5-1.2,0.9H17.2z"/>
	<path class="st0" d="M13.9,16.8l0.2-0.3l1.1-1.5c0,0,0,0,0.1-0.1c0,0,0.1,0,0.1,0c0,0,0.1,0,0.1,0c0,0,0,0,0.1,0.1l1.1,1.5
		c0,0,0,0,0,0l0.8,1.1l0-3.9h-3c-0.4,0.7-0.6,1.5-0.6,2.4C13.8,16.3,13.8,16.5,13.9,16.8z"/>
</g>
</svg>
