<svg width="24" height="24" viewBox="0 0 24 24" fill="none" xmlns="http://www.w3.org/2000/svg">
<path d="M20.2837 23H3.71419C2.99442 22.9982 2.30476 22.7162 1.79611 22.2154C1.28746 21.7147 1.00134 21.036 1.00027 20.3283V3.67172C1.00136 2.96393 1.28748 2.28521 1.79611 1.78458C2.30476 1.28372 2.99442 1.0016 3.71419 1H20.2837C21.0038 1.00089 21.6942 1.28268 22.2034 1.78353C22.7126 2.28438 22.9991 2.96343 23 3.67176V20.3283C22.9991 21.0366 22.7126 21.7157 22.2034 22.2166C21.6942 22.7174 21.0039 22.9991 20.2837 23ZM3.71419 1.7984C3.20971 1.79983 2.72644 1.99785 2.36999 2.34877C2.01356 2.69989 1.81295 3.17542 1.81207 3.67163V20.3282C1.81298 20.8249 2.01394 21.301 2.3711 21.6521C2.72826 22.0033 3.21245 22.2007 3.71743 22.2015H20.2837C20.7886 22.2007 21.2725 22.0033 21.6297 21.6521C21.9867 21.3008 22.1875 20.8248 22.1882 20.3282V3.67163C22.1875 3.17505 21.9867 2.69901 21.6297 2.34768C21.2726 1.99655 20.7886 1.79909 20.2837 1.79836L3.71419 1.7984Z" fill="black"/>
<path d="M22.5939 12.8118H1.4059C1.18175 12.8118 1 12.63 1 12.4059C1 12.1818 1.18175 12 1.4059 12H22.5939C22.818 12 22.9998 12.1818 22.9998 12.4059C22.9998 12.63 22.818 12.8118 22.5939 12.8118Z" fill="black"/>
<path d="M12.3819 15H4.4059C4.18175 15 4 14.7761 4 14.5C4 14.2239 4.18175 14 4.4059 14H12.3819C12.6061 14 12.7878 14.2239 12.7878 14.5C12.7878 14.7761 12.6061 15 12.3819 15Z" fill="black"/>
<path d="M4.4059 17.9326C4.18175 17.9326 4 17.7088 4 17.4326C4 17.1565 4.18175 16.9326 4.4059 16.9326H16.8264C17.0506 16.9326 17.2323 17.1565 17.2323 17.4326C17.2323 17.7088 17.0506 17.9326 16.8264 17.9326H4.4059Z" fill="black"/>
<path d="M4.4059 20.9326C4.18175 20.9326 4 20.7088 4 20.4326C4 20.1565 4.18175 19.9326 4.4059 19.9326H16.8264C17.0506 19.9326 17.2323 20.1565 17.2323 20.4326C17.2323 20.7088 17.0506 20.9326 16.8264 20.9326H4.4059Z" fill="black"/>
<path d="M1 12.6V12.8L1.1 13L1.3 13.1H22.7L22.9 13L23 12.8V12.6L22 11L19.8 7.8L16.6 3.3L16.4 3.1L16.2 3L16 3.1L15.8 3.3L12.6 7.8L11 10L9.9 8.5L7.2 4.7L7.1 4.6L6.8 4.5L6.4 4.7L3.7 8.5L2 11L1 12.6ZM2.5 12.1L4.6 9.1L6.9 5.9L9.2 9.1L10.7 11.2L10.9 11.4L11.1 11.5L11.3 11.4L11.5 11.2L13.5 8.3L16.3 4.4L19 8.3L21.6 12.1H2.5Z" fill="black"/>
<path fill-rule="evenodd" clip-rule="evenodd" d="M3.93155 3C4.43928 3 4.86429 3.40437 4.86429 3.90729C4.86429 4.41021 4.43928 4.81458 3.93155 4.81458C3.42466 4.81458 3 4.41021 3 3.90729C3 3.40437 3.42459 3 3.93155 3ZM3.93155 3.48304C3.67696 3.48304 3.48313 3.67537 3.48313 3.90729C3.48313 4.13921 3.67697 4.33154 3.93155 4.33154C4.18774 4.33154 4.38116 4.13921 4.38116 3.90729C4.38116 3.67537 4.18774 3.48304 3.93155 3.48304Z" fill="black"/>
</svg>
