<?xml version="1.0" encoding="utf-8"?>
<svg width="24" height="24" xmlns="http://www.w3.org/2000/svg" xmlns:xlink="http://www.w3.org/1999/xlink" x="0px" y="0px"
	 viewBox="0 0 24 24" style="enable-background:new 0 0 24 24;" xml:space="preserve">
	<path fill="black" d="M6.1,7.6c0-0.9-0.8-1.7-1.8-1.7c-1,0-1.8,0.8-1.8,1.7c0,0.9,0.8,1.7,1.8,1.7C5.3,9.3,6.1,8.5,6.1,7.6z M3.5,7.6
		c0-0.4,0.4-0.8,0.8-0.8c0.5,0,0.8,0.4,0.8,0.8S4.8,8.4,4.3,8.4C3.8,8.4,3.5,8,3.5,7.6z"/>
	<path fill="black" d="M21.9,14.1c-0.2-0.2-0.4-0.2-0.6,0v0l-3.1,3.1l-1.5-1.5c-0.2-0.2-0.4-0.2-0.6,0c-0.2,0.2-0.2,0.4,0,0.6l1.8,1.8
		c0.1,0.1,0.2,0.1,0.3,0.1c0,0,0,0,0,0c0.1,0,0.2,0,0.3-0.1l3.4-3.4C22,14.6,22,14.3,21.9,14.1z"/>
	<path fill="black" d="M21,11.4v-7c0-0.1,0-0.1,0-0.2c0-0.1-0.1-0.1-0.1-0.1c0,0-0.1-0.1-0.1-0.1c-0.1,0-0.1,0-0.2,0H1.5C1.4,4,1.3,4,1.3,4
		c-0.1,0-0.1,0.1-0.1,0.1c0,0-0.1,0.1-0.1,0.1c0,0.1,0,0.1,0,0.2v12.3c0,0.1,0,0.1,0,0.2c0,0.1,0.1,0.1,0.1,0.1c0,0,0.1,0.1,0.1,0.1
		c0.1,0,0.1,0,0.2,0h12.7c0.6,2.2,2.5,3.8,4.8,3.8c2.8,0,5-2.2,5-5C24,14,22.8,12.2,21,11.4z M1.9,4.9h18.2l0,0v6.2
		C19.7,11,19.4,11,19,11c-0.6,0-1.1,0.1-1.7,0.3l-2.1-3c0-0.1-0.1-0.1-0.2-0.1c-0.1,0-0.1-0.1-0.2-0.1c-0.1,0-0.1,0-0.2,0.1
		c-0.1,0-0.1,0.1-0.2,0.1l-2.9,4.1v0l-1.5,2.1l-1-1.4l0,0L6.7,9.6c0-0.1-0.1-0.1-0.2-0.1S6.4,9.5,6.3,9.5s-0.1,0-0.2,0.1
		C6,9.5,6,9.6,5.9,9.6l-2.4,3.4c0,0,0,0,0,0l-1.6,2.3V4.9z M14,16.3H2.3l1.9-2.7h0l2.1-2.9l2.1,2.9l1.3,1.9c0,0.1,0.1,0.1,0.2,0.1
		c0.1,0,0.1,0.1,0.2,0.1c0.1,0,0.1,0,0.2-0.1c0.1,0,0.1-0.1,0.2-0.1l1.9-2.6l2.5-3.5l0,0l1.7,2.4C15,12.6,14,14.2,14,16
		C14,16.1,14,16.2,14,16.3z M21.8,18.8C21.1,19.6,20.1,20,19,20c-1.1,0-2.1-0.4-2.8-1.2C15.4,18.1,15,17.1,15,16
		c0-1.1,0.4-2.1,1.2-2.8c0.7-0.7,1.7-1.2,2.8-1.2c1.1,0,2.1,0.4,2.8,1.2c0.7,0.7,1.2,1.7,1.2,2.8C23,17.1,22.6,18.1,21.8,18.8z"/>
</svg>
