<?xml version="1.0" encoding="utf-8"?>
<!-- Generator: Adobe Illustrator 27.5.0, SVG Export Plug-In . SVG Version: 6.00 Build 0)  -->
<svg version="1.1" id="Layer_1" xmlns="http://www.w3.org/2000/svg" xmlns:xlink="http://www.w3.org/1999/xlink" x="0px" y="0px"
	 viewBox="0 0 99 30" style="enable-background:new 0 0 99 30;" xml:space="preserve">
<style type="text/css">
	.st0{clip-path:url(#SVGID_00000023980284824885839490000015992391252251607953_);}
	.st1{fill:#FFFFFF;}
</style>
<g>
	<g>
		<defs>
			<rect id="SVGID_1_" width="66" height="20"/>
		</defs>
		<clipPath id="SVGID_00000148635448619048999080000007218024007852694917_">
			<use xlink:href="#SVGID_1_"  style="overflow:visible;"/>
		</clipPath>
		<g style="clip-path:url(#SVGID_00000148635448619048999080000007218024007852694917_);">
			<path class="st1" d="M8.4,0c1.2,0,2.4,0.2,3.5,0.6s2,1,2.8,1.8s1.5,1.8,1.9,3s0.7,2.6,0.7,4.3c0,1.5-0.2,2.8-0.6,4
				S15.8,16,15,16.9c-0.8,0.9-1.7,1.6-2.8,2.1s-2.4,0.8-3.9,0.8H0V0H8.4z M8.2,16.1c0.6,0,1.2-0.1,1.8-0.3s1.1-0.6,1.6-1
				c0.5-0.5,0.8-1.1,1.1-1.9c0.3-0.8,0.4-1.7,0.4-2.8c0-1-0.1-1.9-0.3-2.7s-0.5-1.5-1-2.1c-0.4-0.6-1-1-1.7-1.3
				C9.4,3.8,8.5,3.6,7.4,3.6H4.3v12.5H8.2L8.2,16.1z"/>
			<path class="st1" d="M53.7,0.2l8.2,13.3H62V0.2h4V20h-4.3L53.5,6.7h-0.1v13.2h-4V0.2H53.7z"/>
			<path class="st1" d="M41.6,19.7L34.2,0l-2.1,5.7l5.3,14H41.6z"/>
		</g>
	</g>
</g>
</svg>
