<?xml version="1.0" encoding="utf-8"?>
<svg viewBox="0 0 104 26" fill="none" xmlns="http://www.w3.org/2000/svg">
<path d="M0 0.5V5.74992H6.55673V25.5H12.3462V5.74992H18.9029V0.5H0Z" fill="white"/>
<path d="M67.2636 0.5L63.0782 15.8522H63.0087L59.2422 0.5H53.1039L49.2674 15.8522H49.1979L45.0126 0.5H38.8047L46.5472 25.5H51.8832L56.208 9.05624H56.2426L60.3929 25.5H65.729L73.4714 0.5H67.2636Z" fill="white"/>
<path d="M80.5974 7.61286H80.6673L83.3876 16.0283H77.912L80.5974 7.61286ZM77.8421 0.500955L68.7745 25.501H74.8779L76.3075 21.029H84.9917L86.4572 25.501H92.5606L83.4221 0.500001L77.8421 0.500955Z" fill="white"/>
<path d="M33.6847 17.7184C33.6847 16.1691 32.5336 15.0775 30.0227 15.0775H26.6746V20.3594H30.0227C32.1851 20.3594 33.6847 19.4788 33.6847 17.7184ZM26.6746 10.4633H29.4299C31.1734 10.4633 32.5685 9.65192 32.5685 8.06916C32.5685 6.66062 31.5573 5.6745 29.2204 5.6745H26.6746V10.4633ZM39.7531 18.5265C39.7531 22.5407 37.1373 25.4986 31.8362 25.4986H20.9552V0.500001H30.3016C35.8122 0.500001 38.4625 2.75337 38.4625 6.59141C38.5127 7.77675 38.1929 8.94807 37.5482 9.94C36.9035 10.9319 35.9665 11.6943 34.8695 12.1196V12.1902C38.2176 13.1057 39.7522 15.4297 39.7522 18.528" fill="white"/>
</svg>
