<?xml version="1.0" encoding="utf-8"?>
<!-- Generator: Adobe Illustrator 26.2.1, SVG Export Plug-In . SVG Version: 6.00 Build 0)  -->
<svg version="1.1" xmlns="http://www.w3.org/2000/svg" xmlns:xlink="http://www.w3.org/1999/xlink" x="0px" y="0px"
	 viewBox="0 0 24 32" style="enable-background:new 0 0 24 32;" xml:space="preserve">
<style type="text/css">
	.st0{fill-rule:evenodd;clip-rule:evenodd;fill:#FFFFFF;}
</style>
<path class="st0" d="M12,25c5,0,9-4,9-9s-4-9-9-9s-9,4-9,9S7,25,12,25z M12,28c6.6,0,12-5.4,12-12S18.6,4,12,4S0,9.4,0,16
	S5.4,28,12,28z M15.4,10.5l2.1,2.1L14.1,16l3.4,3.4l-2.1,2.1L12,18.1l-3.4,3.4l-2.1-2.1L9.9,16l-3.4-3.4l2.1-2.1l3.4,3.4L15.4,10.5z
	"/>
</svg>
