<svg width="24" height="24" viewBox="0 0 24 24" fill="none" xmlns="http://www.w3.org/2000/svg">
<path d="M21.469 5.59484H20.6319V4.73324C20.6289 3.88998 19.9476 3.20869 19.1043 3.20568H18.3651V2.52756C18.3621 1.68429 17.6808 1.00322 16.8375 1H2.52756C1.68429 1.0032 1.003 1.68451 1 2.52756V16.8806C1.0032 17.7236 1.68429 18.4049 2.52756 18.4082H2.79949V19.0863C2.80268 19.9293 3.48378 20.6106 4.32704 20.6138H4.74857V21.4724C4.75156 22.3157 5.43286 22.9968 6.27613 23H21.4693C22.3124 22.997 22.9937 22.3157 22.9969 21.4724V7.12267C22.9939 6.2794 22.3126 5.59811 21.4693 5.59511L21.469 5.59484ZM2.31015 17.0974C2.25219 17.0392 2.2215 16.9659 2.21852 16.8834V2.52762C2.21852 2.44515 2.25219 2.37183 2.31015 2.31366C2.36812 2.25569 2.44164 2.225 2.52412 2.22202H16.8313C16.9138 2.22202 16.9871 2.25569 17.0453 2.31366C17.1035 2.37162 17.1339 2.44515 17.1369 2.52762V16.8807C17.1369 16.9631 17.1035 17.0364 17.0453 17.0946C16.9871 17.1528 16.9138 17.1833 16.8313 17.1863H2.52739C2.44492 17.1863 2.3716 17.1558 2.31044 17.0976L2.31015 17.0974ZM4.10962 19.3033C4.05165 19.2451 4.02096 19.1718 4.01798 19.0893V18.408H16.8315C17.6745 18.405 18.3558 17.7237 18.359 16.8804V4.42757H19.0983C19.1808 4.42757 19.2541 4.46124 19.3123 4.51921C19.3704 4.57718 19.4009 4.6507 19.4039 4.73317V19.0862C19.4039 19.1687 19.3704 19.242 19.3123 19.3002C19.2541 19.3584 19.1808 19.3888 19.0983 19.3918H4.32682C4.24435 19.3918 4.16805 19.3584 4.10987 19.3032L4.10962 19.3033ZM21.7742 21.4725C21.7742 21.555 21.7407 21.6283 21.6826 21.6865C21.6244 21.7446 21.5511 21.7751 21.4686 21.7781H6.27539C6.19292 21.7781 6.11961 21.7446 6.06143 21.6865C6.00325 21.6283 5.97277 21.555 5.96979 21.4725V20.6139H19.1008C19.9441 20.6109 20.6251 19.9296 20.6283 19.0863V6.81732H21.4654C21.5479 6.81732 21.6212 6.85078 21.6794 6.90896C21.7376 6.96714 21.7681 7.04045 21.771 7.12292V21.4727L21.7742 21.4725Z" fill="black"/>
</svg>
