<svg width="24" height="24" viewBox="0 0 24 24" fill="none" xmlns="http://www.w3.org/2000/svg">
<path fill-rule="evenodd" clip-rule="evenodd" d="M6.07697 4.42301V18.8078C6.07697 19.0413 6.26643 19.2308 6.50015 19.2308H17.4997C17.7335 19.2308 17.9229 19.0413 17.9229 18.8078V4.42301C17.9229 4.18946 17.7335 4 17.4997 4H6.50015C6.26643 4 6.07697 4.18946 6.07697 4.42301ZM6.92317 4.8462H17.0769V18.3842H6.92317V4.8462ZM1 17.9613C1 18.195 1.18946 18.3843 1.42319 18.3843C1.65674 18.3843 1.8462 18.195 1.8462 17.9613V5.26912C1.8462 5.0354 1.65674 4.84611 1.42319 4.84611C1.18946 4.84611 1 5.0354 1 5.26912V17.9613ZM22.1538 17.9613C22.1538 18.195 22.3433 18.3843 22.5768 18.3843C22.8105 18.3843 23 18.195 23 17.9613V5.26912C23 5.0354 22.8105 4.84611 22.5768 4.84611C22.3433 4.84611 22.1538 5.0354 22.1538 5.26912V17.9613ZM20.4616 5.93954V17.2927L19.3815 16.7365C19.1725 16.632 18.9184 16.7169 18.8139 16.9258C18.7093 17.1347 18.7941 17.3888 19.003 17.4933L20.6953 18.3395C20.9766 18.4801 21.3076 18.2756 21.3076 17.9611V5.26895C21.3076 4.95448 20.9766 4.74997 20.6953 4.89055L19.003 5.73676C18.7941 5.84123 18.7093 6.09532 18.8139 6.30428C18.9184 6.51322 19.1725 6.59804 19.3815 6.49357L20.4616 5.93954ZM3.53835 5.93954V17.2927L4.61827 16.7365C4.82739 16.632 5.08149 16.7169 5.18593 16.9258C5.2904 17.1347 5.20576 17.3888 4.99664 17.4933L3.30441 18.3395C3.02305 18.4801 2.6921 18.2756 2.6921 17.9611V5.26895C2.6921 4.95448 3.02304 4.74997 3.30441 4.89055L4.99664 5.73676C5.20576 5.84123 5.2904 6.09532 5.18593 6.30428C5.08146 6.51322 4.82737 6.59804 4.61827 6.49357L3.53835 5.93954Z" fill="black"/>
</svg>
