<?xml version="1.0" encoding="utf-8"?>
<!-- Generator: Adobe Illustrator 26.2.1, SVG Export Plug-In . SVG Version: 6.00 Build 0)  -->
<svg version="1.1" width="24" height="24" xmlns="http://www.w3.org/2000/svg" xmlns:xlink="http://www.w3.org/1999/xlink" x="0px" y="0px"
	 viewBox="0 0 24 24" style="enable-background:new 0 0 24 24;" xml:space="preserve">
<g>
	<polygon points="21.5,22 20.5,22 20.5,23 22.5,23 22.5,21 21.5,21 	"/>
	<rect x="15.5" y="22" width="3" height="1"/>
	<rect x="5.5" y="22" width="3" height="1"/>
	<rect x="10.5" y="22" width="3" height="1"/>
	<polygon points="2.5,21 1.5,21 1.5,23 3.5,23 3.5,22 2.5,22 	"/>
	<rect x="1.5" y="16.7" width="1" height="2.6"/>
	<polygon points="1.5,15 2.5,15 2.5,14 3.5,14 3.5,13 1.5,13 	"/>
	<rect x="10.5" y="13" width="3" height="1"/>
	<rect x="15.5" y="13" width="3" height="1"/>
	<rect x="5.5" y="13" width="3" height="1"/>
	<polygon points="20.5,14 21.5,14 21.5,15 22.5,15 22.5,13 20.5,13 	"/>
	<rect x="21.5" y="16.7" width="1" height="2.6"/>
	<polygon points="22.5,3 22.5,1 20.5,1 20.5,2 18.5,2 18.5,1 15.5,1 15.5,2 13.5,2 13.5,1 10.5,1 10.5,2 8.5,2 8.5,1 5.5,1 5.5,2 
		3.5,2 3.5,1 1.5,1 1.5,3 2.5,3 2.5,4.7 1.5,4.7 1.5,7.3 2.5,7.3 2.5,9 1.5,9 1.5,11 3.5,11 3.5,10 5.5,10 5.5,11 8.5,11 8.5,10 
		10.5,10 10.5,11 13.5,11 13.5,10 15.5,10 15.5,11 18.5,11 18.5,10 20.5,10 20.5,11 22.5,11 22.5,9 21.5,9 21.5,7.3 22.5,7.3 
		22.5,4.7 21.5,4.7 21.5,3 	"/>
</g>
</svg>
