<?xml version="1.0" encoding="utf-8"?>
<svg version="1.1" xmlns="http://www.w3.org/2000/svg" xmlns:xlink="http://www.w3.org/1999/xlink" x="0px" y="0px"
	 viewBox="0 0 24 24" style="enable-background:new 0 0 24 24;" xml:space="preserve">
	<path d="M12,2.5c3.1,0,3.5,0,4.7,0.1c1.1,0.1,1.8,0.2,2.2,0.4c0.5,0.2,0.9,0.5,1.3,0.9c0.4,0.4,0.7,0.8,0.9,1.3
		c0.2,0.4,0.3,1,0.4,2.2c0.1,1.2,0.1,1.6,0.1,4.7s0,3.5-0.1,4.7c-0.1,1.1-0.2,1.8-0.4,2.2c-0.2,0.5-0.5,0.9-0.9,1.3
		c-0.4,0.4-0.8,0.7-1.3,0.9c-0.4,0.2-1,0.3-2.2,0.4c-1.2,0.1-1.6,0.1-4.7,0.1c-3.1,0-3.5,0-4.7-0.1c-1.1-0.1-1.8-0.2-2.2-0.4
		c-0.5-0.2-0.9-0.5-1.3-0.9c-0.4-0.4-0.7-0.8-0.9-1.3c-0.2-0.4-0.3-1-0.4-2.2c-0.1-1.2-0.1-1.6-0.1-4.7s0-3.5,0.1-4.7
		c0.1-1.1,0.2-1.8,0.4-2.2c0.2-0.5,0.5-0.9,0.9-1.3c0.4-0.4,0.8-0.7,1.3-0.9c0.4-0.2,1-0.3,2.2-0.4C8.5,2.5,8.9,2.5,12,2.5z M12,0.4
		c-3.2,0-3.6,0-4.8,0.1C6,0.5,5.1,0.7,4.4,1C3.6,1.3,3,1.7,2.3,2.3C1.7,3,1.3,3.6,1,4.4C0.7,5.1,0.5,6,0.4,7.2
		C0.4,8.4,0.4,8.8,0.4,12s0,3.6,0.1,4.8C0.5,18,0.7,18.9,1,19.6c0.3,0.8,0.7,1.4,1.3,2.1s1.3,1,2.1,1.3c0.7,0.3,1.6,0.5,2.8,0.5
		c1.2,0.1,1.6,0.1,4.8,0.1s3.6,0,4.8-0.1c1.2-0.1,2.1-0.3,2.8-0.5c0.8-0.3,1.4-0.7,2.1-1.3c0.6-0.6,1-1.3,1.3-2.1
		c0.3-0.7,0.5-1.6,0.5-2.8c0.1-1.2,0.1-1.6,0.1-4.8s0-3.6-0.1-4.8C23.5,6,23.3,5.1,23,4.4c-0.3-0.8-0.7-1.4-1.3-2.1
		c-0.6-0.6-1.3-1-2.1-1.3c-0.7-0.3-1.6-0.5-2.8-0.5C15.6,0.4,15.2,0.4,12,0.4z M12,6c-3.3,0-6,2.7-6,6s2.7,6,6,6s6-2.7,6-6
		S15.3,6,12,6z M12,15.9c-2.1,0-3.9-1.7-3.9-3.9S9.9,8.1,12,8.1s3.9,1.7,3.9,3.9S14.1,15.9,12,15.9z M19.6,5.8
		c0,0.8-0.6,1.4-1.4,1.4s-1.4-0.6-1.4-1.4c0-0.8,0.6-1.4,1.4-1.4S19.6,5,19.6,5.8z"/>
</svg>
