<?xml version="1.0" encoding="utf-8"?>
<!-- Generator: Adobe Illustrator 27.3.1, SVG Export Plug-In . SVG Version: 6.00 Build 0)  -->
<svg version="1.1" id="Layer_2_00000038395286281887031440000011505354936913423548_"
	 xmlns="http://www.w3.org/2000/svg" xmlns:xlink="http://www.w3.org/1999/xlink" x="0px" y="0px" viewBox="0 0 24 24"
	 style="enable-background:new 0 0 24 24;" xml:space="preserve">
<style type="text/css">
	.st0{fill-rule:evenodd;clip-rule:evenodd;}
</style>
<g>
	<path class="st0" d="M19.1,14.4c-0.5,0-1-0.4-1-1s0.4-1,1-1s1,0.4,1,1C20.1,13.9,19.6,14.4,19.1,14.4 M14.4,14.4c-0.5,0-1-0.4-1-1
		s0.4-1,1-1s1,0.4,1,1C15.4,13.9,14.9,14.4,14.4,14.4 M21.4,19.7c1.5-1.1,2.4-2.7,2.4-4.4c0-3.2-3.1-5.8-7-5.8s-7,2.6-7,5.8
		s3.1,5.8,7,5.8c0.8,0,1.6-0.1,2.3-0.3c0.1,0,0.1,0,0.2,0s0.3,0.1,0.4,0.1l1.5,0.9c0.1,0,0.1,0.1,0.1,0.1c0.1,0,0.2-0.1,0.2-0.2l0,0
		c0-0.1,0-0.1,0-0.2c0,0-0.2-0.7-0.3-1.2c0-0.1,0-0.1,0-0.2C21.2,19.9,21.2,19.8,21.4,19.7"/>
	<path class="st0" d="M11.6,8.8c-0.6,0-1.1-0.5-1.1-1.1s0.5-1.1,1.1-1.1s1.1,0.5,1.1,1.1S12.2,8.8,11.6,8.8 M6,8.8
		c-0.6,0-1.1-0.5-1.1-1.1S5.4,6.6,6,6.6s1.1,0.5,1.1,1.1S6.6,8.8,6,8.8 M8.9,3c-4.6,0-8.4,3.1-8.4,7c0,2.1,1.1,4,2.9,5.3
		c0.1,0.1,0.2,0.3,0.2,0.5c0,0.1,0,0.1,0,0.2c-0.1,0.4-0.4,1.3-0.4,1.3c0,0.1-0.1,0.1-0.1,0.2c0,0.2,0.1,0.3,0.3,0.3
		c0.1,0,0.1,0,0.2-0.1l1.9-1.1c0.1,0,0.2,0,0.4,0c0.1,0,0.2,0,0.2,0C7,16.8,7.9,17,8.8,17h0.5C9.1,16.5,9,15.9,9,15.3
		c0-3.5,3.4-6.4,7.7-6.4h0.5C16.6,5.5,13.1,3,8.9,3"/>
</g>
</svg>
