<svg width="24" height="24" viewBox="0 0 24 24" fill="none" xmlns="http://www.w3.org/2000/svg">
<path d="M20.7995 3.20039V20.8002H21.8994C22.2923 20.8002 22.6555 21.0097 22.852 21.35C23.0485 21.6903 23.0485 22.1098 22.852 22.4501C22.6555 22.7905 22.2924 23 21.8994 23H17.4996C17.1066 23 16.7435 22.7904 16.547 22.4501C16.3505 22.1098 16.3505 21.6904 16.547 21.35C16.7435 21.0097 17.1066 20.8002 17.4996 20.8002H18.5995V13.1001H5.39986V20.7997L6.49976 20.7999C6.89273 20.7999 7.25587 21.0095 7.45235 21.3498C7.64884 21.6901 7.64884 22.1095 7.45235 22.4499C7.25587 22.7902 6.89273 22.9997 6.49976 22.9997H2.09995C1.70699 22.9997 1.34385 22.7902 1.14736 22.4499C0.950879 22.1096 0.950879 21.6901 1.14736 21.3498C1.34385 21.0094 1.70698 20.7999 2.09995 20.7999H3.19986V3.2001H2.09995C1.70699 3.2001 1.34385 2.99054 1.14736 2.65024C0.950879 2.30994 0.950879 1.89046 1.14736 1.55015C1.34385 1.20983 1.70698 1.00029 2.09995 1.00029H6.49976C6.89273 1.00029 7.25587 1.20985 7.45235 1.55015C7.64884 1.89045 7.64884 2.30992 7.45235 2.65024C7.25587 2.99054 6.89273 3.2001 6.49976 3.2001H5.39986V10.8997L18.5995 10.8999V3.19981H17.4996C17.1066 3.19981 16.7435 2.99025 16.547 2.64995C16.3505 2.30965 16.3505 1.89017 16.547 1.54986C16.7435 1.20955 17.1066 1 17.4996 1H21.8994C22.2923 1 22.6555 1.20956 22.852 1.54986C23.0485 1.89016 23.0485 2.30964 22.852 2.64995C22.6555 2.99027 22.2924 3.19981 21.8994 3.19981L20.7995 3.20039Z" fill="black"/>
</svg>
