<svg width="24" height="24" viewBox="0 0 24 24" fill="none" xmlns="http://www.w3.org/2000/svg">
<path fill-rule="evenodd" clip-rule="evenodd" d="M1 5.65008C1 4.73893 1.73813 4 2.65352 4H21.3465C22.2596 4 23 4.74044 23 5.65008C23 6.56124 22.2619 7.30017 21.3465 7.30017H2.65352C1.74044 7.30017 1 6.55934 1 5.65008ZM1 12.2499C1 11.3388 1.73813 10.5998 2.65352 10.5998H21.3465C22.2596 10.5998 23 11.3407 23 12.2499C23 13.1611 22.2619 13.9 21.3465 13.9H2.65352C1.74044 13.9 1 13.1592 1 12.2499ZM1 18.8498C1 17.9386 1.73813 17.1997 2.65352 17.1997H21.3465C22.2596 17.1997 23 17.9405 23 18.8498C23 19.7609 22.2619 20.4999 21.3465 20.4999H2.65352C1.74044 20.4999 1 19.7594 1 18.8498Z" fill="black"/>
</svg>
