<svg width="24" height="24" viewBox="0 0 24 24" fill="none" xmlns="http://www.w3.org/2000/svg">
<path d="M18.0246 12.2436V1.44C18.0246 1.19643 17.8282 1 17.5846 1H5.72036C5.6025 1 5.4925 1.04714 5.41 1.12964L2.12964 4.41786C2.04714 4.50036 2 4.61429 2 4.72821V22.56C2 22.8036 2.19643 23 2.44 23H17.5807C17.8243 23 18.0207 22.8036 18.0207 22.56V20.3914C20.0754 20.1714 21.6782 18.4311 21.6782 16.3175C21.6821 14.2079 20.0754 12.4636 18.0246 12.2436ZM5.3 2.485V4.3H3.48893L5.3 2.485ZM2.88 22.12V5.18H5.74C5.98357 5.18 6.18 4.98357 6.18 4.74V1.88H17.1407V12.2436C15.0861 12.4636 13.4832 14.2079 13.4832 16.3175C13.4832 18.4271 15.09 20.1714 17.1446 20.3914V22.12H2.88ZM17.5846 19.535C15.8089 19.535 14.3671 18.0932 14.3671 16.3175C14.3671 14.5418 15.8089 13.1 17.5846 13.1C19.3604 13.1 20.8021 14.5418 20.8021 16.3175C20.8021 18.0932 19.3564 19.535 17.5846 19.535Z" fill="black"/>
<path d="M12.4343 11.5601H5.00934C4.76576 11.5601 4.56934 11.7565 4.56934 12.0001C4.56934 12.2436 4.76576 12.4401 5.00934 12.4401H12.4343C12.6779 12.4401 12.8743 12.2436 12.8743 12.0001C12.8743 11.7565 12.674 11.5601 12.4343 11.5601Z" fill="black"/>
<path d="M5.00934 15.0997H9.51934C9.76291 15.0997 9.95934 14.9033 9.95934 14.6597C9.95934 14.4162 9.76291 14.2197 9.51934 14.2197H5.00934C4.76576 14.2197 4.56934 14.4162 4.56934 14.6597C4.56934 14.9033 4.76576 15.0997 5.00934 15.0997Z" fill="black"/>
<path d="M11.2243 16.8752H5.00934C4.76576 16.8752 4.56934 17.0717 4.56934 17.3152C4.56934 17.5588 4.76576 17.7552 5.00934 17.7552H11.2243C11.4679 17.7552 11.6643 17.5588 11.6643 17.3152C11.6643 17.0717 11.464 16.8752 11.2243 16.8752Z" fill="black"/>
<path d="M10.0143 19.5349H5.00934C4.76576 19.5349 4.56934 19.7313 4.56934 19.9749C4.56934 20.2185 4.76576 20.4149 5.00934 20.4149H10.0143C10.2579 20.4149 10.4543 20.2185 10.4543 19.9749C10.4543 19.7313 10.254 19.5349 10.0143 19.5349Z" fill="black"/>
<path d="M19.3798 14.6715C19.3798 14.6165 19.3562 14.5655 19.3208 14.5301C19.2855 14.4948 19.2344 14.4712 19.1794 14.4712H17.7455C17.7298 14.4712 17.7219 14.4751 17.7101 14.4751C17.6748 14.479 17.6394 14.4987 17.6119 14.5262L15.4158 16.7262C15.3451 16.7969 15.3451 16.9108 15.4158 16.9776L16.8812 18.443C16.9519 18.5137 17.0658 18.5137 17.1326 18.443L19.3287 16.2469C19.3523 16.2233 19.364 16.1998 19.3719 16.1723C19.3758 16.1644 19.3758 16.1526 19.3758 16.1408C19.3758 16.1251 19.3758 16.1133 19.3758 16.0976V14.6715H19.3798ZM18.9555 15.2019C18.873 15.2844 18.7394 15.2844 18.6569 15.2019C18.5744 15.1194 18.5744 14.9858 18.6569 14.9033C18.7394 14.8208 18.873 14.8208 18.9555 14.9033C19.038 14.9858 19.038 15.1194 18.9555 15.2019Z" fill="black"/>
</svg>
