<svg width="24" height="24" viewBox="0 0 24 24" fill="none" xmlns="http://www.w3.org/2000/svg">
<path d="M5.27962 18.5016L7.14811 16.85C7.23372 16.7745 7.3444 16.7325 7.45898 16.7322H11.9837C12.0664 16.7331 12.1341 16.6673 12.1351 16.5853C12.1351 16.5841 12.1351 16.5832 12.1351 16.582V15.6392H13.0677V16.582C13.0651 17.1765 12.5798 17.6579 11.9805 17.6605H7.63477L5.14128 19.8642C4.95898 20.0452 4.66309 20.0453 4.48063 19.8643C4.39404 19.7786 4.34489 19.6625 4.34375 19.5413V17.6605H3.08887C2.48893 17.6587 2.0026 17.1771 2 16.582V9.6157C2.007 9.02239 2.49072 8.54338 3.08887 8.53725H9.05566V9.46555H3.08887C3.007 9.47023 2.94141 9.53465 2.93587 9.6157V16.582C2.9362 16.6217 2.95264 16.6595 2.98145 16.687C3.01042 16.7147 3.04867 16.7307 3.08887 16.7322H4.81087C5.06982 16.7322 5.27962 16.9403 5.27962 17.1971V18.5016ZM5.3138 15.3567L6.81771 10.8507H8.25488L9.75879 15.3567H8.56738L8.3151 14.5365H6.74447L6.4987 15.3567H5.3138V15.3567ZM7.01139 13.5953H8.04818L7.53385 11.75L7.01139 13.5953ZM14.4723 7.15528H15.8883V6.79365C15.8883 6.73214 15.9386 6.68225 16.0007 6.68225H16.7575C16.8187 6.68225 16.8682 6.73133 16.8682 6.79203V7.15528H18.4567C18.5179 7.15528 18.5674 7.20436 18.5674 7.26506V7.98672C18.5674 8.04742 18.5177 8.0965 18.4567 8.0965H18.2044C18.1711 8.30864 18.1216 8.5182 18.0563 8.72291V8.73259C17.9816 8.96362 17.8869 9.18771 17.7731 9.40259C17.6688 9.59422 17.5524 9.77908 17.4248 9.95634C17.3158 10.1178 17.1953 10.2631 17.0667 10.4132C17.2507 10.6338 17.4508 10.8404 17.6657 11.0316C17.9259 11.2534 18.203 11.4554 18.4941 11.6354C18.5457 11.6678 18.5612 11.7356 18.5285 11.7868V11.7871L18.1393 12.3893C18.1073 12.4419 18.0382 12.4591 17.9852 12.4272C17.9823 12.4255 17.9793 12.4235 17.9766 12.4216C17.6576 12.225 17.354 12.0047 17.0684 11.7629C16.8363 11.5574 16.6187 11.3362 16.4173 11.101C16.209 11.285 16.0218 11.4578 15.8346 11.6192C15.6133 11.8 15.3805 11.9744 15.1071 12.1617C15.0579 12.1993 14.9875 12.1902 14.9495 12.1415C14.9478 12.1391 14.946 12.1366 14.9443 12.1342L14.5326 11.5433C14.4946 11.4946 14.5037 11.4247 14.5529 11.3871C14.5553 11.3853 14.5578 11.3835 14.5602 11.3819C14.8304 11.1979 15.0485 11.0283 15.2699 10.8524C15.4587 10.6909 15.641 10.5295 15.8379 10.3422C15.6737 10.1117 15.5231 9.87175 15.387 9.62377C15.2319 9.32881 15.1092 9.01803 15.0208 8.69708C15.0042 8.6388 15.0382 8.57809 15.0972 8.56146H15.0973L15.7923 8.36934C15.8511 8.35288 15.9123 8.38662 15.929 8.44506C16.0409 8.87144 16.2295 9.27392 16.4857 9.63345L16.6924 9.359C16.7816 9.23065 16.8636 9.09746 16.9382 8.96023C17.0171 8.80928 17.0835 8.65203 17.1367 8.49043C17.1795 8.36111 17.2153 8.22953 17.2441 8.0965H14.4772C14.4159 8.0965 14.3657 8.04759 14.3649 7.98672V7.26022C14.3649 7.19871 14.4152 7.14882 14.4772 7.14882L14.4723 7.15528V7.15528ZM18.8669 16.3286L16.3652 14.1232H12.0163C11.417 14.1197 10.9318 13.6392 10.9274 13.0448V6.08006C10.93 5.79334 11.047 5.51937 11.2529 5.31805L11.2855 5.28899C11.484 5.10542 11.7448 5.00226 12.0163 5H20.9111C21.1997 5.00258 21.4754 5.11882 21.6777 5.32289L21.7087 5.35518C21.8942 5.55311 21.9982 5.81303 22 6.08329V13.0448C21.9956 13.6392 21.5104 14.1197 20.9111 14.1232H19.6579V15.9992C19.654 16.2559 19.4411 16.4611 19.1823 16.4572C19.0609 16.4554 18.9448 16.407 18.8587 16.3221L18.8669 16.3286ZM16.8535 13.3128L18.7204 14.9643V13.6599C18.7204 13.403 18.9302 13.1949 19.1891 13.1949H20.9111C20.951 13.1944 20.9891 13.1781 21.0169 13.1497C21.0464 13.1226 21.0635 13.0847 21.0641 13.0448V6.08006C21.0625 6.04584 21.05 6.01306 21.0283 5.98643L21.0169 5.96867C20.9886 5.94074 20.951 5.92411 20.9111 5.92185H12.0163C11.9826 5.92734 11.9517 5.9438 11.9284 5.96867H11.9105C11.8818 5.99627 11.8654 6.03405 11.8649 6.07361V13.0448C11.8639 13.1268 11.9303 13.1939 12.013 13.1949C12.0142 13.1949 12.0151 13.1949 12.0163 13.1949H16.5426C16.6574 13.1949 16.7681 13.2369 16.8535 13.3128V13.3128Z" fill="black"/>
</svg>
