<svg width="24" height="24" viewBox="0 0 24 24" fill="none" xmlns="http://www.w3.org/2000/svg">
<path d="M10.5643 3H3.90337C3.40542 3 3.00001 3.40541 3.00001 3.90336V10.5643C3.00001 11.0627 3.40542 11.4681 3.90337 11.4681H10.5643C11.0627 11.4681 11.4681 11.0627 11.4681 10.5643V3.90336C11.4681 3.40541 11.0627 3 10.5643 3ZM11.0965 10.5644C11.0965 10.858 10.8579 11.0966 10.5643 11.0966H3.90337C3.6102 11.0966 3.37161 10.858 3.37161 10.5644V3.90346C3.37161 3.61029 3.61021 3.3717 3.90337 3.3717H10.5643C10.8579 3.3717 11.0965 3.6103 11.0965 3.90346V10.5644Z" fill="black"/>
<path d="M20.0961 3H13.4351C12.9372 3 12.5317 3.40541 12.5317 3.90336V10.5643C12.5317 11.0627 12.9372 11.4681 13.4351 11.4681H20.0961C20.5944 11.4681 20.9998 11.0627 20.9998 10.5643V3.90336C20.9998 3.40541 20.5944 3 20.0961 3ZM20.6282 10.5644C20.6282 10.858 20.3893 11.0966 20.0961 11.0966H13.4351C13.1419 11.0966 12.9033 10.858 12.9033 10.5644V3.90346C12.9033 3.61029 13.142 3.3717 13.4351 3.3717H20.0961C20.3893 3.3717 20.6282 3.6103 20.6282 3.90346V10.5644Z" fill="black"/>
<path d="M10.5643 12.5321H3.90336C3.40541 12.5321 3 12.9375 3 13.4354V20.0964C3 20.5948 3.40541 21.0001 3.90336 21.0001H10.5643C11.0627 21.0001 11.4681 20.5947 11.4681 20.0964V13.4351C11.4681 12.9372 11.0627 12.5321 10.5643 12.5321ZM11.0965 20.0962C11.0965 20.3894 10.8579 20.6283 10.5643 20.6283H3.90336C3.6102 20.6283 3.3716 20.3894 3.3716 20.0962V13.4352C3.3716 13.142 3.61021 12.9034 3.90336 12.9034H10.5643C10.8579 12.9034 11.0965 13.142 11.0965 13.4352V20.0962Z" fill="black"/>
<path d="M20.0961 12.5321H13.4351C12.9372 12.5321 12.5317 12.9375 12.5317 13.4354V20.0964C12.5317 20.5948 12.9372 21.0001 13.4351 21.0001H20.0961C20.5944 21.0001 20.9998 20.5947 20.9998 20.0964V13.4351C20.9998 12.9372 20.5944 12.5321 20.0961 12.5321ZM20.6282 20.0962C20.6282 20.3894 20.3893 20.6283 20.0961 20.6283H13.4351C13.1419 20.6283 12.9033 20.3894 12.9033 20.0962V13.4352C12.9033 13.142 13.142 12.9034 13.4351 12.9034H20.0961C20.3893 12.9034 20.6282 13.142 20.6282 13.4352V20.0962Z" fill="black"/>
</svg>
