<?xml version="1.0" encoding="utf-8"?>
<svg version="1.1" width="24" height="24" xmlns="http://www.w3.org/2000/svg" xmlns:xlink="http://www.w3.org/1999/xlink" x="0px" y="0px"
	 viewBox="0 0 24 24" style="enable-background:new 0 0 24 24;" xml:space="preserve">
<polygon points="22.5,7 22.5,5 20.5,5 20.5,6 18.5,6 18.5,5 15.5,5 15.5,6 13.5,6 13.5,5 10.5,5 10.5,6 8.5,6 8.5,5 5.5,5 5.5,6 
	3.5,6 3.5,5 1.5,5 1.5,7 2.5,7 2.5,8.7 1.5,8.7 1.5,11.3 2.5,11.3 2.5,12.7 1.5,12.7 1.5,15.3 2.5,15.3 2.5,17 1.5,17 1.5,19 
	3.5,19 3.5,18 5.5,18 5.5,19 8.5,19 8.5,18 10.5,18 10.5,19 13.5,19 13.5,18 15.5,18 15.5,19 18.5,19 18.5,18 20.5,18 20.5,19 
	22.5,19 22.5,17 21.5,17 21.5,15.3 22.5,15.3 22.5,12.7 21.5,12.7 21.5,11.3 22.5,11.3 22.5,8.7 21.5,8.7 21.5,7 "/>
</svg>
