<svg width="24" height="24" viewBox="0 0 24 24" fill="none" xmlns="http://www.w3.org/2000/svg">
<path d="M15.7158 18.4955H3.58265C2.71007 18.4955 2.00017 17.7856 2.00017 16.913L2 9.60885C2 8.73626 2.7099 8.02637 3.58248 8.02637H15.7157C16.5883 8.02637 17.2982 8.73626 17.2982 9.60885V16.913C17.2982 17.7856 16.5883 18.4955 15.7157 18.4955H15.7158ZM3.58265 8.75661C3.11288 8.75661 2.73041 9.13891 2.73041 9.60885V16.913C2.73041 17.3828 3.11271 17.7653 3.58265 17.7653H15.7158C16.1856 17.7653 16.5681 17.383 16.5681 16.913V9.60885C16.5681 9.13908 16.1858 8.75661 15.7158 8.75661H3.58265Z" fill="black"/>
<path d="M21.4374 5.95701C21.4374 5.16524 20.881 4.50204 20.1388 4.33491L20.1387 1.58194C20.1387 1.38018 19.9753 1.2168 19.7735 1.2168C19.5718 1.2168 19.4084 1.38018 19.4084 1.58194V4.33491C18.6664 4.50203 18.1099 5.16524 18.1099 5.95701C18.1099 6.74877 18.6662 7.41197 19.4082 7.5791L19.4084 22.5131C19.4084 22.7149 19.5718 22.8782 19.7735 22.8782C19.9753 22.8782 20.1387 22.7149 20.1387 22.5131V7.5791C20.8808 7.41198 21.4374 6.74877 21.4374 5.95701ZM19.7735 6.89042C19.2589 6.89042 18.8403 6.47178 18.8403 5.95701C18.8403 5.44241 19.2589 5.02359 19.7735 5.02359C20.2881 5.02359 20.7069 5.4424 20.7069 5.95701C20.7069 6.47161 20.2881 6.89042 19.7735 6.89042Z" fill="black"/>
<path d="M16.5681 1V4.73956C16.5681 5.20933 16.1858 5.5918 15.7159 5.5918H3.5827C3.11293 5.5918 2.73046 5.20951 2.73046 4.73956V1H2V4.73956C2 5.61215 2.7099 6.32205 3.58248 6.32205H15.7157C16.5883 6.32205 17.2982 5.61215 17.2982 4.73956V1H16.5681Z" fill="black"/>
<path d="M2.73051 23.0001V22.0263C2.73051 21.5565 3.11281 21.174 3.58276 21.174H15.7159C16.1857 21.174 16.5682 21.5563 16.5682 22.0263V23.0001H17.2986V22.0263C17.2986 21.1537 16.5888 20.4438 15.7162 20.4438L3.58297 20.4436C2.71038 20.4436 2.00049 21.1535 2.00049 22.0261V22.9999L2.73051 23.0001Z" fill="black"/>
</svg>
