<svg width="24" height="24" viewBox="0 0 24 24" fill="none" xmlns="http://www.w3.org/2000/svg">
<path d="M21.8767 3.0518C21.762 2.98656 2.48722 3.00147 2.48722 3.00147C2.09297 3.00182 1.71503 3.15861 1.43617 3.43746C1.15732 3.71614 1.00053 4.09409 1 4.48834V19.657C1.00053 20.0513 1.15732 20.4292 1.43617 20.7079C1.71503 20.9867 2.09298 21.1435 2.48722 21.1439H21.5126C21.9069 21.1435 22.285 20.9867 22.5638 20.708C22.8427 20.4292 22.9995 20.0512 23 19.657V4.48833C22.9989 4.15809 22.8881 3.83768 22.6847 3.57758C22.4812 3.31732 22.1969 3.13229 21.8767 3.05179L21.8767 3.0518ZM22.2143 7.05312H18.5927L21.7974 3.84873C21.9213 3.90363 22.0267 3.99325 22.1005 4.1069C22.1745 4.22037 22.2142 4.35296 22.2143 4.48835L22.2143 7.05312ZM13.176 7.05312L16.4416 3.78718H20.7481L17.4818 7.05312H13.176ZM7.75863 7.05312L11.0248 3.78718H15.3307L12.0649 7.05312H7.75863ZM2.34129 7.05312L5.60723 3.78718H9.91354L6.64742 7.05312H2.34129ZM2.4872 3.78718H4.49619L1.78586 6.49751V4.48835C1.78603 4.30244 1.86004 4.12425 1.99158 3.99272C2.12311 3.86118 2.30147 3.78735 2.48738 3.78717L2.4872 3.78718ZM21.5126 20.3584H2.4872C2.3013 20.3583 2.12293 20.2844 1.9914 20.1529C1.85986 20.0214 1.78585 19.8432 1.78568 19.6573V7.83887H22.2141V19.6573C22.2139 19.8432 22.1399 20.0215 22.0084 20.1531C21.8767 20.2844 21.6985 20.3584 21.5124 20.3584L21.5126 20.3584Z" fill="black"/>
<path d="M15.601 13.1978L11.123 9.94377C10.4751 9.43041 9.32027 9.88414 9.34411 10.7472V17.2556C9.32219 18.1169 10.4702 18.5732 11.123 18.0588L15.601 14.8047C15.8627 14.6209 16.0182 14.3211 16.0182 14.0014C16.0182 13.6815 15.8627 13.3818 15.601 13.1979V13.1978ZM15.1391 14.1693L10.6614 17.4229C10.4638 17.5573 10.1614 17.4926 10.1298 17.2553V10.7469C10.166 10.493 10.4804 10.4553 10.6612 10.5789L15.1392 13.8334H15.1391C15.199 13.868 15.2359 13.932 15.2359 14.0013C15.2359 14.0704 15.199 14.1344 15.1391 14.1691L15.1391 14.1693Z" fill="black"/>
</svg>
