<svg width="24" height="24" viewBox="0 0 24 24" fill="none" xmlns="http://www.w3.org/2000/svg">
<path fill-rule="evenodd" clip-rule="evenodd" d="M20.7244 9C20.7783 9 20.8322 9.01078 20.8821 9.03134C20.932 9.05204 20.9777 9.08252 21.0158 9.12076C21.0539 9.15886 21.0845 9.20457 21.1051 9.25446C21.1258 9.30435 21.1364 9.35826 21.1364 9.41217V20.5878C21.1364 20.6417 21.1256 20.6957 21.1051 20.7455C21.0844 20.7954 21.0539 20.8411 21.0158 20.8792C20.9776 20.9175 20.932 20.948 20.8821 20.9687C20.8322 20.9894 20.7783 21 20.7244 21H3.41217C3.35826 21 3.30435 20.9892 3.25446 20.9687C3.20457 20.948 3.15886 20.9175 3.12076 20.8792C3.08266 20.8411 3.05204 20.7954 3.03148 20.7455C3.01064 20.6957 3 20.6417 3 20.5878V9.41217C3 9.35826 3.01078 9.30435 3.03134 9.25446C3.05204 9.20457 3.08252 9.15886 3.12062 9.12076C3.15886 9.08266 3.20443 9.05204 3.25432 9.03134C3.3042 9.01064 3.35811 9 3.41203 9H20.7244ZM20.3122 9.82432H3.8244V19.2986L5.2481 17.2387C5.2491 17.2367 5.25011 17.2359 5.25126 17.2341L7.46332 14.1217C7.50127 14.0683 7.55216 14.0242 7.61024 13.9942C7.66847 13.9641 7.73388 13.9483 7.79929 13.9483C7.8647 13.9483 7.93011 13.9643 7.98834 13.9943C8.04656 14.0244 8.09731 14.0685 8.13526 14.1218L10.3453 17.2344L11.2263 18.4765L12.5785 16.5723L15.1942 12.8903C15.2321 12.837 15.283 12.7928 15.3411 12.7628C15.3993 12.7328 15.4647 12.7169 15.5303 12.7169C15.5958 12.7169 15.6612 12.7329 15.7193 12.7629C15.7775 12.793 15.8283 12.8371 15.8662 12.8906L18.4799 16.5724C18.4813 16.5744 18.4826 16.5763 18.484 16.5784L20.312 19.2527L20.3122 9.82432ZM15.53 13.841L13.2505 17.0495L11.562 19.4273C11.5241 19.4807 11.4732 19.525 11.4149 19.555C11.3567 19.5851 11.2913 19.601 11.2258 19.6009C11.1602 19.6009 11.0948 19.5851 11.0366 19.5549C10.9783 19.5248 10.9275 19.4805 10.8896 19.4272L9.67285 17.7115L7.79891 15.0722L5.92596 17.7075L4.22022 20.1746H19.9444L17.8051 17.0449L15.5299 13.8398L15.53 13.841Z" fill="black"/>
<path fill-rule="evenodd" clip-rule="evenodd" d="M6.01598 10.6969C6.88244 10.6969 7.60772 11.3869 7.60772 12.2452C7.60772 13.1034 6.88244 13.7935 6.01598 13.7935C5.15096 13.7935 4.42627 13.1034 4.42627 12.2452C4.42627 11.3869 5.15085 10.6969 6.01598 10.6969ZM6.01598 11.5212C5.58152 11.5212 5.25073 11.8494 5.25073 12.2452C5.25073 12.641 5.58153 12.9692 6.01598 12.9692C6.45317 12.9692 6.78326 12.641 6.78326 12.2452C6.78326 11.8494 6.45318 11.5212 6.01598 11.5212Z" fill="black"/>
<path d="M7.50002 3.50009V7.50004H7.75C7.83932 7.50004 7.92185 7.54767 7.96651 7.62501C8.01116 7.70235 8.01116 7.79769 7.96651 7.87503C7.92185 7.95238 7.83932 8 7.75 8H6.75002C6.6607 8 6.57817 7.95237 6.53351 7.87503C6.48886 7.79769 6.48886 7.70236 6.53351 7.62501C6.57817 7.54767 6.6607 7.50004 6.75002 7.50004H7V5.75002H4V7.49994L4.24998 7.49998C4.3393 7.49998 4.42183 7.5476 4.46649 7.62495C4.51115 7.70229 4.51115 7.79762 4.46649 7.87497C4.42183 7.95231 4.3393 7.99993 4.24998 7.99993H3.25C3.16068 7.99993 3.07815 7.95231 3.03349 7.87497C2.98884 7.79763 2.98884 7.70229 3.03349 7.62495C3.07815 7.5476 3.16068 7.49998 3.25 7.49998H3.49998V3.50002H3.25C3.16068 3.50002 3.07815 3.4524 3.03349 3.37505C2.98884 3.29771 2.98884 3.20238 3.03349 3.12503C3.07815 3.04769 3.16068 3.00007 3.25 3.00007H4.24998C4.3393 3.00007 4.42183 3.04769 4.46649 3.12503C4.51115 3.20238 4.51115 3.29771 4.46649 3.37505C4.42183 3.4524 4.3393 3.50002 4.24998 3.50002H4V5.24994L7 5.24998V3.49996H6.75002C6.6607 3.49996 6.57817 3.45233 6.53351 3.37499C6.48886 3.29765 6.48886 3.20231 6.53351 3.12497C6.57817 3.04763 6.6607 3 6.75002 3H7.75C7.83932 3 7.92185 3.04763 7.96651 3.12497C8.01116 3.20231 8.01116 3.29764 7.96651 3.37499C7.92185 3.45233 7.83932 3.49996 7.75 3.49996L7.50002 3.50009Z" fill="black"/>
</svg>
