<svg width="24" height="24" viewBox="0 0 24 24" fill="none" xmlns="http://www.w3.org/2000/svg">
<path d="M3.3457 10.2699L2.8457 9.4299L4.9857 8.0899H5.9857V14.9999H4.8257V9.3799L3.3457 10.2699Z" fill="black"/>
<path d="M10.8937 14.2499C11.2803 14.2499 11.597 14.1332 11.8437 13.8999C12.0903 13.6599 12.2137 13.3032 12.2137 12.8299C12.2137 12.4232 12.117 12.0932 11.9237 11.8399C11.737 11.5799 11.4203 11.4499 10.9737 11.4499C10.7803 11.4499 10.6003 11.4799 10.4337 11.5399C10.267 11.5932 10.1203 11.6799 9.99367 11.7999C9.87367 11.9199 9.78034 12.0699 9.71367 12.2499C9.64701 12.4232 9.62367 12.6299 9.64367 12.8699C9.64367 13.0499 9.67034 13.2232 9.72367 13.3899C9.77701 13.5566 9.85367 13.7032 9.95367 13.8299C10.0603 13.9566 10.1903 14.0599 10.3437 14.1399C10.497 14.2132 10.6803 14.2499 10.8937 14.2499ZM12.1437 9.6199C12.097 9.50657 12.0503 9.4099 12.0037 9.3299C11.9637 9.2499 11.9137 9.18324 11.8537 9.1299C11.7937 9.0699 11.7237 9.02324 11.6437 8.9899C11.5637 8.9499 11.467 8.9199 11.3537 8.8999C11.2203 8.87324 11.0637 8.8699 10.8837 8.8899C10.457 8.92324 10.1337 9.14324 9.91367 9.5499C9.69367 9.95657 9.57034 10.5332 9.54367 11.2799C9.75034 11.0266 9.99034 10.8399 10.2637 10.7199C10.5437 10.5999 10.8637 10.5366 11.2237 10.5299C11.577 10.5299 11.8837 10.5832 12.1437 10.6899C12.4103 10.7966 12.6303 10.9499 12.8037 11.1499C12.977 11.3499 13.107 11.5899 13.1937 11.8699C13.2803 12.1499 13.3237 12.4632 13.3237 12.8099C13.3237 13.1966 13.2603 13.5399 13.1337 13.8399C13.007 14.1332 12.8337 14.3799 12.6137 14.5799C12.3937 14.7799 12.137 14.9299 11.8437 15.0299C11.5503 15.1299 11.2337 15.1799 10.8937 15.1799C10.3937 15.1799 9.98367 15.0832 9.66367 14.8899C9.35034 14.6966 9.10034 14.4466 8.91367 14.1399C8.73367 13.8332 8.607 13.4932 8.53367 13.1199C8.467 12.7399 8.43367 12.3666 8.43367 11.9999C8.43367 11.2332 8.50367 10.5899 8.64367 10.0699C8.78367 9.54324 8.97367 9.1199 9.21367 8.7999C9.45367 8.4799 9.73367 8.2499 10.0537 8.1099C10.3803 7.9699 10.727 7.8999 11.0937 7.8999C11.7537 7.8999 12.247 8.03657 12.5737 8.3099C12.907 8.58324 13.127 9.00324 13.2337 9.5699L12.1837 9.7199L12.1437 9.6199Z" fill="black"/>
<path d="M15.5616 9.7999V11.1899H14.3516V9.7999H15.5616ZM15.5616 13.6099V14.9999H14.3516V13.6099H15.5616Z" fill="black"/>
<path d="M18.9261 11.6499C19.1128 11.6499 19.2861 11.6232 19.4461 11.5699C19.6061 11.5166 19.7461 11.4332 19.8661 11.3199C19.9861 11.1999 20.0794 11.0532 20.1461 10.8799C20.2128 10.6999 20.2461 10.4899 20.2461 10.2499C20.2394 10.0566 20.2061 9.87324 20.1461 9.6999C20.0928 9.52657 20.0128 9.37657 19.9061 9.2499C19.8061 9.11657 19.6794 9.01324 19.5261 8.9399C19.3728 8.86657 19.1961 8.8299 18.9961 8.8299C18.6028 8.8299 18.2828 8.95324 18.0361 9.1999C17.7961 9.4399 17.6761 9.7899 17.6761 10.2499C17.6761 10.4432 17.6961 10.6266 17.7361 10.7999C17.7828 10.9666 17.8528 11.1132 17.9461 11.2399C18.0461 11.3666 18.1761 11.4666 18.3361 11.5399C18.4961 11.6132 18.6928 11.6499 18.9261 11.6499ZM17.7861 13.3699C17.8461 13.6699 17.9561 13.8899 18.1161 14.0299C18.2828 14.1632 18.5528 14.2299 18.9261 14.2299C19.4194 14.2299 19.7761 14.0366 19.9961 13.6499C20.2161 13.2632 20.3294 12.6432 20.3361 11.7899C19.9228 12.3099 19.3661 12.5699 18.6661 12.5699C17.9528 12.5699 17.4194 12.3632 17.0661 11.9499C16.7194 11.5299 16.5461 10.9699 16.5461 10.2699C16.5461 9.92324 16.6028 9.60657 16.7161 9.3199C16.8294 9.02657 16.9928 8.77657 17.2061 8.5699C17.4194 8.35657 17.6761 8.19324 17.9761 8.0799C18.2761 7.9599 18.6161 7.8999 18.9961 7.8999C19.4961 7.8999 19.9028 8.00324 20.2161 8.2099C20.5361 8.41657 20.7861 8.6799 20.9661 8.9999C21.1528 9.3199 21.2794 9.67324 21.3461 10.0599C21.4194 10.4466 21.4561 10.8199 21.4561 11.1799C21.4561 11.9066 21.4028 12.5232 21.2961 13.0299C21.1894 13.5366 21.0294 13.9499 20.8161 14.2699C20.6094 14.5899 20.3494 14.8232 20.0361 14.9699C19.7294 15.1099 19.3694 15.1799 18.9561 15.1799C18.2494 15.1799 17.7094 15.0366 17.3361 14.7499C16.9628 14.4566 16.7494 13.9966 16.6961 13.3699H17.7861Z" fill="black"/>
</svg>
