<?xml version="1.0" encoding="utf-8"?>
<svg version="1.1" width="24" height="24" xmlns="http://www.w3.org/2000/svg" xmlns:xlink="http://www.w3.org/1999/xlink" x="0px" y="0px"
	 viewBox="0 0 24 24" style="enable-background:new 0 0 24 24;" xml:space="preserve">
<style type="text/css">
	.st0{fill-rule:evenodd;clip-rule:evenodd;}
</style>
<path class="st0" d="M1,10.6C1,10.2,1.2,10,1.5,10H3v1H2v11h18v-1h1v1.5c0,0.3-0.2,0.5-0.5,0.5H1.5C1.2,23,1,22.8,1,22.5V10.6z"/>
<path class="st0" d="M22.5,8c0.1,0,0.1,0,0.2,0c0.1,0,0.1,0.1,0.1,0.1c0,0,0.1,0.1,0.1,0.1c0,0.1,0,0.1,0,0.2v12.3
	c0,0.1,0,0.1,0,0.2c0,0.1-0.1,0.1-0.1,0.1c0,0-0.1,0.1-0.1,0.1c-0.1,0-0.1,0-0.2,0H3.5c-0.1,0-0.1,0-0.2,0c-0.1,0-0.1-0.1-0.1-0.1
	c0,0-0.1-0.1-0.1-0.1c0-0.1,0-0.1,0-0.2V8.5c0-0.1,0-0.1,0-0.2c0-0.1,0.1-0.1,0.1-0.1c0,0,0.1-0.1,0.1-0.1c0.1,0,0.1,0,0.2,0H22.5z
	 M22.1,8.9H3.9v10.4l1.6-2.3c0,0,0,0,0,0l2.4-3.4c0-0.1,0.1-0.1,0.2-0.1c0.1,0,0.1-0.1,0.2-0.1s0.1,0,0.2,0.1c0.1,0,0.1,0.1,0.2,0.1
	l3.4,4.8l4.4-6.2c0-0.1,0.1-0.1,0.2-0.1c0.1,0,0.1-0.1,0.2-0.1s0.1,0,0.2,0.1c0.1,0,0.1,0.1,0.2,0.1l2.9,4.1c0,0,0,0,0,0l2,2.9
	L22.1,8.9z M16.8,13.3l-4.4,6.2c0,0.1-0.1,0.1-0.2,0.1c-0.1,0-0.1,0.1-0.2,0.1c-0.1,0-0.1,0-0.2-0.1c-0.1,0-0.1-0.1-0.2-0.1
	l-3.4-4.8l-2.1,2.9l-1.9,2.7h17.3l-2.4-3.5L16.8,13.3L16.8,13.3z"/>
<path class="st0" d="M6.3,9.9c1,0,1.8,0.8,1.8,1.7c0,0.9-0.8,1.7-1.8,1.7c-1,0-1.8-0.8-1.8-1.7C4.6,10.6,5.4,9.9,6.3,9.9z M6.3,10.8
	c-0.5,0-0.8,0.4-0.8,0.8c0,0.4,0.4,0.8,0.8,0.8c0.5,0,0.8-0.4,0.8-0.8C7.2,11.1,6.8,10.8,6.3,10.8z"/>
<path d="M17.6,5V4h1.9V2h1v2h1.9v1h-1.9v2h-1V5H17.6z"/>
</svg>
