<svg width="24" height="24" viewBox="0 0 24 24" fill="none" xmlns="http://www.w3.org/2000/svg">
<path fill-rule="evenodd" clip-rule="evenodd" d="M18.182 11.6392C18.182 13.0804 17.0137 14.2487 15.5725 14.2487C14.3576 14.2487 13.3348 13.4179 13.0451 12.2922L13.0374 12.2625L13.0276 12.2335L12.3983 10.377L12.3939 10.3785C11.8569 8.64997 10.2457 7.39405 8.33936 7.39405C5.99484 7.39405 4.09424 9.29465 4.09424 11.6392C4.09424 13.9837 5.99484 15.8843 8.33936 15.8843C8.88475 15.8843 9.40798 15.781 9.88918 15.5923L9.29188 14.0697C8.99787 14.185 8.67704 14.2487 8.33936 14.2487C6.89813 14.2487 5.72978 13.0804 5.72978 11.6392C5.72978 10.1979 6.89813 9.02959 8.33936 9.02959C9.5542 9.02959 10.577 9.86046 10.8668 10.9862L10.8769 10.9836L11.4693 12.7311C11.9513 14.546 13.6046 15.8843 15.5725 15.8843C17.917 15.8843 19.8176 13.9837 19.8176 11.6392C19.8176 9.29465 17.917 7.39404 15.5725 7.39404C15.0284 7.39404 14.5064 7.4968 14.0262 7.6847L14.6221 9.20781C14.9155 9.093 15.2356 9.02959 15.5725 9.02959C17.0137 9.02959 18.182 10.1979 18.182 11.6392Z" fill="#1E1E1E"/>
</svg>
