<svg width="24" height="24" viewBox="0 0 24 24" fill="none" xmlns="http://www.w3.org/2000/svg">
<path d="M9.12256 7.0102H11.1687V6.50509C11.1687 6.41883 11.241 6.34959 11.331 6.34959H12.4251C12.5139 6.34959 12.585 6.41769 12.585 6.50282V7.0102H14.881C14.9698 7.0102 15.0409 7.0783 15.0409 7.16343V8.17137C15.0409 8.2565 14.9698 8.32461 14.881 8.32461H14.5163C14.4677 8.62086 14.3967 8.91371 14.302 9.19975V9.21337C14.1942 9.53573 14.0568 9.849 13.8922 10.1487C13.7419 10.4165 13.5737 10.6742 13.389 10.9216C13.2315 11.1475 13.0574 11.3496 12.8715 11.5596C13.1368 11.8672 13.4269 12.1566 13.7371 12.4233C14.1137 12.7332 14.5139 13.0147 14.9343 13.2667C15.0089 13.3121 15.0314 13.4063 14.984 13.4778L14.4216 14.3189C14.3754 14.3927 14.2759 14.4165 14.1989 14.3723L14.1859 14.3643C13.7253 14.0896 13.286 13.782 12.8739 13.4449C12.5388 13.1577 12.2238 12.849 11.9337 12.521C11.6329 12.7775 11.3618 13.0193 11.0918 13.2451C10.7721 13.4971 10.4358 13.7412 10.0403 14.0022C9.96921 14.0544 9.86738 14.0419 9.81291 13.9738L9.8058 13.9636L9.21018 13.1384C9.15571 13.0703 9.16874 12.9727 9.23979 12.9205L9.25044 12.9137C9.64121 12.6572 9.95619 12.4199 10.2759 12.1748C10.5483 11.9489 10.8123 11.7241 11.0965 11.4619C10.8597 11.1396 10.6418 10.8047 10.4452 10.4585C10.2214 10.0465 10.0438 9.61291 9.91593 9.16456C9.89224 9.08283 9.94079 8.99884 10.0261 8.975L11.0302 8.70713C11.1155 8.68443 11.2031 8.73096 11.2279 8.81269C11.389 9.40746 11.6625 9.97046 12.032 10.4722L12.3304 10.0885C12.4594 9.90916 12.5779 9.72301 12.6856 9.53119C12.7993 9.32006 12.8952 9.101 12.9722 8.87512C13.0337 8.69464 13.0858 8.51076 13.1273 8.32461H9.12848C9.03967 8.32461 8.96744 8.2565 8.96625 8.17137V7.15662C8.96625 7.07036 9.03848 7.00112 9.12848 7.00112L9.12137 7.0102H9.12256ZM15.4731 19.8194L11.8579 16.74H5.57371C4.70811 16.7355 4.0071 16.0646 4 15.2338V5.50851C4.00355 5.10783 4.17288 4.72531 4.4701 4.44495L4.51747 4.40408C4.80403 4.14756 5.18176 4.00341 5.57371 4H18.4263C18.8431 4.00341 19.2422 4.16572 19.5335 4.45062L19.5784 4.49602C19.8461 4.77298 19.9964 5.13507 20 5.51305V15.2349C19.9941 16.0646 19.2931 16.7355 18.4263 16.7411H16.6157V19.3609C16.6098 19.7196 16.302 20.0056 15.929 19.9999C15.7537 19.9976 15.5856 19.9295 15.4612 19.8115L15.4731 19.8206V19.8194ZM12.5636 15.6083L15.2611 17.9148V16.093C15.2611 15.7343 15.5642 15.4438 15.9384 15.4438H18.4263C18.4843 15.4438 18.5388 15.4199 18.579 15.3802C18.6217 15.3427 18.6465 15.2894 18.6477 15.2338V5.50851C18.6454 5.46083 18.6276 5.41543 18.5956 5.37797L18.579 5.353C18.5376 5.31441 18.4843 5.29057 18.4263 5.28717H5.57371C5.52516 5.29511 5.48017 5.31781 5.44701 5.353H5.42096C5.37951 5.39159 5.35583 5.44381 5.35465 5.49942V15.2349C5.35346 15.3495 5.44938 15.4438 5.56898 15.4449H12.1149C12.2806 15.4449 12.4405 15.5039 12.5636 15.6095V15.6083Z" fill="black"/>
</svg>
