<?xml version="1.0" encoding="utf-8"?>
<svg width="24" height="24" version="1.1" xmlns="http://www.w3.org/2000/svg" xmlns:xlink="http://www.w3.org/1999/xlink" x="0px" y="0px"
	 viewBox="0 0 24 24" style="enable-background:new 0 0 24 24;" xml:space="preserve">
<path d="M3.2,3.2h17.6V0.5H3.2V3.2z"/>
<path d="M9.3,5.9h10.7c0.3,0,0.5,0.1,0.6,0.4c0.1,0.2,0.1,0.5,0,0.7c-0.1,0.2-0.4,0.4-0.6,0.4h-3.2v15.4c0,0.3-0.1,0.5-0.4,0.6
	c-0.2,0.1-0.5,0.1-0.7,0c-0.2-0.1-0.4-0.4-0.4-0.6V7.4H14v15.4c0,0.3-0.1,0.5-0.4,0.6c-0.2,0.1-0.5,0.1-0.7,0
	c-0.2-0.1-0.4-0.4-0.4-0.6v-4.6H9.3c-2.2,0-4.2-1.2-5.3-3.1C2.9,13.2,2.9,10.9,4,9C5.1,7.1,7.1,5.9,9.3,5.9z"/>
</svg>
