<?xml version="1.0" encoding="utf-8"?>
<svg width="24" height="24" version="1.1" xmlns="http://www.w3.org/2000/svg" xmlns:xlink="http://www.w3.org/1999/xlink" x="0px" y="0px"
	 viewBox="0 0 24 24" style="enable-background:new 0 0 24 24;" xml:space="preserve">
<path d="M5,5.5h13v-2H5V5.5z"/>
<path d="M9.5,7.5h7.9c0.2,0,0.4,0.1,0.5,0.3c0.1,0.2,0.1,0.4,0,0.5c-0.1,0.2-0.3,0.3-0.5,0.3h-2.3V20c0,0.2-0.1,0.4-0.3,0.5
	c-0.2,0.1-0.4,0.1-0.5,0C14.1,20.3,14,20.2,14,20V8.6h-1.1V20c0,0.2-0.1,0.4-0.3,0.5c-0.2,0.1-0.4,0.1-0.5,0
	c-0.2-0.1-0.3-0.3-0.3-0.5v-3.4H9.5c-1.6,0-3.1-0.9-3.9-2.3s-0.8-3.1,0-4.5C6.4,8.4,7.9,7.5,9.5,7.5z"/>
</svg>
