<?xml version="1.0" encoding="utf-8"?>
<svg version="1.1" width="24" height="24" xmlns="http://www.w3.org/2000/svg" xmlns:xlink="http://www.w3.org/1999/xlink" x="0px" y="0px"
	 viewBox="0 0 24 24" style="enable-background:new 0 0 24 24;" xml:space="preserve">
<path d="M0,0v24h24V0H0z M11,21.5c0,0.3-0.2,0.5-0.5,0.5h-8C2.2,22,2,21.8,2,21.5v-8.3c0-0.3,0.2-0.5,0.5-0.5h8
	c0.3,0,0.5,0.2,0.5,0.5V21.5z M11,10.8c0,0.3-0.2,0.5-0.5,0.5h-8C2.2,11.3,2,11,2,10.8V2.5C2,2.2,2.2,2,2.5,2h8
	C10.8,2,11,2.2,11,2.5V10.8z M22,21.5c0,0.3-0.2,0.5-0.5,0.5h-8c-0.3,0-0.5-0.2-0.5-0.5v-8.3c0-0.3,0.2-0.5,0.5-0.5h8
	c0.3,0,0.5,0.2,0.5,0.5V21.5z M22,10.8c0,0.3-0.2,0.5-0.5,0.5h-8c-0.3,0-0.5-0.2-0.5-0.5V2.5C13,2.2,13.2,2,13.5,2h8
	C21.8,2,22,2.2,22,2.5V10.8z"/>
</svg>
