<?xml version="1.0" encoding="utf-8"?>
<svg version="1.1" xmlns="http://www.w3.org/2000/svg" xmlns:xlink="http://www.w3.org/1999/xlink" x="0px" y="0px"
	 viewBox="0 0 24 24" style="enable-background:new 0 0 24 24;" xml:space="preserve">
	<rect x="1" y="5" fill="black" width="1" height="2"/>
	<rect x="2.4" y="19" fill="black" width="2" height="1"/>
	<rect x="1" y="9" fill="black" width="1" height="2"/>
	<rect x="15.2" y="4" fill="black" width="2" height="1"/>
	<rect x="1" y="17" fill="black" width="1" height="2"/>
	<rect x="1" y="13" fill="black" width="1" height="2"/>
	<rect x="11.2" y="4" fill="black" width="2" height="1"/>
	<rect x="3.2" y="4" fill="black" width="2" height="1"/>
	<rect x="7.2" y="4" fill="black" width="2" height="1"/>
	<path fill="black" d="M22,19l0.7,0.8c0.2-0.2,0.3-0.5,0.3-0.8v-1.6h-1V19z"/>
	<rect x="19.2" y="4" fill="black" width="2" height="1"/>
	<rect x="18.4" y="19" fill="black" width="2" height="1"/>
	<rect x="22" y="13.4" fill="black" width="1" height="2"/>
	<rect x="22" y="9.4" fill="black" width="1" height="2"/>
	<rect x="22" y="5.4" fill="black" width="1" height="2"/>
	<rect x="14.4" y="19" fill="black" width="2" height="1"/>
	<rect x="6.4" y="19" fill="black" width="2" height="1"/>
	<rect x="10.4" y="19" fill="black" width="2" height="1"/>
	<path fill="black" d="M19.8,17.5c0,0,0.1,0,0.1-0.1c0,0,0.1-0.1,0.1-0.1s0-0.1,0-0.1V7.3c0,0,0-0.1,0-0.1c0,0,0-0.1-0.1-0.1
		c0,0-0.1-0.1-0.1-0.1c0,0-0.1,0-0.1,0H4.4c0,0-0.1,0-0.1,0s-0.1,0-0.1,0.1c0,0-0.1,0.1-0.1,0.1c0,0,0,0.1,0,0.1v9.9
		c0,0,0,0.1,0,0.1c0,0,0,0.1,0.1,0.1c0,0,0.1,0.1,0.1,0.1c0,0,0.1,0,0.1,0h15.3C19.7,17.6,19.7,17.6,19.8,17.5z M5.1,16.8l1.5-2.2
		l1.7-2.3l1.7,2.3l1.1,1.5c0,0,0.1,0.1,0.1,0.1c0.1,0,0.1,0,0.2,0c0.1,0,0.1,0,0.2,0c0.1,0,0.1-0.1,0.1-0.1l1.5-2.1l2-2.8l0,0l2,2.8
		l1.9,2.8H5.1z M19.3,16l-1.6-2.4c0,0,0,0,0,0l-2.3-3.2c0,0-0.1-0.1-0.1-0.1c-0.1,0-0.1,0-0.2,0c-0.1,0-0.1,0-0.2,0
		c-0.1,0-0.1,0.1-0.1,0.1l-2.3,3.2l-1.2,1.7l-0.8-1.1l-1.9-2.7c0,0-0.1-0.1-0.1-0.1c-0.1,0-0.1,0-0.2,0c-0.1,0-0.1,0-0.2,0
		c-0.1,0-0.1,0.1-0.1,0.1l-2,2.7c0,0,0,0,0,0l-1.3,1.8V7.7h14.5L19.3,16z"/>
	<path fill="black" d="M6.7,11.2c0.8,0,1.4-0.6,1.4-1.4c0-0.8-0.6-1.4-1.4-1.4c-0.8,0-1.4,0.6-1.4,1.4C5.3,10.6,5.9,11.2,6.7,11.2z
		 M6.7,9.2c0.4,0,0.7,0.3,0.7,0.6c0,0.3-0.3,0.6-0.7,0.6C6.3,10.5,6,10.2,6,9.8C6,9.5,6.3,9.2,6.7,9.2z"/>
</svg>
